<?xml version="1.0" encoding="UTF-8" standalone="no"?>
<!-- Created with Inkscape (http://www.inkscape.org/) -->

<svg
   width="106.0265mm"
   height="131.10904mm"
   viewBox="0 0 106.0265 131.10904"
   version="1.1"
   id="svg1"
   sodipodi:docname="fiberbg.svg"
   xmlns:inkscape="http://www.inkscape.org/namespaces/inkscape"
   xmlns:sodipodi="http://sodipodi.sourceforge.net/DTD/sodipodi-0.dtd"
   xmlns:xlink="http://www.w3.org/1999/xlink"
   xmlns="http://www.w3.org/2000/svg"
   xmlns:svg="http://www.w3.org/2000/svg">
  <sodipodi:namedview
     id="namedview1"
     pagecolor="#ffffff"
     bordercolor="#000000"
     borderopacity="0.25"
     inkscape:showpageshadow="2"
     inkscape:pageopacity="0.0"
     inkscape:pagecheckerboard="0"
     inkscape:deskcolor="#d1d1d1"
     inkscape:document-units="mm">
    <inkscape:page
       x="0"
       y="0"
       width="106.0265"
       height="131.10904"
       id="page2"
       margin="0"
       bleed="0" />
  </sodipodi:namedview>
  <defs
     id="defs1">
    <pattern
       xlink:href="#invert grid"
       preserveAspectRatio="xMidYMid"
       id="pattern26"
       patternTransform="scale(1)"
       x="0"
       y="0" />
    <pattern
       xlink:href="#invert grid"
       preserveAspectRatio="xMidYMid"
       id="pattern7"
       patternTransform="scale(0.8)"
       x="0"
       y="0" />
    <pattern
       patternUnits="userSpaceOnUse"
       width="12"
       height="12"
       preserveAspectRatio="xMidYMid"
       id="invert grid"
       x="0"
       y="0"
       style="fill:#6e74ec">
      <rect
         style="stroke:none;paint-order:markers fill stroke"
         id="rect2-0"
         width="10"
         height="10"
         x="0"
         y="0" />
    </pattern>
    <filter
       style="color-interpolation-filters:sRGB"
       id="filter7"
       x="-0.02909928"
       y="-0.023528182"
       width="1.0581665"
       height="1.0472349">
      <feGaussianBlur
         stdDeviation="0.17189666"
         id="feGaussianBlur7" />
    </filter>
    <filter
       style="color-interpolation-filters:sRGB"
       id="filter10"
       x="-0.028354443"
       y="-0.028581708"
       width="1.0566604"
       height="1.0577476">
      <feGaussianBlur
         stdDeviation="0.0025928342"
         id="feGaussianBlur10" />
    </filter>
    <filter
       style="color-interpolation-filters:sRGB"
       id="filter17"
       x="-0.064074044"
       y="-0.054263311"
       width="1.1301056"
       height="1.1096365">
      <feGaussianBlur
         stdDeviation="0.45526135"
         id="feGaussianBlur17" />
    </filter>
    <filter
       style="color-interpolation-filters:sRGB"
       id="filter18"
       x="-0.067931492"
       y="-0.070842223"
       width="1.135863"
       height="1.1417094">
      <feGaussianBlur
         stdDeviation="0.45526135"
         id="feGaussianBlur18" />
    </filter>
  </defs>
  <g
     id="layer1"
     style="display:none">
    <path
       style="display:inline;opacity:0.85938;fill:none;fill-opacity:1;stroke:url(#pattern7);stroke-width:4.99999;stroke-linecap:round;stroke-linejoin:round;stroke-dasharray:none;stroke-opacity:1;paint-order:fill markers stroke;filter:url(#filter7)"
       d="M 11.783132,17.750356 C 21.737908,7.2915702 34.250638,3.7247793 47.438296,3.7389563 60.625951,3.7531433 77.605427,9.6456443 86.726708,18.936471 95.847999,28.2273 101.77283,34.12272 102.37454,44.55222 c 0.35374,6.131321 -0.34572,7.407234 -2.05648,8.614815 -1.710772,1.207579 -4.713719,2.984235 -6.036836,-1.200454 C 91.936947,44.552217 91.199388,41.801622 85.736769,34.94589 80.274147,28.090168 69.594255,21.194656 61.892162,18.257338 54.19007,15.320021 45.692126,15.517909 37.73547,17.525529 c -7.956656,2.007621 -15.372022,5.824973 -18.908363,8.617103 -3.536341,2.79213 -4.670297,6.809232 -4.217573,8.803255 0.452724,1.994025 3.271566,3.742639 9.390551,0 6.431916,-3.93404 23.590179,-9.768365 35.204793,-5.588661 11.781744,4.239853 21.116873,15.306406 24.581421,22.609352 3.606787,7.602758 3.013724,9.402684 1.039886,10.795966 -1.973848,1.393278 -3.184802,1.825987 -7.373294,-2.806884 -4.188492,-4.632872 -8.805792,-14.495211 -18.248015,-17.958435 -9.442216,-3.463232 -24.692849,0.293329 -30.704243,3.170223 -6.011394,2.876894 -5.331322,5.037852 -4.545035,7.169793 0.786287,2.131941 1.678692,4.234609 6.476403,4.106686 4.79771,-0.127922 15.633326,-5.275972 23.466433,-3.363873 7.833105,1.912098 15.488868,9.243184 16.785469,14.639504 1.060097,4.41199 0.0078,4.426955 -1.839528,5.530685 -1.847332,1.10373 -4.125468,2.311327 -6.710744,0.712317 -2.585276,-1.599011 -4.181177,-7.438696 -9.649549,-9.466383 -5.468375,-2.027688 -11.25205,-0.919826 -14.748612,10e-7 -3.496561,0.919828 -4.154541,3.906285 -3.228381,5.327512 0.926161,1.421227 1.684884,3.130468 4.283641,3.620061 2.598758,0.489595 5.190083,-1.060917 8.647566,10e-7 3.457492,1.060882 5.97577,3.556563 7.094783,5.682856 1.119004,2.126289 0.838612,3.883038 3.194975,8.298273 2.356355,4.415233 7.349468,11.488908 10.886248,19.898769 3.536791,8.40988 5.61723,18.15586 2.069603,19.90669 -3.547627,1.75082 -12.723169,-4.4935 -17.482586,-11.23611 -4.759427,-6.74262 -5.102503,-13.98323 -5.911297,-18.226085 -0.808794,-4.242859 -2.083275,-5.487862 -5.82488,-3.179161 -3.741605,2.3087 -9.950271,8.171066 -18.173309,9.248376 C 15.068794,104.91468 2.8687865,100.49615 2.0326272,96.983997 1.1964676,93.471832 10.9309,87.534249 18.836124,84.418705 26.74135,81.303162 31.593693,82.023637 39.727864,82.087746"
       id="path1" />
    <path
       style="display:inline;fill:#000000;fill-opacity:0;stroke:#9bdbfc;stroke-width:4.99999;stroke-linecap:round;stroke-linejoin:round;stroke-dasharray:none;stroke-opacity:1;paint-order:fill markers stroke"
       d="M 13.370634,15.633688 C 23.325409,5.1749035 35.838139,1.6081125 49.025797,1.6222895 c 13.187656,0.014187 30.167131,5.906688 39.288413,15.1975135 9.121291,9.290829 15.04614,15.186249 15.64785,25.615749 0.35373,6.131321 -0.34573,7.407234 -2.05649,8.614816 -1.71078,1.207578 -4.713728,2.984234 -6.036845,-1.200455 C 93.524448,42.43555 92.78689,39.684954 87.32427,32.829222 81.861648,25.9735 71.181756,19.077988 63.479663,16.14067 55.777572,13.203353 47.279628,13.401241 39.322972,15.408862 c -7.956656,2.00762 -15.372023,5.824972 -18.908363,8.617102 -3.536342,2.79213 -4.670298,6.809232 -4.217573,8.803255 0.452724,1.994025 3.271565,3.742639 9.39055,0 6.431916,-3.93404 23.590179,-9.768365 35.204793,-5.58866 11.781744,4.239852 21.116873,15.306406 24.581422,22.609351 3.606787,7.602758 3.013724,9.402685 1.039885,10.795967 -1.973848,1.393278 -3.184802,1.825986 -7.373294,-2.806885 C 74.8519,53.206121 70.2346,43.343781 60.792377,39.880557 51.350161,36.417325 36.099528,40.173886 30.088134,43.05078 c -6.011393,2.876894 -5.331321,5.037852 -4.545035,7.169793 0.786287,2.131942 1.678692,4.234609 6.476403,4.106687 4.79771,-0.127923 15.633327,-5.275973 23.466434,-3.363873 7.833104,1.912097 15.488867,9.243183 16.785469,14.639503 1.060096,4.41199 0.0078,4.426955 -1.839529,5.530685 -1.847332,1.10373 -4.125468,2.311327 -6.710744,0.712317 -2.585275,-1.59901 -4.181177,-7.438696 -9.649549,-9.466382 -5.468375,-2.027689 -11.25205,-0.919827 -14.748611,0 -3.496561,0.919829 -4.154542,3.906285 -3.228382,5.327512 0.926162,1.421227 1.684885,3.130468 4.283641,3.620062 2.598758,0.489595 5.190084,-1.060917 8.647566,0 3.457492,1.060882 5.97577,3.556563 7.094783,5.682856 1.119004,2.12629 0.838612,3.883038 3.194976,8.298273 2.356354,4.415234 7.349467,11.488908 10.886247,19.898767 3.536791,8.40987 5.617231,18.15586 2.069604,19.90668 -3.547628,1.75082 -12.72317,-4.4935 -17.482587,-11.23611 -4.759427,-6.74262 -5.102503,-13.983227 -5.911297,-18.226072 -0.808794,-4.24286 -2.083274,-5.487863 -5.824879,-3.179162 -3.741606,2.3087 -9.950272,8.171054 -18.17331,9.248374 C 16.656295,102.798 4.4562866,98.379492 3.6201273,94.867329 2.7839678,91.355164 12.518401,85.417581 20.423626,82.302038 c 7.905225,-3.115543 12.757568,-2.395069 20.89174,-2.33096"
       id="path5" />
  </g>
  <g
     id="layer2"
     style="display:none;opacity:1">
    <path
       style="opacity:1;fill:#000000;fill-opacity:0;stroke:url(#pattern26);stroke-width:5;stroke-linecap:round;stroke-linejoin:round;stroke-dasharray:none;stroke-opacity:1;paint-order:fill markers stroke;filter:url(#filter10)"
       d="M 41.022849,96.157557 C 34.677981,89.265718 28.333114,82.37388 25.48887,75.646067 22.644626,68.918253 23.300978,62.354729 25.926486,57.541351 c 2.625508,-4.813378 7.219976,-7.876356 11.431693,-3.719261 4.211717,4.157095 8.040439,15.533871 7.548117,21.386468 -0.492322,5.852596 -5.305575,6.180773 -6.344793,-0.547112 -1.039218,-6.727885 1.695584,-20.511287 6.454303,-27.348428 4.758719,-6.83714 11.541027,-6.727748 17.120178,1.32e-4 5.579151,6.727881 9.954834,20.073716 9.626602,26.28183 -0.328233,6.208113 -5.360269,5.278279 -6.235391,-0.629121 -0.875121,-5.907399 2.406641,-16.791908 6.67307,-20.42923 4.266429,-3.637322 9.517248,-0.02738 12.306805,5.415053 2.789557,5.442436 3.117733,12.717007 -0.328259,19.390118 -3.445991,6.673111 -10.665866,12.744372 -14.494671,15.780064 -3.828804,3.035693 -4.266372,3.035693 -2.95361,4.457847 1.312762,1.422154 4.37574,4.266349 4.321012,7.055929 -0.05473,2.78958 -3.227098,5.52438 -5.852582,5.96194 -2.625484,0.43756 -4.703935,-1.42211 -6.536305,-0.62896 -1.832369,0.79314 -3.418522,4.23892 -4.963746,3.73296 -1.545224,-0.50595 -3.049338,-4.9636 -5.155218,-4.43029 -2.10588,0.53331 -4.81328,6.0575 -7.876381,8.28645 -3.063102,2.22896 -6.481539,1.1624 -7.684898,-2.55707 -1.20336,-3.71948 -0.191501,-10.09145 1.846007,-11.59565 2.037508,-1.5042 5.100425,1.85954 7.999432,5.97687 2.899007,4.11733 5.63381,8.98785 10.337828,10.79284 4.704019,1.80499 11.376934,0.54441 16.791992,-1.39865 5.415057,-1.94306 9.571956,-4.56847 13.783678,-9.16309 4.211723,-4.59463 8.478013,-11.158154 11.022725,-17.393686 C 97.308786,85.983772 98.131801,80.0766 97.366017,73.731664 96.600234,67.386728 94.24573,60.60442 90.989923,55.079968 87.734115,49.555516 83.577215,45.289223 79.146701,42.11677 74.716187,38.944316 70.012326,36.865865 65.611122,35.469793 61.209917,34.07372 57.111624,33.360094 52.735806,33.360101 c -4.375818,7e-6 -9.028889,0.713633 -14.090383,2.656701 -5.061493,1.943069 -10.531098,5.115441 -15.070995,9.545965 -4.539898,4.430524 -8.149837,10.118911 -10.530462,15.315186 -2.380625,5.196275 -3.5318179,9.900133 -3.7505995,14.713531 -0.2187816,4.813398 0.4948431,9.736039 2.1097225,14.713529 1.614879,4.97749 4.130898,10.009527 6.701689,13.838347 2.570792,3.82883 5.196201,6.45424 7.821662,9.0797"
       id="path8"
       transform="translate(-1.0583333,2.1166667)" />
    <path
       style="opacity:1;fill:none;stroke:#9bdbfc;stroke-width:5;stroke-linecap:round;stroke-linejoin:round;stroke-dasharray:none;stroke-opacity:1;paint-order:fill markers stroke"
       d="M 41.022849,96.157557 C 34.677981,89.265718 28.333114,82.37388 25.48887,75.646067 22.644626,68.918253 23.300978,62.354729 25.926486,57.541351 c 2.625508,-4.813378 7.219976,-7.876356 11.431693,-3.719261 4.211717,4.157095 8.040439,15.533871 7.548117,21.386468 -0.492322,5.852596 -5.305575,6.180773 -6.344793,-0.547112 -1.039218,-6.727885 1.695584,-20.511287 6.454303,-27.348428 4.758719,-6.83714 11.541027,-6.727748 17.120178,1.32e-4 5.579151,6.727881 9.954834,20.073716 9.626602,26.28183 -0.328233,6.208113 -5.360269,5.278279 -6.235391,-0.629121 -0.875121,-5.907399 2.406641,-16.791908 6.67307,-20.42923 4.266429,-3.637322 9.517248,-0.02738 12.306805,5.415053 2.789557,5.442436 3.117733,12.717007 -0.328259,19.390118 -3.445991,6.673111 -10.665866,12.744372 -14.494671,15.780064 -3.828804,3.035693 -4.266372,3.035693 -2.95361,4.457847 1.312762,1.422154 4.37574,4.266349 4.321012,7.055929 -0.05473,2.78958 -3.227098,5.52438 -5.852582,5.96194 -2.625484,0.43756 -4.703935,-1.42211 -6.536305,-0.62896 -1.832369,0.79314 -3.418522,4.23892 -4.963746,3.73296 -1.545224,-0.50595 -3.049338,-4.9636 -5.155218,-4.43029 -2.10588,0.53331 -4.81328,6.0575 -7.876381,8.28645 -3.063102,2.22896 -6.481539,1.1624 -7.684898,-2.55707 -1.20336,-3.71948 -0.191501,-10.09145 1.846007,-11.59565 2.037508,-1.5042 5.100425,1.85954 7.999432,5.97687 2.899007,4.11733 5.63381,8.98785 10.337828,10.79284 4.704019,1.80499 11.376934,0.54441 16.791992,-1.39865 5.415057,-1.94306 9.571956,-4.56847 13.783678,-9.16309 4.211723,-4.59463 8.478013,-11.158154 11.022725,-17.393686 C 97.308786,85.983772 98.131801,80.0766 97.366017,73.731664 96.600234,67.386728 94.24573,60.60442 90.989923,55.079968 87.734115,49.555516 83.577215,45.289223 79.146701,42.11677 74.716187,38.944316 70.012326,36.865865 65.611122,35.469793 61.209917,34.07372 57.111624,33.360094 52.735806,33.360101 c -4.375818,7e-6 -9.028889,0.713633 -14.090383,2.656701 -5.061493,1.943069 -10.531098,5.115441 -15.070995,9.545965 -4.539898,4.430524 -8.149837,10.118911 -10.530462,15.315186 -2.380625,5.196275 -3.5318179,9.900133 -3.7505995,14.713531 -0.2187816,4.813398 0.4948431,9.736039 2.1097225,14.713529 1.614879,4.97749 4.130898,10.009527 6.701689,13.838347 2.570792,3.82883 5.196201,6.45424 7.821662,9.0797"
       id="path9" />
  </g>
  <g
     id="layer3">
    <path
       id="path6"
       style="opacity:0.825272;fill:none;fill-opacity:1;stroke:#6e74ec;stroke-width:5.90642;stroke-linecap:round;stroke-opacity:1;paint-order:fill markers stroke;filter:url(#filter18)"
       d="m 70.903594,73.742976 c -4.59329,9.19346 -21.200575,8.834845 -31.908197,8.834845 -15.27035,0 -27.649414,-12.784209 -27.649414,-28.554329 0,-15.77012 12.379064,-28.554329 27.649414,-28.554329 15.27035,0 29.006567,10.370899 29.006567,26.141019 0,4.240618 -0.371655,9.319154 -0.762455,10.452293 C 66.426681,64.419304 60.93888,74.669047 55.473263,78.473327 51.52588,81.220857 37.29112,82.91478 29.331454,75.37285 24.28054,70.587017 23.531884,55.563243 36.177233,52.913856" />
    <path
       style="opacity:0.825272;fill:none;fill-opacity:1;stroke:#6e74ec;stroke-width:4.99999;stroke-linecap:round;stroke-dasharray:none;stroke-opacity:1;paint-order:fill markers stroke;filter:url(#filter17)"
       d="m 71.59691,72.692495 c 1.568533,-2.953646 3.137033,-5.907232 6.191291,-12.279577 3.054259,-6.372344 7.594029,-16.162934 10.383593,-14.49454 2.789565,1.668394 3.828791,14.795445 -7.083517,26.418688 -10.912308,11.623243 -33.775252,21.742012 -40.776399,29.180874 -7.001146,7.43885 1.859614,12.19741 10.501846,8.99751 8.642233,-3.19989 17.065423,-14.357883 24.996582,-21.058305 7.931159,-6.700422 15.369822,-8.942959 17.420931,-5.688392 2.051109,3.254567 -1.285349,12.005933 -5.49708,16.573147 -4.21173,4.56722 -9.298463,4.95009 -14.385297,5.33297"
       id="path7"
       transform="translate(-1.0583333,5.0218458)" />
    <path
       id="path2"
       style="fill:none;stroke:#9bdbfc;stroke-width:5.90642;stroke-linecap:round;paint-order:fill markers stroke"
       d="m 74.514592,71.896131 c -4.59329,9.19346 -21.200575,8.834845 -31.908197,8.834845 -15.27035,0 -27.649414,-12.784209 -27.649414,-28.554329 0,-15.77012 12.379064,-28.554329 27.649414,-28.554329 15.27035,0 29.006567,10.370899 29.006567,26.141019 0,4.240618 -0.371655,9.319154 -0.762455,10.452293 -0.812828,2.356829 -6.300629,12.606572 -11.766246,16.410852 -3.947383,2.74753 -18.182143,4.441453 -26.141809,-3.100477 -5.050914,-4.785833 -5.79957,-19.809607 6.845779,-22.458994" />
    <path
       style="fill:none;stroke:#9bdbfc;stroke-width:4.99999;stroke-linecap:round;stroke-dasharray:none;stroke-opacity:1;paint-order:fill markers stroke"
       d="m 71.59691,72.692495 c 1.568533,-2.953646 3.137033,-5.907232 6.191291,-12.279577 3.054259,-6.372344 7.594029,-16.162934 10.383593,-14.49454 2.789565,1.668394 3.828791,14.795445 -7.083517,26.418688 -10.912308,11.623243 -33.775252,21.742012 -40.776399,29.180874 -7.001146,7.43885 1.859614,12.19741 10.501846,8.99751 8.642233,-3.19989 17.065423,-14.357883 24.996582,-21.058305 7.931159,-6.700422 15.369822,-8.942959 17.420931,-5.688392 2.051109,3.254567 -1.285349,12.005933 -5.49708,16.573147 -4.21173,4.56722 -9.298463,4.95009 -14.385297,5.33297"
       id="path3" />
  </g>
</svg>
