<?xml version="1.0" encoding="UTF-8" standalone="no"?>
<!-- Created with Inkscape (http://www.inkscape.org/) -->

<svg
   width="162.34065mm"
   height="140.14801mm"
   viewBox="0 0 162.34065 140.14801"
   version="1.1"
   id="svg1"
   sodipodi:docname="logo.svg"
   xmlns:inkscape="http://www.inkscape.org/namespaces/inkscape"
   xmlns:sodipodi="http://sodipodi.sourceforge.net/DTD/sodipodi-0.dtd"
   xmlns="http://www.w3.org/2000/svg"
   xmlns:svg="http://www.w3.org/2000/svg">
  <sodipodi:namedview
     id="namedview1"
     pagecolor="#ffffff"
     bordercolor="#000000"
     borderopacity="0.25"
     inkscape:showpageshadow="2"
     inkscape:pageopacity="0.0"
     inkscape:pagecheckerboard="0"
     inkscape:deskcolor="#d1d1d1"
     inkscape:document-units="mm">
    <inkscape:page
       x="0"
       y="-5.9186678e-13"
       width="162.34065"
       height="140.14799"
       id="page2"
       margin="0"
       bleed="0" />
  </sodipodi:namedview>
  <defs
     id="defs1">
    <inkscape:path-effect
       effect="bspline"
       id="path-effect7"
       is_visible="true"
       lpeversion="1.3"
       weight="33.333333"
       steps="2"
       helper_size="0"
       apply_no_weight="true"
       apply_with_weight="true"
       only_selected="false"
       uniform="false" />
    <inkscape:path-effect
       effect="bspline"
       id="path-effect6"
       is_visible="true"
       lpeversion="1.3"
       weight="33.333333"
       steps="2"
       helper_size="0"
       apply_no_weight="true"
       apply_with_weight="true"
       only_selected="false"
       uniform="false" />
    <inkscape:path-effect
       effect="bspline"
       id="path-effect5"
       is_visible="true"
       lpeversion="1.3"
       weight="33.333333"
       steps="2"
       helper_size="0"
       apply_no_weight="true"
       apply_with_weight="true"
       only_selected="false"
       uniform="false" />
    <inkscape:path-effect
       effect="bspline"
       id="path-effect4"
       is_visible="true"
       lpeversion="1.3"
       weight="33.333333"
       steps="2"
       helper_size="0"
       apply_no_weight="true"
       apply_with_weight="true"
       only_selected="false"
       uniform="false" />
    <inkscape:path-effect
       effect="bspline"
       id="path-effect3"
       is_visible="true"
       lpeversion="1.3"
       weight="33.333333"
       steps="2"
       helper_size="0"
       apply_no_weight="true"
       apply_with_weight="true"
       only_selected="false"
       uniform="false" />
    <inkscape:path-effect
       effect="bspline"
       id="path-effect2"
       is_visible="true"
       lpeversion="1.3"
       weight="33.333333"
       steps="2"
       helper_size="0"
       apply_no_weight="true"
       apply_with_weight="true"
       only_selected="false"
       uniform="false" />
    <inkscape:path-effect
       effect="bspline"
       id="path-effect1"
       is_visible="true"
       lpeversion="1.3"
       weight="33.333333"
       steps="2"
       helper_size="0"
       apply_no_weight="true"
       apply_with_weight="true"
       only_selected="false"
       uniform="false" />
    <filter
       inkscape:collect="always"
       style="color-interpolation-filters:sRGB"
       id="filter10"
       x="-0.056299289"
       y="-0.051563725"
       width="1.1119832"
       height="1.1045801">
      <feGaussianBlur
         inkscape:collect="always"
         stdDeviation="0.26131604"
         id="feGaussianBlur10" />
    </filter>
  </defs>
  <path
     sodipodi:type="star"
     style="opacity:0.636262;fill:#e9e649;fill-opacity:1;stroke:#cf7f28;stroke-width:12;stroke-linejoin:round;stroke-dasharray:none;stroke-dashoffset:0;stroke-opacity:1;paint-order:stroke markers fill;filter:url(#filter10)"
     id="path10"
     inkscape:flatsided="false"
     sodipodi:sides="9"
     sodipodi:cx="2.625"
     sodipodi:cy="35.25"
     sodipodi:r1="62.527245"
     sodipodi:r2="50.585602"
     sodipodi:arg1="0.56304938"
     sodipodi:arg2="0.91211523"
     inkscape:rounded="0.22"
     inkscape:randomized="0.1"
     d="M 60.267389,66.434729 C 57.609273,70.993033 41.253086,68.161443 37.391295,71.639156 33.529504,75.116869 25.121384,92.814034 20.281878,94.741262 15.442372,96.66849 4.8509381,91.927086 -0.21267562,91.33121 -5.2762894,90.735334 -20.521721,94.105665 -25.419547,92.789613 c -4.897826,-1.316052 1.412201,-20.660092 -2.520497,-23.471286 -3.932698,-2.811195 -27.622753,3.876336 -29.738954,-0.619694 -2.1162,-4.49603 10.774364,-24.267053 10.595976,-29.123122 -0.178387,-4.856068 -10.564157,-18.849207 -9.177278,-23.844994 1.386879,-4.995787 11.530672,-3.803845 14.349912,-7.8822953 2.819239,-4.0784503 -1.736317,-24.6455947 2.317843,-27.2501257 4.05416,-2.604532 25.342548,14.6398338 29.700607,12.5668211 4.3580594,-2.0730126 4.736216,-26.8884251 9.62618682,-26.3830321 4.88997078,0.505393 23.45980718,23.4597043 28.09369218,25.7515512 4.633885,2.2918469 12.266783,-10.3989592 15.647658,-6.7539842 3.380874,3.644976 -1.330221,23.130747 1.407508,27.291811 2.73773,4.161065 13.515119,14.043611 14.500364,19.057046 0.985246,5.013435 -11.172312,8.970847 -12.272168,13.915001 -1.099856,4.944153 15.814203,15.833116 13.156086,20.391419 z"
     inkscape:transform-center-x="-21.828196"
     inkscape:transform-center-y="-5.3922087"
     transform="rotate(88.631088,24.305442,97.20303)" />
  <g
     inkscape:label="Layer 1"
     inkscape:groupmode="layer"
     id="layer1"
     transform="translate(-5.038049,-35.5936)">
    <path
       style="fill:#6c6cc2;fill-opacity:1;stroke:#7050a4;stroke-width:2.11667;stroke-linejoin:round;stroke-opacity:0.996078;paint-order:markers fill stroke"
       d="m 27.891235,68.041944 c 6.580221,-0.33647 14.004842,-0.513247 19.904808,-2.612511 5.899966,-2.099264 10.275014,-6.120772 16.484418,-9.059743 6.209404,-2.93897 14.252415,-4.79505 20.400099,-2.68721 6.147683,2.107841 10.399398,8.179512 10.66456,13.637446 0.265163,5.457933 -3.456237,10.302097 -8.101276,11.972934 -4.645038,1.670837 -10.213287,0.168294 -16.113328,-0.87029 -5.900041,-1.038584 -12.131175,-1.613085 -15.64468,0.817642 -3.513504,2.430726 -4.308973,7.866429 -5.020758,14.358068 -0.711784,6.49164 -1.339829,14.03874 0.249706,20.82262 1.589534,6.78389 5.396639,12.80441 7.787799,17.56029 2.39116,4.75588 3.366344,8.24706 2.439721,12.15818 -0.926623,3.91112 -3.755043,8.24214 -9.213755,13.17602 -5.458712,4.93387 -13.547228,10.47026 -18.983217,7.99534 -5.435989,-2.47492 -8.218866,-12.96107 -7.621554,-26.20356 0.597312,-13.24249 4.574708,-29.24046 5.635349,-38.52126 1.060641,-9.280798 -0.795439,-11.843956 -2.629768,-11.309704 -1.834328,0.534252 -3.646729,4.165946 -6.143681,6.265154 -2.496953,2.099208 -5.678442,2.665906 -8.867612,0.818175 -3.1891697,-1.84773 -6.3858485,-6.109777 -6.9335636,-11.010307 -0.547715,-4.90053 1.5535704,-10.43949 5.4721446,-13.457072 3.918574,-3.017583 9.654367,-3.513743 16.234588,-3.850212 z"
       id="path1"
       inkscape:path-effect="#path-effect1"
       inkscape:original-d="m 27.046835,67.882251 c 7.424621,-0.176776 14.849242,-0.353555 22.273863,-0.530331 4.375311,-4.021751 8.750359,-8.043259 13.125668,-12.065008 8.043499,-1.856192 16.08651,-3.712272 24.13002,-5.568467 4.251857,6.071876 8.503572,12.143547 12.755302,18.215242 -3.721405,4.844172 -7.442805,9.688336 -11.164312,14.53264 -5.56857,-1.50263 -11.136819,-3.005173 -16.705397,-4.507805 -6.231504,-0.574536 -12.462638,-1.149037 -18.694137,-1.723572 -0.795511,5.435988 -1.590979,10.871691 -2.386485,16.30765 -0.628063,7.54732 -1.256108,15.09442 -1.884163,22.64164 3.807124,6.02055 7.614229,12.04107 11.42136,18.06163 0.97519,3.4912 1.950371,6.98238 2.925562,10.47358 -2.828437,4.33104 -5.656855,8.66206 -8.485283,12.99309 -8.088997,5.53672 -16.177513,11.07311 -24.266504,16.60983 -2.782986,-10.48656 -5.565862,-20.97271 -8.348796,-31.45907 3.977555,-15.99862 7.954951,-31.99659 11.932427,-47.994876 -1.856192,-2.563312 -3.712272,-5.12647 -5.568466,-7.689786 -1.812463,3.63182 -3.624864,7.263514 -5.437276,10.895231 -3.181493,0.566699 -6.362982,1.133397 -9.544548,1.700109 C 9.9288962,94.511805 6.7322176,90.249758 3.5355008,85.987661 5.6367876,80.448698 7.7380727,74.909738 9.8393734,69.370738 15.575221,68.874573 21.311014,68.378413 27.046835,67.882251 Z"
       sodipodi:nodetypes="cccccccccccccccccccccc" />
    <path
       style="fill:#cf7f28;fill-opacity:1;stroke:#ffffff;stroke-width:2.11667;stroke-linejoin:round;stroke-opacity:1;paint-order:markers fill stroke"
       d="m 60.659141,83.026473 c -1.245939,-1.291865 -2.924994,-1.839981 -3.525138,0.182039 -0.600143,2.02202 -0.121373,6.614105 -0.566658,10.509834 -0.445286,3.895729 -1.814607,7.094884 -2.311734,9.888714 -0.497128,2.79384 -0.122049,5.18234 1.119971,5.63458 1.24202,0.45224 3.350963,-1.03178 4.740473,-2.88287 1.38951,-1.85109 2.05958,-4.06924 4.652638,-4.09082 2.593058,-0.0216 7.109011,2.15336 11.146402,1.82266 4.037391,-0.33071 7.595915,-3.16707 9.95015,-6.199105 2.354235,-3.032037 3.50418,-6.259754 3.151669,-8.826669 -0.352511,-2.566915 -2.207415,-4.472833 -4.647014,-5.02049 -2.439599,-0.547658 -5.463728,0.263013 -7.772722,-0.0701 -2.308993,-0.333115 -3.902818,-1.810026 -5.805737,-2.657634 -1.902919,-0.847607 -4.114922,-1.065907 -4.595538,0.006 -0.480616,1.071876 0.770161,3.433922 0.614524,4.826775 -0.155638,1.392853 -1.717687,1.816509 -2.905119,1.010537 -1.187431,-0.805972 -2.000227,-2.841553 -3.246167,-4.133418 z"
       id="path2"
       inkscape:path-effect="#path-effect2"
       inkscape:original-d="m 61.092274,82.28273 c -1.679072,-0.548122 -3.358127,-1.096238 -5.037192,-1.644357 0.478778,4.592159 0.957548,9.184244 1.436333,13.776466 -1.369356,3.199236 -2.738676,6.398391 -4.108009,9.597571 0.375078,2.38849 0.750155,4.77699 1.125236,7.1655 2.10896,-1.48403 4.217903,-2.96805 6.326849,-4.45207 0.670074,-2.21816 1.340146,-4.43631 2.010218,-6.65447 4.516043,2.17499 9.031995,4.34994 13.548138,6.52498 3.558639,-2.83645 7.117161,-5.67281 10.675688,-8.509166 1.149945,-3.227716 2.29989,-6.455433 3.449869,-9.683245 -1.855001,-1.906018 -3.709905,-3.811936 -5.564896,-5.717943 -3.024207,0.810692 -6.048336,1.621363 -9.0725,2.432043 -1.593823,-1.47691 -3.187648,-2.953821 -4.781475,-4.430735 -2.212011,-0.218301 -4.424014,-0.436601 -6.636026,-0.654902 1.25078,2.362053 2.501557,4.724099 3.752335,7.086148 -1.562053,0.423657 -3.124102,0.847314 -4.68616,1.270972 -0.812805,-2.035603 -1.625601,-4.071184 -2.438408,-6.106792 z"
       sodipodi:nodetypes="ccccccccccccccccc"
       transform="translate(4.7729708,1.0571699)" />
    <path
       style="fill:#6c6cc2;fill-opacity:1;stroke:#7050a4;stroke-width:2.11667;stroke-linejoin:round;stroke-opacity:0.996078;paint-order:markers fill stroke"
       d="m 88.443442,49.764848 c 1.309244,0.776334 3.927709,2.328987 6.301786,4.84794 2.374077,2.518953 4.503732,6.004154 5.312762,10.641272 0.80904,4.637118 0.29741,10.425743 -0.09904,14.960874 -0.396455,4.53513 -0.6777,7.816314 -0.862774,10.387698 -0.185074,2.571383 -0.27397,4.432898 -1.832303,6.505281 -1.558333,2.072383 -4.586099,4.355627 -4.577613,6.831317 0.0085,2.47569 3.05323,5.1438 5.26314,5.93385 2.209911,0.79006 3.584981,-0.29794 4.447101,-1.81695 0.86212,-1.51901 1.21126,-3.46898 3.54112,-3.68229 2.32987,-0.21331 6.64036,1.31004 9.97112,2.27551 3.33077,0.96547 5.68166,1.37301 8.47017,0.3975 2.78851,-0.97551 6.01433,-3.33395 7.29932,-7.507949 1.28499,-4.173997 0.62899,-10.163035 -1.58862,-14.704974 -2.21762,-4.541938 -5.99665,-7.636306 -9.39268,-9.376653 -3.39603,-1.740348 -6.40892,-2.126589 -8.77898,-1.674607 -2.37005,0.451982 -4.09717,1.742163 -5.24083,2.349977 -1.14365,0.607813 -1.70381,0.533237 -1.76109,-1.706768 -0.0573,-2.240006 0.38835,-6.645442 1.28453,-13.560362 0.89617,-6.914919 2.24288,-16.339114 -0.47344,-20.810561 -2.71632,-4.471446 -9.49542,-3.989763 -13.271423,-1.675309 -3.776003,2.314453 -4.548747,6.461638 -4.935123,8.535254 -0.386376,2.073615 -0.386376,2.073617 0.922868,2.84995 z"
       id="path3"
       inkscape:path-effect="#path-effect3"
       inkscape:original-d="m 87.134198,48.988515 c 2.618488,1.552667 5.236953,3.10532 7.855424,4.657977 2.129683,3.485249 4.259338,6.97045 6.389058,10.45576 -0.51165,5.788926 -1.02328,11.577551 -1.53493,17.366497 -0.281256,3.281315 -0.562501,6.562499 -0.843752,9.84375 -0.0889,1.861516 -0.177793,3.723031 -0.26669,5.584547 -3.02777,2.283249 -6.055538,4.566494 -9.083313,6.849754 3.044749,2.66812 6.089493,5.33623 9.134236,8.00434 1.375079,-1.088 2.750149,-2.176 4.125239,-3.26401 0.34915,-1.95001 0.69829,-3.89998 1.04744,-5.84999 4.31058,1.52338 8.62107,3.04674 12.93164,4.57013 2.35096,0.40755 4.70185,0.81509 7.05285,1.22265 3.22602,-2.35858 6.45184,-4.71702 9.67786,-7.07561 -0.65604,-5.989406 -1.31204,-11.978444 -1.96808,-17.967826 -3.77919,-3.094492 -7.55822,-6.188861 -11.33735,-9.283312 -3.01293,-0.386246 -6.02582,-0.772486 -9.03877,-1.158735 -1.72716,1.290213 -3.45428,2.580395 -5.18143,3.870596 -0.56016,-0.07458 -1.12032,-0.149153 -1.68049,-0.223729 0.44562,-4.405434 0.89124,-8.81087 1.33686,-13.216307 1.34673,-9.424403 2.69344,-18.848597 4.0402,-28.273195 -6.7794,0.481705 -13.5585,0.963388 -20.337757,1.445083 -0.772749,4.147212 -1.545493,8.294397 -2.318245,12.441628 z"
       sodipodi:nodetypes="ccccccccccccccccccccccc" />
    <path
       style="fill:#6c6cc2;fill-opacity:1;stroke:#7050a4;stroke-width:2.11667;stroke-linejoin:round;stroke-opacity:0.996078;paint-order:markers fill stroke"
       d="m 112.95618,66.019705 c 1.90787,1.686508 5.17441,2.250677 8.45463,3.376276 3.28022,1.125599 6.57375,2.812493 8.81994,4.420341 2.24619,1.607849 3.44482,3.136509 4.99112,6.832223 1.5463,3.695715 3.44023,9.558401 3.90694,14.112527 0.4667,4.554126 -0.49383,7.799658 -2.87037,10.571618 -2.37655,2.77196 -6.16905,5.0703 -9.82847,5.57321 -3.65941,0.50291 -7.18559,-0.78963 -9.65516,-1.17491 -2.46956,-0.38528 -3.88248,0.1367 -4.82576,0.8135 -0.94328,0.67679 -1.41685,1.50836 -1.26713,2.89728 0.14973,1.38891 0.92279,3.33521 2.49914,4.65169 1.57636,1.31648 3.88331,1.98219 6.01053,1.60887 2.12722,-0.37332 3.83556,-1.75201 6.71419,-2.95783 2.87863,-1.20582 6.88099,-2.21203 9.86065,-3.82099 2.97966,-1.60896 4.73866,-3.70756 6.12028,-5.45941 1.38161,-1.75185 2.35545,-3.1201 2.92279,-6.11239 0.56735,-2.992299 0.71427,-7.532222 0.19399,-11.99051 -0.52028,-4.458288 -1.71092,-8.824132 -2.39579,-11.58802 -0.68487,-2.763889 -0.86359,-3.923679 -0.77918,-4.800333 0.0844,-0.876655 0.43227,-1.469702 1.10726,-3.265599 0.675,-1.795896 1.67815,-4.797224 2.43882,-10.400572 0.76067,-5.603348 1.27821,-13.799848 -0.67808,-17.680964 -1.95628,-3.881116 -6.38319,-3.437731 -8.92482,-1.315836 -2.54162,2.121894 -3.19606,5.922073 -2.79868,8.785394 0.39739,2.863321 1.84656,4.789664 3.27371,6.965549 1.42715,2.175885 2.83216,4.601141 2.49543,6.897994 -0.33674,2.296852 -2.41523,4.465297 -4.07335,5.46043 -1.65812,0.995132 -2.89575,0.816898 -4.54029,0.293541 -1.64454,-0.523357 -3.69588,-1.391803 -4.89491,-2.209617 -1.19903,-0.817815 -1.54572,-1.584979 -1.32337,-2.983448 0.22234,-1.39847 1.01371,-3.428217 0.40174,-5.214852 -0.61196,-1.786636 -2.62725,-3.330128 -4.43086,-4.154832 -1.8036,-0.824705 -3.3955,-0.930613 -5.01539,-0.04989 -1.6199,0.880718 -3.26778,2.748053 -3.81716,5.086139 -0.54938,2.338087 -2.6e-4,5.146918 1.90761,6.833426 z"
       id="path4"
       inkscape:path-effect="#path-effect4"
       inkscape:original-d="m 111.59743,67.142031 c 3.26662,0.564182 6.53316,1.12835 9.79986,1.692547 3.29374,1.687001 6.58727,3.373895 9.88098,5.060882 1.19867,1.528711 2.3973,3.057371 3.59596,4.586066 1.89394,5.862734 3.78787,11.72542 5.68181,17.588131 -0.96053,3.245541 -1.92106,6.491073 -2.88159,9.736623 -3.79256,2.29837 -7.58506,4.59671 -11.37765,6.8951 -3.52624,-1.29257 -7.05242,-2.58511 -10.57862,-3.87766 -1.41293,0.52199 -2.82585,1.04397 -4.23881,1.56597 -0.4736,0.83159 -0.94717,1.66316 -1.42075,2.49473 0.77303,1.94626 1.54609,3.89256 2.31913,5.83884 2.37967,0.68668 4.68662,1.35239 7.13903,2.06006 1.80203,-1.45431 3.51037,-2.833 5.24577,-4.23353 4.02186,-1.01112 8.02422,-2.01732 12.15727,-3.05639 1.82627,-2.17885 3.58527,-4.27745 5.37193,-6.40905 0.97657,-1.3721 1.95041,-2.74035 2.93624,-4.12545 0.14886,-4.599489 0.29578,-9.139412 0.44336,-13.699309 -1.18814,-4.356679 -2.37878,-8.722522 -3.56953,-13.088781 -0.17899,-1.161519 -0.35771,-2.321309 -0.53656,-3.481899 0.34767,-0.592718 0.69553,-1.185764 1.04304,-1.778221 1.00248,-2.999339 2.00563,-6.000665 3.0089,-9.002368 0.51807,-8.204994 1.03561,-16.401494 1.55374,-24.60749 -4.4307,0.443764 -8.85761,0.887149 -13.28642,1.330724 -0.65444,3.800215 -1.30888,7.600393 -1.96333,11.400627 1.44922,1.926408 2.89839,3.852751 4.34763,5.779186 1.40506,2.425334 2.81007,4.850593 4.21509,7.275853 -2.07849,2.168442 -4.15698,4.336887 -6.23553,6.505397 -1.23769,-0.178244 -2.47532,-0.356478 -3.713,-0.53472 -2.0514,-0.868472 -4.10274,-1.736918 -6.15412,-2.605379 -0.34668,-0.767168 -0.69337,-1.534332 -1.04005,-2.301499 0.79138,-2.029769 1.58274,-4.059519 2.37411,-6.089287 -2.0153,-1.543503 -4.03059,-3.086995 -6.04589,-4.630495 -1.59191,-0.105909 -3.18381,-0.211817 -4.77571,-0.317726 -1.64789,1.867345 -3.29577,3.73468 -4.94365,5.60202 0.54912,2.808833 1.09824,5.617664 1.64736,8.426498 z"
       sodipodi:nodetypes="ccccccccccccccccccccccccccccccccccc" />
    <path
       style="fill:#6c6cc2;fill-opacity:1;stroke:#7050a4;stroke-width:2.11667;stroke-linejoin:round;stroke-opacity:0.996078;paint-order:markers fill stroke"
       d="m 64.611881,128.9144 c 1.237435,1.19324 2.121322,2.69585 2.121321,6.71752 -1e-6,4.02167 -0.883884,10.5624 -2.673748,14.18632 -1.789864,3.62393 -4.485657,4.33102 -5.546337,6.01043 -1.06068,1.67941 -0.486177,4.33096 0.994357,6.09876 1.480535,1.7678 3.866923,2.65166 6.120874,2.2539 2.25395,-0.39776 4.375226,-2.0771 5.39169,-5.65689 1.016464,-3.57978 0.928077,-9.05975 0.883882,-12.94886 -0.04419,-3.88911 -0.04419,-6.18716 1.458439,-6.93845 1.502632,-0.75129 4.507776,0.0442 6.850085,1.94457 2.342309,1.90038 4.021614,4.90545 4.618248,8.04331 0.596634,3.13786 0.110519,6.40809 0.795542,7.55716 0.685024,1.14907 2.541142,0.17681 4.397297,-0.79546 0.839689,-2.20971 1.679362,-4.41937 1.392093,-7.42463 -0.287269,-3.00527 -1.701453,-6.80589 -3.358753,-11.7336 -1.6573,-4.92771 -3.55758,-10.98209 -5.605618,-12.15236 -2.048038,-1.17027 -4.243672,2.54379 -6.453377,3.38348 -2.209705,0.83969 -4.433457,-1.19504 -3.261474,-4.80503 1.171983,-3.61 5.73957,-8.7951 4.163714,-10.89946 -1.575856,-2.10436 -9.294886,-1.1278 -13.10352,1.75214 -3.808634,2.87994 -3.706384,7.66299 -2.859747,10.49652 0.846637,2.83352 2.437596,3.71739 3.675032,4.91063 z"
       id="path5"
       inkscape:path-effect="#path-effect5"
       inkscape:original-d="m 64.965434,128.60504 c 0.883884,1.5026 1.767767,3.00521 2.651651,4.50781 -0.883884,6.54074 -1.767767,13.08147 -2.651651,19.62221 -2.695843,0.70711 -5.391637,1.4142 -8.087532,2.12132 0.574535,2.6517 1.149037,5.30325 1.723573,7.95495 2.386532,0.88391 4.77292,1.76776 7.159456,2.65166 2.121365,-1.67942 4.242644,-3.35876 6.363961,-5.03814 -0.08839,-5.48019 -0.176779,-10.96016 -0.265166,-16.44023 0,-2.29815 0,-4.5962 0,-6.89429 3.005265,0.79551 6.010408,1.59099 9.015611,2.38648 1.679414,3.00527 3.358721,6.01034 5.038137,9.01561 -0.486147,3.27045 -0.972262,6.54068 -1.458408,9.81111 1.856193,-0.97229 5.568465,-2.91682 5.568465,-2.91682 0,0 1.679362,-4.41937 2.519067,-6.62912 -1.414242,-3.80078 -2.828426,-7.6014 -4.24264,-11.4021 -1.900385,-6.05472 -3.800667,-12.1091 -5.701047,-18.1638 -2.195699,3.71416 -4.391329,7.42822 -6.58699,11.14232 -2.223752,-2.03472 -4.447498,-4.06945 -6.671264,-6.10418 4.567728,-5.18526 9.135316,-10.37036 13.703113,-15.5557 -7.71951,0.97662 -15.43854,1.95318 -23.158063,2.9298 0.102255,4.78326 0.204505,9.56631 0.306757,14.34946 1.591023,0.8839 3.18198,1.76777 4.77297,2.65165 z"
       sodipodi:nodetypes="cccccccccccccccccccccc" />
    <path
       style="fill:#6c6cc2;fill-opacity:1;stroke:#7050a4;stroke-width:2.11667;stroke-linejoin:round;stroke-opacity:0.996078;paint-order:markers fill stroke"
       d="m 113.99123,127.54962 c -1.69774,-4.87824 -4.89964,-8.6905 -7.25433,-10.2676 -2.35469,-1.57711 -3.86194,-0.91893 -6.920183,-1.47693 -3.058241,-0.55799 -7.667043,-2.33207 -10.732275,-3.44846 -3.065233,-1.11639 -4.586476,-1.57494 -5.408888,-0.22321 -0.822413,1.35174 -0.945941,4.51374 -0.371876,6.63108 0.574066,2.11734 1.845718,3.18999 3.034471,3.4374 1.188754,0.24741 2.294597,-0.33043 3.183384,-1.25582 0.888786,-0.9254 1.5605,-2.19833 5.07644,-2.29088 3.51594,-0.0926 9.875797,0.99525 12.444277,4.30498 2.56848,3.30972 1.34533,8.84098 0.0506,9.614 -1.29469,0.77302 -2.6608,-3.2124 -5.31871,-5.26362 -2.657902,-2.05122 -6.60759,-2.16823 -7.668645,3.24928 -1.061056,5.41752 0.76653,16.36886 4.699893,20.96515 3.933362,4.59629 9.972022,2.83694 13.963822,2.85217 3.99179,0.0152 5.93626,1.80502 7.10743,3.10877 1.17117,1.30375 1.56891,2.12132 2.59565,2.0085 1.02675,-0.11282 2.68247,-1.15605 3.46692,-2.78018 0.78444,-1.62414 0.6976,-3.82914 -0.51698,-5.02007 -1.21459,-1.19093 -3.55679,-1.3677 -5.3025,-2.42838 -1.7457,-1.06068 -2.8947,-3.00514 -3.566,-6.94955 -0.67129,-3.94441 -0.8648,-9.8884 -2.56254,-14.76663 z"
       id="path6"
       inkscape:path-effect="#path-effect6"
       inkscape:original-d="m 115.49546,126.48373 c -3.20197,-3.81235 -6.40387,-7.62461 -9.60591,-11.43703 -1.50734,0.65821 -3.01459,1.31639 -4.52193,1.9746 -4.609146,-1.7742 -9.217945,-3.54828 -13.827084,-5.32248 -1.521326,-0.45858 -3.04257,-0.91713 -4.563866,-1.3757 -0.123529,3.16204 -0.247057,6.32404 -0.370585,9.48606 1.271657,1.07266 2.543312,2.14531 3.814971,3.21797 1.105847,-0.57784 2.21169,-1.15568 3.317538,-1.73352 0.671726,-1.27295 1.34344,-2.54588 2.015173,-3.81885 6.360146,1.08786 12.720003,2.17567 19.080183,3.26354 -1.22322,5.53158 -2.44637,11.06284 -3.66959,16.59443 -1.36616,-3.98555 -2.73228,-7.97097 -4.09839,-11.9564 -3.949692,-0.11701 -7.89938,-0.23402 -11.849195,-0.35104 1.827704,10.95205 3.65529,21.90339 5.482993,32.85543 6.039022,-1.75946 12.077682,-3.51881 18.116692,-5.27826 1.94458,1.7899 3.88905,3.5797 5.83363,5.36959 0.39776,0.81761 0.7955,1.63518 1.19325,2.45278 1.65574,-1.04324 3.31146,-2.08647 4.96719,-3.1297 -0.0868,-2.20504 -0.17368,-4.41004 -0.26052,-6.61512 -2.34233,-0.17678 -4.68453,-0.35355 -7.02687,-0.53033 -1.14908,-1.94458 -2.29808,-3.88904 -3.44715,-5.83363 -0.19351,-5.94423 -0.38702,-11.88822 -0.58053,-17.83234 z"
       sodipodi:nodetypes="cccccccccccccccccccccc" />
    <path
       style="fill:#6c6cc2;fill-opacity:1;stroke:#7050a4;stroke-width:2.11667;stroke-linejoin:round;stroke-opacity:0.996078;paint-order:markers fill stroke"
       d="m 122.45313,124.84375 c -1.07813,1.59375 -2.51563,3.53125 -3.29688,5.93752 -0.78125,2.40628 -0.90625,5.28123 0.50003,8.56252 1.40628,3.28128 4.34372,6.96871 6.62499,8.37495 2.28126,1.40624 3.90623,0.53126 4.06247,-1.34377 0.15623,-1.87503 -1.15624,-4.74997 -1.15623,-7.28124 2e-5,-2.53127 1.31249,-4.71873 4.2665,-7.85525 2.95401,-3.13653 7.54927,-7.22184 9.67431,-5.31556 2.12504,1.90629 1.77961,9.80411 0.16937,15.72189 -1.61025,5.91777 -4.48519,9.85519 -5.17268,12.1677 -0.68748,2.3125 0.81249,2.99999 3.15627,2.62498 2.34378,-0.37502 5.53122,-1.81249 7.4482,-8.975 1.91698,-7.1625 2.5634,-20.04923 0.64953,-26.8408 -1.91387,-6.79157 -6.3878,-7.48716 -10.11735,-5.44975 -3.72955,2.03742 -6.71433,6.80769 -8.20674,8.59912 -1.49242,1.79142 -1.49242,0.60396 -2.25806,-0.39606 -0.76564,-1.00002 -2.29683,-1.81248 -3.42185,-1.59373 -1.12502,0.21875 -1.84376,1.46873 -2.92188,3.06248 z"
       id="path7"
       inkscape:path-effect="#path-effect7"
       inkscape:original-d="m 122.8125,124.5 c -1.4375,1.9375 -2.875,3.875 -4.3125,5.8125 -0.125,2.87505 -0.25,5.75 -0.375,8.625 2.93756,3.68757 5.875,7.375 8.8125,11.0625 1.62503,-0.87502 3.25,-1.75 4.875,-2.625 -1.31253,-2.87506 -2.625,-5.75 -3.9375,-8.625 1.31253,-2.18754 2.625,-4.375 3.9375,-6.5625 4.59552,-4.08555 9.19078,-8.17086 13.7863,-12.25641 -0.34544,7.89812 -0.69087,15.79594 -1.0363,23.69391 -2.87506,3.93758 -5.75,7.875 -8.625,11.8125 1.50003,0.68751 3,1.375 4.5,2.0625 3.18756,-1.43753 6.375,-2.875 9.5625,-4.3125 0.64646,-12.88751 1.29288,-25.77424 1.93934,-38.66174 -4.4742,-0.69564 -8.94813,-1.39123 -13.42234,-2.08687 -2.98489,4.77047 -5.96967,9.54074 -8.9545,14.31111 0,-1.18752 0,-2.37498 0,-3.5625 -1.53128,-0.81252 -3.06247,-1.62498 -4.59375,-2.4375 -0.71876,1.25002 -1.4375,2.5 -2.15625,3.75 z"
       sodipodi:nodetypes="cccccccccccccccccc"
       transform="translate(0.52916667)" />
    <ellipse
       style="fill:#f7fefb;fill-opacity:1;stroke:none;stroke-width:1.68998;stroke-linejoin:round;stroke-opacity:0.996078;paint-order:markers fill stroke"
       id="path8"
       cx="41.244175"
       cy="115.71014"
       rx="4.962328"
       ry="3.7038734"
       transform="matrix(0.94335262,-0.33179186,0.3776018,0.92596808,0,0)" />
    <path
       sodipodi:type="star"
       style="fill:#e9e649;fill-opacity:1;stroke:#cf7f28;stroke-width:4.11606;stroke-linejoin:round;stroke-dasharray:none;stroke-opacity:1;paint-order:markers fill stroke"
       id="path9"
       inkscape:flatsided="false"
       sodipodi:sides="5"
       sodipodi:cx="102.48419"
       sodipodi:cy="116.08288"
       sodipodi:r1="29.361864"
       sodipodi:r2="14.680932"
       sodipodi:arg1="0.78539816"
       sodipodi:arg2="1.4137167"
       inkscape:rounded="0.17"
       inkscape:randomized="0"
       d="m 123.24617,136.84485 c -2.34385,2.34384 -15.19149,-6.78032 -18.46537,-6.26179 -3.27389,0.51854 -12.673201,13.16627 -15.626615,11.66143 -2.953415,-1.50484 1.75404,-16.54319 0.249201,-19.49661 -1.50484,-2.95341 -16.438097,-7.98432 -15.919565,-11.25821 0.518532,-3.27388 16.275542,-3.44394 18.619384,-5.78778 2.343843,-2.34384 2.513894,-18.10085 5.787779,-18.619383 3.273886,-0.518532 8.304796,14.414723 11.258216,15.919563 2.95341,1.50484 17.99176,-3.202614 19.4966,-0.2492 1.50484,2.95341 -11.14289,12.35273 -11.66142,15.62661 -0.51854,3.27389 8.60563,16.12153 6.26179,18.46537 z"
       inkscape:transform-center-x="-1.7810472"
       inkscape:transform-center-y="-1.3514811"
       transform="matrix(0.1516742,-0.12350532,0.14405681,0.21816987,74.123274,129.19603)" />
  </g>
</svg>
