<?xml version="1.0" encoding="UTF-8" standalone="no"?>
<!-- Created with Inkscape (http://www.inkscape.org/) -->

<svg
   width="106.0265mm"
   height="131.10904mm"
   viewBox="0 0 106.0265 131.10904"
   version="1.1"
   id="svg1"
   xmlns="http://www.w3.org/2000/svg"
   xmlns:svg="http://www.w3.org/2000/svg">
  <defs
     id="defs1">
    <filter
       style="color-interpolation-filters:sRGB"
       id="filter1"
       x="-0.039325066"
       y="-0.034590158"
       width="1.07797"
       height="1.069018">
      <feGaussianBlur
         stdDeviation="0.051670821"
         id="feGaussianBlur1" />
    </filter>
    <filter
       style="color-interpolation-filters:sRGB"
       id="filter2"
       x="-0.046349308"
       y="-0.040771545"
       width="1.0920185"
       height="1.0813808">
      <feGaussianBlur
         stdDeviation="0.24727243"
         id="feGaussianBlur2" />
    </filter>
  </defs>
  <path
     id="path2"
     style="fill:none;stroke:#9298fe;stroke-width:5;stroke-linecap:round;stroke-linejoin:round;stroke-opacity:0.745098;paint-order:markers fill stroke;filter:url(#filter2)"
     transform="rotate(6.9338007,-148.57329,218.51478)"
     d="m 46.093992,36.307141 c -8.030127,5.968274 9.794836,20.674111 0.824059,23.56828 C 38.067217,62.730894 41.891392,43.229484 30.362371,42.879697 20.979105,42.595012 27.116698,72.539057 16.47198,67.338157 6.0894097,62.265339 32.483292,47.040525 24.735681,40.686142 16.988071,34.331759 7.6229475,51.061283 4.2244902,42.362279 0.82603323,33.663276 21.708131,33.938226 21.148585,28.040723 20.631747,22.593347 4.2480882,25.933103 -0.23801492,17.236464 -1.7665841,14.273221 -1.0040781,11.794775 3.4173986,11.404512 8.9634763,10.914987 17.57631,23.444876 23.330065,18.913332 34.773069,9.9010471 9.2596159,5.0676291 18.419269,-1.3632046 c 8.059098,-5.6581532 6.543499,13.1650906 15.734732,12.5184456 9.191233,-0.646644 0.554587,-10.25035295 6.692668,-17.3557192 3.841707,-4.4471128 13.422336,0 11.095498,6.25753932 C 49.854917,5.6702755 37.448012,14.239656 44.688376,20.739026 51.56776,26.91436 62.845313,8.4370586 65.73155,17.236464 c 2.054503,6.263658 -18.868362,1.344187 -19.216483,10.804259 -0.348121,9.460071 14.589809,3.838491 12.787038,9.328192 -1.927385,5.869173 -5.177985,-7.030047 -13.208113,-1.061774 z" />
  <g
     id="layer1">
    <path
       id="path1"
       style="fill:none;stroke:#9bdbfc;stroke-width:5;stroke-linecap:round;stroke-linejoin:round;paint-order:markers fill stroke;filter:url(#filter1)"
       d="m 70.034846,61.640357 c -8.030127,5.968274 9.794836,20.674111 0.824059,23.56828 C 62.008071,88.06411 65.832246,68.5627 54.303225,68.212913 44.919959,67.928228 51.057552,97.872273 40.412834,92.671373 30.030264,87.598555 56.424146,72.373741 48.676535,66.019358 40.928925,59.664975 31.563802,76.394499 28.165344,67.695495 24.766887,58.996492 45.648985,59.271442 45.089439,53.373939 44.572601,47.926563 28.188942,51.266319 23.702839,42.56968 22.17427,39.606437 22.936776,37.127991 27.358253,36.737728 32.90433,36.248203 41.517164,48.778092 47.270919,44.246548 58.713923,35.234263 33.20047,30.400845 42.360123,23.970011 c 8.059098,-5.658153 6.543499,13.165091 15.734732,12.518446 9.191233,-0.646644 0.554587,-10.250353 6.692668,-17.355719 3.841707,-4.447113 13.422336,0 11.095498,6.257539 -2.08725,5.613214 -14.494155,14.182595 -7.253791,20.681965 6.879384,6.175334 18.156937,-12.301967 21.043174,-3.502562 2.054503,6.263658 -18.868362,1.344187 -19.216483,10.804259 -0.348121,9.460071 14.589809,3.838491 12.787038,9.328192 -1.927385,5.869173 -5.177985,-7.030047 -13.208113,-1.061774 z"
       transform="rotate(5.1465942,48.390655,48.508476)" />
  </g>
</svg>
