<?xml version="1.0" encoding="UTF-8" standalone="no"?>
<!-- Created with Inkscape (http://www.inkscape.org/) -->

<svg
   version="1.1"
   id="svg55"
   width="1460.7449"
   height="2038.6677"
   viewBox="0 0 1460.7449 2038.6677"
   xmlns:xlink="http://www.w3.org/1999/xlink"
   xmlns="http://www.w3.org/2000/svg"
   xmlns:svg="http://www.w3.org/2000/svg">
  <defs
     id="defs59">
    <linearGradient
       id="linearGradient534851">
      <stop
         style="stop-color:#291111;stop-opacity:1;"
         offset="0"
         id="stop534839" />
      <stop
         style="stop-color:#2c0a49;stop-opacity:1"
         offset="0.25655362"
         id="stop534845" />
      <stop
         style="stop-color:#361b36;stop-opacity:0.96974489"
         offset="0.65354586"
         id="stop534847" />
      <stop
         style="stop-color:#2b122c;stop-opacity:0.96975887"
         offset="1"
         id="stop534849" />
    </linearGradient>
    <linearGradient
       id="linearGradient11766-3-9">
      <stop
         style="stop-color:#7d98ec;stop-opacity:1;"
         offset="0"
         id="stop11762" />
      <stop
         style="stop-color:#c7b6f7;stop-opacity:1"
         offset="1"
         id="stop11764" />
    </linearGradient>
    <linearGradient
       xlink:href="#linearGradient11766-3-9"
       id="linearGradient11768"
       x1="3184.7866"
       y1="1189.2462"
       x2="-78.701401"
       y2="1216.7684"
       gradientUnits="userSpaceOnUse" />
    <linearGradient
       xlink:href="#linearGradient534851"
       id="linearGradient522889"
       x1="1198.6381"
       y1="797.44989"
       x2="2321.0662"
       y2="797.44989"
       gradientUnits="userSpaceOnUse"
       gradientTransform="translate(-18.400428,42.183201)" />
    <linearGradient
       xlink:href="#linearGradient534851"
       id="linearGradient528832"
       x1="1275.3387"
       y1="927.60101"
       x2="2441.5295"
       y2="927.60101"
       gradientUnits="userSpaceOnUse"
       gradientTransform="matrix(0.9350059,0,0,1,175.16559,-13.025516)" />
    <linearGradient
       xlink:href="#linearGradient534851"
       id="linearGradient529394"
       x1="1342.897"
       y1="975.22803"
       x2="2374.1145"
       y2="975.22803"
       gradientUnits="userSpaceOnUse" />
    <linearGradient
       xlink:href="#linearGradient534851"
       id="linearGradient534471"
       gradientUnits="userSpaceOnUse"
       x1="1213.5037"
       y1="1014.8417"
       x2="2396.9224"
       y2="1014.8417" />
    <linearGradient
       xlink:href="#linearGradient534851"
       id="linearGradient595161"
       gradientUnits="userSpaceOnUse"
       gradientTransform="matrix(0.9350059,0,0,1,175.95168,-4.8169711)"
       x1="1275.3387"
       y1="927.60101"
       x2="2441.5295"
       y2="927.60101" />
    <filter
       style="color-interpolation-filters:sRGB"
       id="filter595182"
       x="-0.014265447"
       y="-0.032110501"
       width="1.0285309"
       height="1.064221">
      <feGaussianBlur
         stdDeviation="4.6694109"
         id="feGaussianBlur595184" />
    </filter>
    <linearGradient
       xlink:href="#linearGradient534851"
       id="linearGradient595565"
       x1="1067.0784"
       y1="850.67297"
       x2="1225.0608"
       y2="850.67297"
       gradientUnits="userSpaceOnUse" />
    <linearGradient
       xlink:href="#linearGradient534851"
       id="linearGradient595640"
       gradientUnits="userSpaceOnUse"
       x1="1067.0784"
       y1="850.67297"
       x2="1225.0608"
       y2="850.67297"
       gradientTransform="translate(-1.0403987,-17.997819)" />
  </defs>
  <g
     id="layer4"
     transform="matrix(0.96170965,0,0,0.96170965,-855.91386,-123.98141)">
    <path
       style="display:inline;fill:url(#linearGradient522889);fill-opacity:1;stroke:none;stroke-width:1px;stroke-linecap:butt;stroke-linejoin:miter;stroke-opacity:1"
       d="m 1180.7303,881.10254 c 4.3606,-25.07788 8.7213,-50.15657 25.9287,-77.71886 17.2075,-27.56229 47.2599,-57.60565 88.4669,-81.47553 41.2071,-23.86989 93.5633,-41.56327 136.608,-43.42437 43.0447,-1.86111 76.7719,12.10955 108.9809,47.77194 32.2091,35.66238 62.8972,93.0127 104.8027,116.42946 41.9055,23.41675 95.0254,12.90063 159.9318,-9.39948 64.9065,-22.30011 141.5955,-56.38254 215.1144,-41.58658 73.5189,14.79597 143.8628,78.46728 190.5428,123.70894 46.6801,45.24165 69.6942,72.05114 81.5995,86.20944 11.9053,14.1582 12.7015,15.6645 1.6394,8.3583 -11.062,-7.3061 -33.9821,-23.42379 -72.0529,-39.09929 -38.0709,-15.67549 -91.29,-30.9074 -153.1197,-35.66273 -61.8298,-4.75534 -132.266,0.9664 -281.7767,-6.30606 -149.5106,-7.27246 -378.0853,-27.53856 -606.6658,-47.80518"
       id="path522871" />
  </g>
  <g
     id="layer2"
     style="display:inline"
     transform="matrix(0.96170965,0,0,0.96170965,-855.91386,-123.98141)">
    <path
       style="opacity:1;fill:url(#linearGradient11768);fill-opacity:1;stroke:#5b298b;stroke-width:45.3543;stroke-miterlimit:4;stroke-dasharray:none;stroke-opacity:1"
       d="m 1815.2017,1940.6008 c 0,0 -8.2421,-277.9133 -107.7116,-277.4623 -164.2604,0.7447 -303.2401,19.9689 -450.8027,-56.063 0,0 -27.0012,-10.8952 -87.6011,-66.0101 -48.1109,-43.7562 -81.4892,-132.9527 -93.7907,-165.6202 -91.64512,67.5834 -177.32774,-86.489 -66.1036,-121.7028 64.2821,-27.3503 -83.92774,-12.5962 -60.47018,-88.3553 18.30643,-59.1228 112.28648,-44.5452 101.96228,-32.3741 -7.0801,-112.0249 60.5439,-212.30239 146.5137,-278.0864 136.2069,-105.61424 333.5937,-152.32603 494.6899,-78.10213 21.6193,-35.00465 87.8085,-392.4218 87.8085,-392.4218 l 247.7295,6.37881 c 0,0 18.1029,241.04958 -57.126,338.66211 -33.2481,11.7722 -100.6978,89.88556 -24.2322,70.99099 80.469,-22.92057 199.6079,-62.37036 257.2761,22.3156 30.9972,87.07044 -43.9818,174.1139 -123.4958,201.09412 60.3526,18.476 161.9162,63.0401 124.8798,139.5456 -25.5526,50.1473 -155.3381,97.7167 -144.0817,75.8523 80.0387,-4.1715 205.5266,99.7909 82.3144,145.8745 -41.1099,24.1632 -158.3342,24.5063 -55.651,55.8709 81.2839,26.8083 158.6797,160.0371 54.8868,209.0154 -71.752,25.3545 -153.885,-18.0989 -222.0191,-13.9802 78.2559,89.9924 167.1323,304.578 167.1323,304.578 z"
       id="path11723" />
    <path
       style="display:inline;opacity:0.356179;fill:url(#linearGradient595161);fill-opacity:1;stroke:none;stroke-width:0.966957px;stroke-linecap:butt;stroke-linejoin:miter;stroke-opacity:1;filter:url(#filter595182)"
       d="m 1383.0539,741.38658 c 9.0055,-11.6249 9.0055,-11.6249 28.0525,-24.97456 19.0469,-13.34966 57.1379,-40.04685 104.1782,-50.22411 47.0403,-10.17726 103.0236,-3.83292 148.0319,12.88193 45.0082,16.71486 79.0396,43.79822 113.4873,71.64099 34.4477,27.84277 69.3098,56.44323 131.5941,88.98191 62.2842,32.53868 151.9837,69.01302 199.5287,93.19515 47.545,24.18212 52.9294,36.06785 40.0019,41.36809 -12.9276,5.30024 -44.1654,4.01533 -72.7737,5.03204 -28.6082,1.01671 -54.5822,4.33506 -54.5822,4.33506 0,0 25.9746,-3.31843 44.9738,-3.78018 18.9992,-0.46175 31.0215,1.93284 33.0214,-0.58973 1.9999,-2.52256 -6.0236,-9.96383 -14.0463,-17.40426 8.0227,7.44043 16.0462,14.88169 19.1855,24.52075 3.1393,9.63906 1.3963,21.47614 -28.2063,23.59504 -29.6027,2.1189 -87.0636,-5.4798 -155.1723,-42.20001 -68.1088,-36.72017 -146.8598,-102.55975 -211.3228,-148.54554 -64.463,-45.98579 -114.6343,-72.11501 -174.0833,-72.0907 -59.4489,0.0243 -128.1703,26.20234 -153.5274,27.66722 -25.357,1.46487 -7.3466,-21.78419 1.659,-33.40909 z"
       id="path526611-4" />
  </g>
  <g
     id="layer3"
     style="display:inline"
     transform="matrix(0.96170965,0,0,0.96170965,-855.91386,-123.98141)">
    <path
       style="fill:#000000;fill-opacity:0;stroke:#2a0e26;stroke-width:20;stroke-linecap:round;stroke-linejoin:bevel;stroke-miterlimit:4;stroke-dasharray:none;stroke-opacity:1"
       d="m 1046.9108,1081.1231 c -6.6052,2.0675 -13.2109,4.1352 -16.2543,7.7011 -3.0433,3.5659 -2.5237,8.6285 2.1045,13.6478 4.6282,5.0192 13.3638,9.9955 21.057,11.1536 7.6933,1.1581 14.3449,-1.5011 20.9961,-4.16"
       id="path135053" />
  </g>
  <g
     id="layer1"
     style="display:inline"
     transform="matrix(0.96170965,0,0,0.96170965,-855.91386,-123.98141)">
    <path
       style="fill:url(#linearGradient534471);fill-opacity:1;stroke:none;stroke-width:1px;stroke-linecap:butt;stroke-linejoin:miter;stroke-opacity:1"
       d="m 1224.6912,831.36231 c 11.2634,-1.38876 33.7893,-4.16618 63.0322,1.43396 29.2429,5.60013 65.2011,19.57665 99.0167,48.82993 33.8155,29.25328 65.4869,73.78064 109.8927,129.1614 44.4058,55.3808 101.543,121.6115 140.5796,159.862 39.0365,38.2505 59.9701,48.5194 86.5127,53.9021 26.5426,5.3826 58.6927,5.8792 76.0638,7.6055 17.371,1.7262 19.9623,4.6808 7.1407,-3.6718 -12.8217,-8.3527 -41.0554,-28.0115 -55.1631,-36.9502 -14.1077,-8.9387 -14.0877,-7.157 8.5953,2.217 22.6829,9.3741 68.0258,26.3404 117.8011,50.9734 49.7753,24.633 103.98,56.9309 170.4153,68.8366 66.4354,11.9057 145.0974,3.4196 186.3802,-0.3889 41.2828,-3.8085 45.1843,-2.9395 56.1824,-11.7048 10.9981,-8.7653 29.0932,-27.1639 36.9066,-35.8786 7.8134,-8.7147 5.3443,-7.745 -5.933,-6.2516 -11.2774,1.4934 -31.3625,3.5104 -41.0725,4.3235 -9.7099,0.8131 -9.0437,0.4225 6.648,-7.4964 15.6917,-7.9189 46.4075,-23.3654 67.6943,-44.507 21.2867,-21.1416 33.1438,-47.9775 38.3044,-60.2367 5.1606,-12.2592 3.6245,-9.9409 -9.9894,-3.2981 -13.6138,6.6429 -39.305,17.6102 -82.3134,17.1527 -43.0085,-0.4574 -103.3318,-12.3399 -159.9464,-36.8746 -56.6147,-24.5347 -109.5171,-61.7204 -153.7221,-102.4698 -44.2049,-40.74943 -79.7097,-85.06037 -101.428,-113.02389 -21.7183,-27.96352 -29.6489,-39.57837 -58.1499,-59.39319 -28.501,-19.81482 -77.5707,-47.82783 -132.8211,-76.19065 -55.2504,-28.36283 -116.6781,-57.07367 -176.1485,-64.96417 -59.4705,-7.8905 -116.9795,5.04013 -166.6469,23.98096 -49.6675,18.94083 -91.4901,43.8906 -113.3657,60.96114 -21.8756,17.07055 -23.8027,26.26004 -24.7662,30.85451 -0.9635,4.59446 -0.9631,4.59446 10.3002,3.2057 z"
       id="path526599" />
    <path
       style="fill:url(#linearGradient528832);fill-opacity:1;stroke:none;stroke-width:0.966957px;stroke-linecap:butt;stroke-linejoin:miter;stroke-opacity:1"
       d="m 1382.2678,733.17804 c 9.0055,-11.6249 9.0055,-11.6249 28.0525,-24.97456 19.0469,-13.34966 57.1379,-40.04685 104.1782,-50.22411 47.0403,-10.17726 103.0236,-3.83292 148.0319,12.88193 45.0082,16.71486 79.0396,43.79822 113.4873,71.64099 34.4477,27.84277 69.3098,56.44323 131.5941,88.98191 62.2842,32.53868 151.9837,69.01303 222.3684,93.05383 70.3848,24.0408 121.4447,35.64486 166.3426,68.87789 44.8979,33.23308 83.6286,88.09098 94.2567,127.74398 10.628,39.6531 -6.8449,64.0998 -10.5074,67.8499 -3.6626,3.7501 6.4858,-13.1972 9.58,-26.8668 3.0942,-13.6695 -0.8666,-24.0614 -8.9334,-35.4408 -8.0669,-11.3793 -20.2407,-23.7463 -32.4138,-36.1125 -32.1953,-20.9489 -64.3889,-41.8968 -102.4678,-55.1924 -38.0789,-13.2957 -82.0387,-18.9369 -135.6282,-25.448 -53.5896,-6.5111 -116.8041,-13.89141 -187.7897,-50.50236 -70.9857,-36.61095 -149.7367,-102.45053 -214.1997,-148.43632 -64.463,-45.9858 -114.6343,-72.11502 -174.0833,-72.09071 -59.4489,0.0243 -128.1703,26.20234 -153.5274,27.66722 -25.357,1.46487 -7.3466,-21.78419 1.659,-33.40909 z"
       id="path526611" />
    <path
       style="fill:url(#linearGradient529394);fill-opacity:1;stroke:none;stroke-width:1px;stroke-linecap:butt;stroke-linejoin:miter;stroke-opacity:1"
       d="m 1343.0928,804.96419 c 85.2397,36.28087 170.4783,72.56127 255.9911,122.5727 85.5127,50.01143 171.2963,113.75101 280.2068,157.30361 108.9105,43.5525 240.9409,66.9165 326.4686,59.1644 85.5277,-7.7521 124.5496,-46.619 147.0732,-68.8294 22.5235,-22.2104 28.5477,-27.7633 9.0553,-17.8687 -19.4925,9.8947 -64.5001,35.2361 -110.2252,48.3809 -45.7252,13.1448 -92.1659,14.0922 -159.1591,-16.6273 -66.9933,-30.7195 -154.5348,-93.1042 -282.8633,-145.73209 -128.3286,-52.62788 -297.4357,-95.49542 -466.5474,-138.36412"
       id="path529317" />
    <path
       style="display:inline;fill:url(#linearGradient595565);fill-opacity:1;stroke:none;stroke-width:1px;stroke-linecap:butt;stroke-linejoin:miter;stroke-opacity:1"
       d="m 1224.6912,831.36231 c -13.8146,-15.16651 -27.6301,-30.33411 -48.0797,-34.2612 -20.4496,-3.92709 -47.5319,3.38721 -66.8686,20.87123 -19.3366,17.48401 -30.9258,45.13584 -36.5814,62.33977 -5.6557,17.20393 -5.3778,23.95859 -5.521,24.87009 -0.1432,0.91151 -0.7075,-4.02014 8.6721,-17.93794 9.3795,-13.9178 28.7024,-36.81972 49.5068,-49.69794 20.8045,-12.87821 43.0882,-15.73194 59.8139,-15.09158 16.7258,0.64036 27.8924,4.77417 39.0579,8.90757"
       id="path595392" />
    <path
       style="display:inline;fill:url(#linearGradient595640);fill-opacity:1;stroke:none;stroke-width:1px;stroke-linecap:butt;stroke-linejoin:miter;stroke-opacity:1"
       d="m 1237.8025,826.08618 c -5.5863,-35.08999 -11.1728,-70.18047 -29.422,-89.55447 -18.2493,-19.374 -49.1602,-23.02889 -82.1556,-11.76282 -32.9953,11.26608 -68.0702,37.45203 -84.5477,55.8812 -16.4776,18.42916 -14.3559,29.09812 -13.1657,25.88535 1.1902,-3.21277 1.449,-20.30668 26.7338,-33.86297 25.2849,-13.5563 75.5918,-23.57216 106.0432,-18.57257 30.4515,4.99958 41.0439,25.01275 49.0017,38.0659 7.9578,13.05315 13.2798,19.14499 18.601,25.23586"
       id="path595392-8" />
    <path
       style="fill:none;fill-opacity:1;stroke:#2a0e26;stroke-width:24.5822;stroke-linecap:butt;stroke-linejoin:miter;stroke-miterlimit:4;stroke-dasharray:none;stroke-dashoffset:4.4556;stroke-opacity:1"
       d="m 1124.8215,1007.0854 c -14.7716,0 -23.6612,4.8665 -32.6333,22.4221 -8.9722,17.5556 -18.026,47.8028 -11.5513,79.6909 6.4747,31.8881 28.4752,65.4146 62.2049,91.8545 33.7297,26.4399 79.1856,45.7928 105.9854,37.702 26.7997,-8.0908 34.9443,-43.6252 34.1869,-74.4269 -0.7575,-30.8018 -10.4179,-56.8693 -28.9211,-80.6721 -18.5034,-23.8028 -45.8494,-45.3388 -69.8488,-58.5323 -23.9993,-13.1937 -44.651,-18.0435 -59.4227,-18.0382 z"
       id="path597291" />
  </g>
</svg>
