<?xml version="1.0" encoding="UTF-8" standalone="no"?>
<!-- Created with Inkscape (http://www.inkscape.org/) -->

<svg
   width="106.0265mm"
   height="131.10904mm"
   viewBox="0 0 106.0265 131.10904"
   version="1.1"
   id="svg1"
   xml:space="preserve"
   xmlns:xlink="http://www.w3.org/1999/xlink"
   xmlns="http://www.w3.org/2000/svg"
   xmlns:svg="http://www.w3.org/2000/svg"><defs
     id="defs1"><linearGradient
       id="linearGradient1"><stop
         style="stop-color:#6c87c2;stop-opacity:1;"
         offset="0"
         id="stop2" /><stop
         style="stop-color:#6c6cc2;stop-opacity:1;"
         offset="1"
         id="stop1" /></linearGradient><linearGradient
       id="linearGradient37"><stop
         style="stop-color:#6c6cc2;stop-opacity:1;"
         offset="0"
         id="stop37" /><stop
         style="stop-color:#b982f5;stop-opacity:1;"
         offset="1"
         id="stop38" /></linearGradient><linearGradient
       xlink:href="#linearGradient37"
       id="linearGradient38"
       x1="68.310822"
       y1="57.467457"
       x2="101.24518"
       y2="57.467457"
       gradientUnits="userSpaceOnUse" /><linearGradient
       xlink:href="#linearGradient1"
       id="linearGradient2"
       x1="22.239981"
       y1="60.079929"
       x2="38.774174"
       y2="60.079929"
       gradientUnits="userSpaceOnUse"
       gradientTransform="matrix(1.0011844,0,0,0.95973148,-3.8076721,2.2459605)" /></defs><path
     style="fill:url(#linearGradient2);fill-opacity:1;stroke:#6f4fa4;stroke-width:2;stroke-linecap:round;stroke-linejoin:round;stroke-dasharray:none;stroke-opacity:1;paint-order:markers stroke fill"
     d="m 21.48455,53.298835 c 0.731574,1.338461 2.194692,4.015327 1.834013,6.630601 -0.360679,2.615275 -2.545106,5.168724 -3.419153,6.510506 -0.874046,1.341784 -0.437642,1.471793 1.432373,2.058428 1.870015,0.586634 5.173413,1.629824 7.373992,1.215277 2.20058,-0.414547 3.298074,-2.28678 4.050407,-4.150203 0.752333,-1.863424 1.159412,-3.71781 0.785069,-4.787194 -0.374345,-1.069384 -1.530071,-1.353634 -2.208258,-1.533372 -0.678186,-0.179739 -0.878753,-0.254945 -0.571853,-0.390062 0.306899,-0.135119 1.121221,-0.330131 1.799408,-0.900272 0.678189,-0.57014 1.220154,-1.515341 1.384533,-3.031504 0.164381,-1.516163 -0.04885,-3.603108 -2.080816,-4.434481 -2.03197,-0.831373 -5.882429,-0.407073 -7.994427,-0.194909 -2.111997,0.212163 -2.485272,0.212163 -2.714964,0.454924 -0.229694,0.242762 -0.298577,0.631179 -0.350239,0.922492 -0.05166,0.291312 -0.05166,0.291313 -0.05166,0.291311 1e-6,-1e-6 1e-6,-1e-6 0.731575,1.338458 z"
     id="path2" /><path
     style="fill:#6c6cc2;fill-opacity:1;stroke:#6f4fa4;stroke-width:1.98285;stroke-linecap:round;stroke-linejoin:round;stroke-dasharray:none;stroke-opacity:1;paint-order:markers stroke fill"
     d="m 36.314344,64.085275 c 1.061209,-3.253501 3.183545,-9.130881 6.951389,-14.08245 3.767845,-4.951571 8.688547,-8.894922 9.790959,-7.942896 1.102411,0.952026 -2.105975,6.88153 -2.799564,11.89254 -0.693588,5.011009 1.127626,9.103499 1.812618,11.706 0.684992,2.602501 0.233732,3.714821 -0.489743,4.202331 -0.723475,0.487508 -1.719076,0.350145 -2.457886,-1.253645 -0.738812,-1.603791 -1.220741,-4.67381 -1.770682,-6.414157 -0.54994,-1.740348 -1.16782,-2.150803 -2.108948,-2.038424 -0.941128,0.112379 -2.205411,0.747591 -3.092794,1.311491 -0.887383,0.563901 -1.397819,1.056458 -1.935134,2.547864 -0.537316,1.491405 -1.101482,3.981553 -1.759695,5.322429 -0.769698,1.567989 -4.873858,3.128897 -2.14052,-5.251083 z"
     id="path3" /><path
     style="fill:#6c6cc2;fill-opacity:1;stroke:#6f4fa4;stroke-width:1.89639;stroke-linecap:round;stroke-linejoin:round;stroke-dasharray:none;stroke-opacity:1;paint-order:markers stroke fill"
     d="m 65.16266,54.936801 c 0.838261,-0.142864 1.340395,-1.230639 1.14487,-2.262454 -0.195525,-1.031814 -1.0887,-2.007589 -2.830602,-2.57802 -1.741901,-0.570432 -4.332524,-0.735517 -6.225167,0.392598 -1.892643,1.128114 -3.970983,3.91902 -3.886676,7.162034 0.08486,3.264388 1.577147,7.389891 3.45378,8.808613 2.286323,1.728445 6.090966,1.622682 8.119533,0.318955 2.028569,-1.303727 2.313982,-2.762426 1.959593,-3.684182 -0.354389,-0.921755 -1.262523,-1.543922 -2.238885,-0.894471 -1.102308,0.733225 -2.779662,2.350335 -4.263036,1.878719 -4.525213,-1.438721 -5.370529,-10.969936 1.690811,-10.103658 1.09716,0.134599 2.237517,1.104729 3.075779,0.961866 z"
     id="path4" /><path
     style="fill:url(#linearGradient38);fill-opacity:1;stroke:#6f4fa4;stroke-width:2;stroke-linecap:round;stroke-linejoin:round;stroke-dasharray:none;stroke-opacity:1;paint-order:markers stroke fill"
     d="m 69.970035,55.867498 c -0.17019,2.409803 -0.510552,6.520054 -0.622726,9.175523 -0.112175,2.65547 0.0039,3.855844 0.937922,5.079685 0.934071,1.223841 2.686077,2.471003 3.490292,1.528916 0.804215,-0.942087 0.660542,-4.073374 0.824547,-5.639047 0.164006,-1.565674 0.635666,-1.565674 1.347271,-1.565674 0.711606,0 1.663073,0 3.866453,1.770802 2.203381,1.770801 5.658417,5.312199 8.518963,7.207181 2.860545,1.894983 5.12631,2.143335 6.665327,2.143332 1.539017,-2e-6 2.351212,-0.248354 2.795994,-0.70129 0.444783,-0.452937 0.522135,-1.110428 0.193375,-1.990334 -0.32876,-0.879907 -1.063602,-1.982171 -2.388298,-3.477678 -1.324696,-1.495506 -3.239119,-3.384124 -5.284862,-4.488223 -2.045743,-1.104099 -4.222621,-1.423561 -5.905051,-2.04562 -1.682431,-0.622059 -2.870392,-1.546715 -3.172223,-2.619761 -0.301831,-1.073047 0.282462,-2.294446 2.100292,-3.793188 1.817829,-1.498742 4.86909,-3.274738 7.816117,-5.090994 2.947027,-1.816256 5.789707,-3.6727 7.34225,-5.567896 1.552542,-1.895196 1.814822,-3.828958 1.737462,-4.966272 -0.0774,-1.137315 -0.49433,-1.478053 -2.43526,-1.458714 -1.940929,0.01934 -5.405569,0.398751 -8.865622,3.092473 -3.460054,2.693721 -6.915171,7.701541 -9.094978,10.205475 -2.179808,2.503934 -3.084278,2.503934 -3.724036,2.098194 -0.639757,-0.40574 -1.014791,-1.217211 -1.482721,-2.145095 -0.46793,-0.927883 -1.028718,-1.97211 -1.7926,-2.088143 -0.763882,-0.116033 -1.730759,0.696143 -2.214228,1.456805 -0.483469,0.760661 -0.483469,1.469741 -0.65366,3.879543 z"
     id="path5" /><circle
     style="fill:#e9e649;fill-opacity:1;stroke:#6f4fa4;stroke-width:2;stroke-linecap:round;stroke-linejoin:round;stroke-dasharray:none;stroke-opacity:1;paint-order:markers stroke fill"
     id="path6"
     cx="14.938881"
     cy="59.44289"
     r="3.8580024" /><circle
     style="fill:#6c6cc2;fill-opacity:1;stroke:#6f4fa4;stroke-width:1;stroke-linecap:round;stroke-linejoin:round;stroke-dasharray:none;stroke-opacity:1;paint-order:markers stroke fill"
     id="path7"
     cx="14.938881"
     cy="59.44289"
     r="1.8419787" /><path
     style="fill:#d9e9ff;fill-opacity:1;stroke:#6f4fa4;stroke-width:1;stroke-linecap:round;stroke-linejoin:round;stroke-dasharray:none;stroke-opacity:1;paint-order:markers stroke fill"
     d="m 26.102435,53.968189 c 0,0.519073 0.378066,1.557208 0.633768,2.028751 0.255703,0.471542 0.38903,0.376479 0.753715,0.328947 0.364685,-0.04753 0.960706,-0.04753 1.218884,-0.484893 0.258179,-0.43736 0.178495,-1.312054 -0.186188,-1.783595 -0.364684,-0.471542 -1.014361,-0.539913 -1.528236,-0.574098 -0.513875,-0.03419 -0.891943,-0.03419 -0.891943,0.484888 z"
     id="path8" /><path
     style="fill:#d9e9ff;fill-opacity:1;stroke:#6f4fa4;stroke-width:1;stroke-linecap:round;stroke-linejoin:round;stroke-dasharray:none;stroke-opacity:1;paint-order:markers stroke fill"
     d="m 47.331027,50.188896 c -0.96995,0.620001 -3.928662,4.371571 -4.286428,5.942652 -0.357767,1.571081 1.885439,0.961552 2.855389,0.34155 0.96995,-0.620002 0.666599,-1.250464 1.024359,-2.821514 0.357759,-1.57105 1.376629,-4.08269 0.40668,-3.462688 z"
     id="path9" /><path
     style="fill:#d9e9ff;fill-opacity:1;stroke:#6f4fa4;stroke-width:1;stroke-linecap:round;stroke-linejoin:round;stroke-dasharray:none;stroke-opacity:1;paint-order:markers stroke fill"
     d="m 26.45559,62.2764 c -0.573944,0.628275 -1.02464,1.994212 -1.181826,2.693578 -0.157187,0.699366 -0.02086,0.732146 0.423231,0.838928 0.444091,0.106781 1.195931,0.28756 1.794943,0.213574 0.599012,-0.07399 1.045181,-0.402738 1.326283,-0.944219 0.281101,-0.541482 0.397129,-1.295661 0.303897,-1.866345 -0.09323,-0.570684 -0.395708,-0.95783 -0.895559,-1.206114 -0.499851,-0.248285 -1.197025,-0.357677 -1.770969,0.270598 z"
     id="path10" /></svg>
