<?xml version="1.0" encoding="UTF-8" standalone="no"?>
<!-- Created with Inkscape (http://www.inkscape.org/) -->

<svg
   width="106.0265mm"
   height="131.10904mm"
   viewBox="0 0 106.0265 131.10904"
   version="1.1"
   id="svg1"
   xmlns="http://www.w3.org/2000/svg"
   xmlns:svg="http://www.w3.org/2000/svg">
  <defs
     id="defs1" />
  <path
     style="fill:#6c6cc2;fill-opacity:1;stroke:#6f4fa4;stroke-width:1.02016;stroke-linecap:round;stroke-linejoin:round;stroke-dasharray:none;stroke-opacity:1;paint-order:markers stroke fill"
     d="m 25.262301,53.194957 c 0.730709,1.39462 2.192096,4.183802 1.831844,6.908808 -0.360253,2.725007 -2.542095,5.385594 -3.415108,6.783675 -0.873012,1.398082 -0.437125,1.533546 1.430678,2.144795 1.867803,0.611249 5.167293,1.698209 7.365269,1.266268 2.197976,-0.43194 3.294172,-2.382729 4.045615,-4.324338 0.751443,-1.941609 1.158041,-3.873802 0.78414,-4.988055 -0.373902,-1.114253 -1.528261,-1.41043 -2.205645,-1.59771 -0.677384,-0.18728 -0.877714,-0.265641 -0.571177,-0.406428 0.306536,-0.140788 1.119895,-0.343982 1.79728,-0.938045 0.677386,-0.594063 1.21871,-1.578922 1.382895,-3.158701 0.164186,-1.579778 -0.04879,-3.754287 -2.078355,-4.620543 -2.029566,-0.866256 -5.87547,-0.424153 -7.984969,-0.203087 -2.109499,0.221065 -2.482332,0.221065 -2.711753,0.474012 -0.229422,0.252947 -0.298223,0.657662 -0.349824,0.961198 -0.0516,0.303535 -0.0516,0.303536 -0.0516,0.303534 1e-6,-2e-6 1e-6,-2e-6 0.73071,1.394617 z"
     id="path2"
     transform="matrix(1.0011844,0,0,0.95973148,-3.8076721,2.2459605)" />
  <path
     style="fill:#6c6cc2;fill-opacity:1;stroke:#6f4fa4;stroke-width:1;stroke-linecap:round;stroke-linejoin:round;stroke-dasharray:none;stroke-opacity:1;paint-order:markers stroke fill"
     d="m 39.997282,70.969535 c -0.642692,-0.300833 -1.162315,-1.093943 -1.422127,-1.805012 -0.259811,-0.711069 -0.259811,-1.340073 0.820479,-4.591643 1.080289,-3.251571 3.240784,-9.125464 7.076374,-14.074096 3.83559,-4.948633 9.34589,-8.971642 10.468123,-8.020181 1.122232,0.951461 -2.14384,6.877448 -2.849899,11.885485 -0.706059,5.008036 1.1479,9.098098 1.845208,11.699055 0.697308,2.600958 0.237934,3.712618 -0.498548,4.199838 -0.736483,0.487219 -1.749985,0.349938 -2.502079,-1.252901 -0.752095,-1.602839 -1.242689,-4.671037 -1.802518,-6.410352 -0.559828,-1.739315 -1.188818,-2.149527 -2.146867,-2.037214 -0.958049,0.112312 -2.245064,0.747147 -3.148402,1.310713 -0.903338,0.563566 -1.422951,1.055831 -1.969927,2.546352 -0.546977,1.49052 -1.121286,3.979191 -1.791334,5.319272 -0.670048,1.340082 -1.435792,1.531518 -2.078483,1.230684 z"
     id="path3"
     transform="translate(-3.8961786,-0.41022853)" />
  <path
     style="fill:#6c6cc2;fill-opacity:1;stroke:#6f4fa4;stroke-width:1;stroke-linecap:round;stroke-linejoin:round;stroke-dasharray:none;stroke-opacity:1;paint-order:markers stroke fill"
     d="m 64.872544,56.515531 c 0.938018,-0.142003 1.499909,-1.223219 1.281115,-2.248812 -0.218793,-1.025593 -1.218261,-1.995484 -3.167458,-2.562476 -1.949196,-0.566992 -4.848116,-0.731082 -6.965993,0.390231 -2.117876,1.121312 -3.454551,3.527893 -3.522923,6.751871 -0.06837,3.223979 1.131562,7.264973 3.864797,8.7555 2.733234,1.490526 6.99944,0.430408 9.269417,-0.865458 2.269978,-1.295866 2.543452,-2.827321 2.146889,-3.743519 -0.396563,-0.916197 -1.463114,-1.21702 -2.734848,-0.929854 -1.271733,0.287166 -2.748498,1.162286 -4.403119,1.011107 -1.654622,-0.15118 -3.486902,-1.328638 -3.938162,-2.737118 -0.451261,-1.408479 0.478572,-3.047842 1.476095,-3.965324 0.997522,-0.917482 2.062715,-1.113048 3.252378,-0.812214 1.189662,0.300834 2.503793,1.098068 3.441812,0.956066 z"
     id="path4" />
  <path
     style="fill:#6c6cc2;fill-opacity:1;stroke:#6f4fa4;stroke-width:1;stroke-linecap:round;stroke-linejoin:round;stroke-dasharray:none;stroke-opacity:1;paint-order:markers stroke fill"
     d="m 69.970035,55.867498 c -0.17019,2.409803 -0.510552,6.520054 -0.622726,9.175523 -0.112175,2.65547 0.0039,3.855844 0.937922,5.079685 0.934071,1.223841 2.686077,2.471003 3.490292,1.528916 0.804215,-0.942087 0.660542,-4.073374 0.824547,-5.639047 0.164006,-1.565674 0.635666,-1.565674 1.347271,-1.565674 0.711606,0 1.663073,0 3.866453,1.770802 2.203381,1.770801 5.658417,5.312199 8.518963,7.207181 2.860545,1.894983 5.12631,2.143335 6.665327,2.143332 1.539017,-2e-6 2.351212,-0.248354 2.795994,-0.70129 0.444783,-0.452937 0.522135,-1.110428 0.193375,-1.990334 -0.32876,-0.879907 -1.063602,-1.982171 -2.388298,-3.477678 -1.324696,-1.495506 -3.239119,-3.384124 -5.284862,-4.488223 -2.045743,-1.104099 -4.222621,-1.423561 -5.905051,-2.04562 -1.682431,-0.622059 -2.870392,-1.546715 -3.172223,-2.619761 -0.301831,-1.073047 0.282462,-2.294446 2.100292,-3.793188 1.817829,-1.498742 4.86909,-3.274738 7.816117,-5.090994 2.947027,-1.816256 5.789707,-3.6727 7.34225,-5.567896 1.552542,-1.895196 1.814822,-3.828958 1.737462,-4.966272 -0.0774,-1.137315 -0.49433,-1.478053 -2.43526,-1.458714 -1.940929,0.01934 -5.405569,0.398751 -8.865622,3.092473 -3.460054,2.693721 -6.915171,7.701541 -9.094978,10.205475 -2.179808,2.503934 -3.084278,2.503934 -3.724036,2.098194 -0.639757,-0.40574 -1.014791,-1.217211 -1.482721,-2.145095 -0.46793,-0.927883 -1.028718,-1.97211 -1.7926,-2.088143 -0.763882,-0.116033 -1.730759,0.696143 -2.214228,1.456805 -0.483469,0.760661 -0.483469,1.469741 -0.65366,3.879543 z"
     id="path5" />
  <circle
     style="fill:#e9e649;fill-opacity:1;stroke:#6f4fa4;stroke-width:2;stroke-linecap:round;stroke-linejoin:round;stroke-dasharray:none;stroke-opacity:1;paint-order:markers stroke fill"
     id="path6"
     cx="14.938881"
     cy="59.44289"
     r="3.8580024" />
  <circle
     style="fill:#6c6cc2;fill-opacity:1;stroke:#6f4fa4;stroke-width:1;stroke-linecap:round;stroke-linejoin:round;stroke-dasharray:none;stroke-opacity:1;paint-order:markers stroke fill"
     id="path7"
     cx="14.938881"
     cy="59.44289"
     r="1.8419787" />
  <path
     style="fill:#ffffff;fill-opacity:1;stroke:#6f4fa4;stroke-width:1;stroke-linecap:round;stroke-linejoin:round;stroke-dasharray:none;stroke-opacity:1;paint-order:markers stroke fill"
     d="m 26.102435,53.968189 c 0,0.519073 0.378066,1.557208 0.633768,2.028751 0.255703,0.471542 0.38903,0.376479 0.753715,0.328947 0.364685,-0.04753 0.960706,-0.04753 1.218884,-0.484893 0.258179,-0.43736 0.178495,-1.312054 -0.186188,-1.783595 -0.364684,-0.471542 -1.014361,-0.539913 -1.528236,-0.574098 -0.513875,-0.03419 -0.891943,-0.03419 -0.891943,0.484888 z"
     id="path8" />
  <path
     style="fill:#ffffff;fill-opacity:1;stroke:#6f4fa4;stroke-width:1;stroke-linecap:round;stroke-linejoin:round;stroke-dasharray:none;stroke-opacity:1;paint-order:markers stroke fill"
     d="m 46.80186,49.659729 c -0.96995,0.620001 -3.928662,4.371571 -4.286428,5.942652 -0.357767,1.571081 1.885439,0.961552 2.855389,0.34155 0.96995,-0.620002 0.666599,-1.250464 1.024359,-2.821514 0.357759,-1.57105 1.376629,-4.08269 0.40668,-3.462688 z"
     id="path9"
     transform="translate(0.52916667,0.52916667)" />
  <path
     style="fill:#ffffff;fill-opacity:1;stroke:#6f4fa4;stroke-width:1;stroke-linecap:round;stroke-linejoin:round;stroke-dasharray:none;stroke-opacity:1;paint-order:markers stroke fill"
     d="m 27.176018,62.194354 c -0.573944,0.628275 -1.02464,1.994212 -1.181826,2.693578 -0.157187,0.699366 -0.02086,0.732146 0.423231,0.838928 0.444091,0.106781 1.195931,0.28756 1.794943,0.213574 0.599012,-0.07399 1.045181,-0.402738 1.326283,-0.944219 0.281101,-0.541482 0.397129,-1.295661 0.303897,-1.866345 -0.09323,-0.570684 -0.395708,-0.95783 -0.895559,-1.206114 -0.499851,-0.248285 -1.197025,-0.357677 -1.770969,0.270598 z"
     id="path10"
     transform="translate(-0.72042781,0.08204571)" />
</svg>
