<?xml version="1.0" encoding="UTF-8" standalone="no"?>
<!-- Created with Inkscape (http://www.inkscape.org/) -->

<svg
   width="106.0265mm"
   height="131.10904mm"
   viewBox="0 0 106.0265 131.10904"
   version="1.1"
   id="svg1"
   xmlns:xlink="http://www.w3.org/1999/xlink"
   xmlns="http://www.w3.org/2000/svg"
   xmlns:svg="http://www.w3.org/2000/svg">
  <defs
     id="defs1">
    <linearGradient
       id="linearGradient72">
      <stop
         style="stop-color:#b2c6e8;stop-opacity:1;"
         offset="0"
         id="stop72" />
      <stop
         style="stop-color:#8ec4d8;stop-opacity:0;"
         offset="1"
         id="stop73" />
    </linearGradient>
    <linearGradient
       id="linearGradient71">
      <stop
         style="stop-color:#6663ca;stop-opacity:1;"
         offset="0"
         id="stop70" />
      <stop
         style="stop-color:#689ce4;stop-opacity:1;"
         offset="1"
         id="stop71" />
    </linearGradient>
    <linearGradient
       id="linearGradient49">
      <stop
         style="stop-color:#414871;stop-opacity:1;"
         offset="0"
         id="stop50" />
      <stop
         style="stop-color:#59639c;stop-opacity:0;"
         offset="1"
         id="stop51" />
    </linearGradient>
    <linearGradient
       id="linearGradient48">
      <stop
         style="stop-color:#dd9393;stop-opacity:1;"
         offset="0"
         id="stop49" />
      <stop
         style="stop-color:#cb87b6;stop-opacity:1;"
         offset="1"
         id="stop48" />
    </linearGradient>
    <linearGradient
       id="linearGradient39">
      <stop
         style="stop-color:#59639c;stop-opacity:0;"
         offset="0"
         id="stop40" />
      <stop
         style="stop-color:#122063;stop-opacity:1;"
         offset="1"
         id="stop39" />
    </linearGradient>
    <linearGradient
       id="linearGradient34">
      <stop
         style="stop-color:#59639c;stop-opacity:1;"
         offset="0"
         id="stop35" />
      <stop
         style="stop-color:#59639c;stop-opacity:0;"
         offset="1"
         id="stop36" />
    </linearGradient>
    <linearGradient
       id="linearGradient31">
      <stop
         style="stop-color:#a28cb6;stop-opacity:1;"
         offset="0"
         id="stop33" />
      <stop
         style="stop-color:#cfacdc;stop-opacity:1;"
         offset="0.79795313"
         id="stop34" />
      <stop
         style="stop-color:#cfacdc;stop-opacity:1;"
         offset="1"
         id="stop32" />
    </linearGradient>
    <linearGradient
       id="linearGradient29">
      <stop
         style="stop-color:#c5a1c0;stop-opacity:1;"
         offset="0"
         id="stop30" />
      <stop
         style="stop-color:#e2c9de;stop-opacity:0;"
         offset="1"
         id="stop31" />
    </linearGradient>
    <linearGradient
       id="linearGradient27">
      <stop
         style="stop-color:#5a5c6a;stop-opacity:1;"
         offset="0"
         id="stop27" />
      <stop
         style="stop-color:#8a74a9;stop-opacity:0.63921571;"
         offset="0.56610739"
         id="stop29" />
      <stop
         style="stop-color:#bc64bb;stop-opacity:0;"
         offset="1"
         id="stop28" />
    </linearGradient>
    <linearGradient
       id="linearGradient23">
      <stop
         style="stop-color:#927397;stop-opacity:1;"
         offset="0"
         id="stop24" />
      <stop
         style="stop-color:#c0a6bc;stop-opacity:1;"
         offset="1"
         id="stop25" />
    </linearGradient>
    <linearGradient
       id="linearGradient21">
      <stop
         style="stop-color:#060a17;stop-opacity:1;"
         offset="0"
         id="stop21" />
      <stop
         style="stop-color:#521e70;stop-opacity:1;"
         offset="0.60730404"
         id="stop23" />
      <stop
         style="stop-color:#250a0a;stop-opacity:0;"
         offset="1"
         id="stop22" />
    </linearGradient>
    <linearGradient
       id="linearGradient17">
      <stop
         style="stop-color:#6d677c;stop-opacity:1;"
         offset="0"
         id="stop17" />
      <stop
         style="stop-color:#6d677c;stop-opacity:0;"
         offset="1"
         id="stop18" />
    </linearGradient>
    <pattern
       xlink:href="#invert grid"
       preserveAspectRatio="xMidYMid"
       id="pattern7"
       patternTransform="scale(0.8)"
       x="0"
       y="0" />
    <pattern
       patternUnits="userSpaceOnUse"
       width="12"
       height="12"
       preserveAspectRatio="xMidYMid"
       id="invert grid"
       x="0"
       y="0"
       style="fill:#6e74ec">
      <rect
         style="stroke:none;paint-order:markers fill stroke"
         id="rect2-0"
         width="10"
         height="10"
         x="0"
         y="0" />
    </pattern>
    <filter
       style="color-interpolation-filters:sRGB"
       id="filter7"
       x="-0.02909928"
       y="-0.023528182"
       width="1.0581665"
       height="1.0472349">
      <feGaussianBlur
         stdDeviation="0.17189666"
         id="feGaussianBlur7" />
    </filter>
    <radialGradient
       xlink:href="#linearGradient17"
       id="radialGradient18"
       cx="61.876274"
       cy="64.289505"
       fx="61.876274"
       fy="64.289505"
       r="14.451189"
       gradientTransform="matrix(0.99999987,0,0,1.3586858,8.1667762e-6,-19.204321)"
       gradientUnits="userSpaceOnUse" />
    <radialGradient
       xlink:href="#linearGradient17"
       id="radialGradient19"
       cx="76.239754"
       cy="63.941727"
       fx="76.239754"
       fy="63.941727"
       r="6.4747224"
       gradientTransform="matrix(1,0,0,2.967621,0,-115.04213)"
       gradientUnits="userSpaceOnUse" />
    <radialGradient
       xlink:href="#linearGradient17"
       id="radialGradient20"
       cx="56.910706"
       cy="74.609146"
       fx="56.910706"
       fy="74.609146"
       r="16.654257"
       gradientTransform="matrix(0.98387639,-0.17884979,0.26602615,1.4634451,-18.930378,-23.670657)"
       gradientUnits="userSpaceOnUse" />
    <radialGradient
       xlink:href="#linearGradient17"
       id="radialGradient21"
       cx="81.634697"
       cy="67.099823"
       fx="81.634697"
       fy="67.099823"
       r="3.2667799"
       gradientTransform="matrix(1,0,0,4.8735935,0,-250.69685)"
       gradientUnits="userSpaceOnUse" />
    <filter
       style="color-interpolation-filters:sRGB"
       id="filter21"
       x="-0.0057669749"
       y="-0.0095244879"
       width="1.0115339"
       height="1.019049">
      <feGaussianBlur
         stdDeviation="0.16483981"
         id="feGaussianBlur21" />
    </filter>
    <radialGradient
       xlink:href="#linearGradient21"
       id="radialGradient22"
       cx="27.914152"
       cy="52.167927"
       fx="27.914152"
       fy="52.167927"
       r="34.358547"
       gradientTransform="matrix(0.04005582,0.76521026,-1.8117921,0.09484036,131.40808,20.591548)"
       gradientUnits="userSpaceOnUse" />
    <radialGradient
       xlink:href="#linearGradient23"
       id="radialGradient25"
       cx="30.048069"
       cy="52.829796"
       fx="30.048069"
       fy="52.829796"
       r="35.58815"
       gradientTransform="matrix(1.4104752,0.32029244,0.02324994,0.66949227,-13.562277,8.8264302)"
       gradientUnits="userSpaceOnUse" />
    <radialGradient
       xlink:href="#linearGradient27"
       id="radialGradient28"
       cx="56.570419"
       cy="72.922134"
       fx="56.570419"
       fy="72.922134"
       r="21.431549"
       gradientTransform="matrix(1.790043,0.13473939,-0.04151658,0.55155736,-41.372593,32.940113)"
       gradientUnits="userSpaceOnUse" />
    <radialGradient
       xlink:href="#linearGradient29"
       id="radialGradient31"
       cx="42.798"
       cy="99.26841"
       fx="42.798"
       fy="99.26841"
       r="14.479948"
       gradientTransform="matrix(1,0,0,0.56691046,0,42.992111)"
       gradientUnits="userSpaceOnUse" />
    <radialGradient
       xlink:href="#linearGradient31"
       id="radialGradient33"
       cx="60.333614"
       cy="54.783108"
       fx="60.333614"
       fy="54.783108"
       r="26.864061"
       gradientTransform="matrix(1,0,0,0.5958606,0,19.246365)"
       gradientUnits="userSpaceOnUse" />
    <radialGradient
       xlink:href="#linearGradient34"
       id="radialGradient36"
       cx="78.619438"
       cy="80.68502"
       fx="78.619438"
       fy="80.68502"
       r="15.600926"
       gradientTransform="matrix(2.642082,0.1529059,-0.09936335,1.716913,-121.34988,-65.474497)"
       gradientUnits="userSpaceOnUse" />
    <filter
       style="color-interpolation-filters:sRGB"
       id="filter36"
       x="-0.0013880535"
       y="-0.0039251662"
       width="1.0027761"
       height="1.0078503">
      <feGaussianBlur
         stdDeviation="0.029300147"
         id="feGaussianBlur36" />
    </filter>
    <filter
       style="color-interpolation-filters:sRGB"
       id="filter37"
       x="-0.0023455388"
       y="-0.0037602615"
       width="1.0046911"
       height="1.0075205">
      <feGaussianBlur
         stdDeviation="0.030493814"
         id="feGaussianBlur37" />
    </filter>
    <linearGradient
       xlink:href="#linearGradient39"
       id="linearGradient40"
       x1="41.229065"
       y1="32.765759"
       x2="54.539482"
       y2="32.765759"
       gradientUnits="userSpaceOnUse" />
    <linearGradient
       xlink:href="#linearGradient39"
       id="linearGradient41"
       gradientUnits="userSpaceOnUse"
       x1="30.316986"
       y1="25.053463"
       x2="54.047207"
       y2="33.34008" />
    <linearGradient
       xlink:href="#linearGradient39"
       id="linearGradient42"
       gradientUnits="userSpaceOnUse"
       x1="30.316986"
       y1="25.053463"
       x2="54.047207"
       y2="33.34008" />
    <linearGradient
       xlink:href="#linearGradient39"
       id="linearGradient44"
       gradientUnits="userSpaceOnUse"
       x1="42.373463"
       y1="27.325298"
       x2="47.400883"
       y2="33.375774" />
    <filter
       style="color-interpolation-filters:sRGB"
       id="filter44"
       x="-0.0067382848"
       y="-0.010215612"
       width="1.0134766"
       height="1.0204312">
      <feGaussianBlur
         stdDeviation="0.050930283"
         id="feGaussianBlur44" />
    </filter>
    <linearGradient
       xlink:href="#linearGradient39"
       id="linearGradient46"
       gradientUnits="userSpaceOnUse"
       x1="42.373463"
       y1="27.325298"
       x2="47.400883"
       y2="33.375774" />
    <filter
       style="color-interpolation-filters:sRGB"
       id="filter46"
       x="-0.017324747"
       y="-0.024909714"
       width="1.0346495"
       height="1.0498194">
      <feGaussianBlur
         stdDeviation="0.16283118"
         id="feGaussianBlur46" />
    </filter>
    <radialGradient
       xlink:href="#linearGradient48"
       id="radialGradient49"
       cx="33.591091"
       cy="85.31572"
       fx="33.591091"
       fy="85.31572"
       r="29.075644"
       gradientTransform="matrix(0.225294,0.20773812,-0.50636458,0.54915728,71.09433,32.104138)"
       gradientUnits="userSpaceOnUse" />
    <linearGradient
       xlink:href="#linearGradient49"
       id="linearGradient51"
       x1="78.76181"
       y1="78.224274"
       x2="78.004044"
       y2="83.064964"
       gradientUnits="userSpaceOnUse" />
    <radialGradient
       xlink:href="#linearGradient71"
       id="radialGradient66"
       cx="47.347054"
       cy="77.267975"
       fx="47.347054"
       fy="77.267975"
       r="8.755949"
       gradientTransform="matrix(1.0183196,-0.285281,0.99328336,1.6947087,-77.616373,-40.089199)"
       gradientUnits="userSpaceOnUse" />
    <radialGradient
       xlink:href="#linearGradient71"
       id="radialGradient67"
       cx="55.282379"
       cy="76.875183"
       fx="55.282379"
       fy="76.875183"
       r="7.8054991"
       gradientTransform="matrix(1.3916411,0.27429486,0.15689568,2.6531683,-32.770741,-140.27466)"
       gradientUnits="userSpaceOnUse" />
    <radialGradient
       xlink:href="#linearGradient71"
       id="radialGradient68"
       cx="66.331177"
       cy="83.28846"
       fx="66.331177"
       fy="83.28846"
       r="10.456212"
       gradientTransform="matrix(-1.6250268,1.8654859,-0.70627069,-0.61523319,232.94531,10.403904)"
       gradientUnits="userSpaceOnUse" />
    <radialGradient
       xlink:href="#linearGradient71"
       id="radialGradient69"
       cx="37.475834"
       cy="88.549873"
       fx="37.475834"
       fy="88.549873"
       r="9.9502249"
       gradientTransform="matrix(1.0047954,-0.08063997,0.39567868,2.0658998,-35.217009,-91.199657)"
       gradientUnits="userSpaceOnUse" />
    <linearGradient
       xlink:href="#linearGradient72"
       id="linearGradient73"
       x1="18.87071"
       y1="88.806015"
       x2="22.19916"
       y2="91.068604"
       gradientUnits="userSpaceOnUse" />
    <linearGradient
       xlink:href="#linearGradient72"
       id="linearGradient75"
       x1="25.226629"
       y1="83.426132"
       x2="32.164902"
       y2="83.426132"
       gradientUnits="userSpaceOnUse" />
    <linearGradient
       xlink:href="#linearGradient72"
       id="linearGradient77"
       x1="47.624187"
       y1="75.992599"
       x2="43.128674"
       y2="73.846039"
       gradientUnits="userSpaceOnUse" />
    <linearGradient
       xlink:href="#linearGradient72"
       id="linearGradient79"
       x1="38.794895"
       y1="73.908936"
       x2="44.339298"
       y2="75.303711"
       gradientUnits="userSpaceOnUse" />
    <linearGradient
       xlink:href="#linearGradient72"
       id="linearGradient81"
       x1="51.32185"
       y1="81.198921"
       x2="67.864456"
       y2="81.198921"
       gradientUnits="userSpaceOnUse" />
    <linearGradient
       xlink:href="#linearGradient72"
       id="linearGradient83"
       x1="25.363113"
       y1="90.988434"
       x2="22.749754"
       y2="90.291046"
       gradientUnits="userSpaceOnUse" />
    <linearGradient
       xlink:href="#linearGradient72"
       id="linearGradient85"
       x1="36.325417"
       y1="104.19184"
       x2="18.813684"
       y2="94.838631"
       gradientUnits="userSpaceOnUse" />
    <radialGradient
       xlink:href="#linearGradient31"
       id="radialGradient2"
       gradientUnits="userSpaceOnUse"
       gradientTransform="matrix(1,0,0,0.5958606,0,19.246365)"
       cx="60.333614"
       cy="54.783108"
       fx="60.333614"
       fy="54.783108"
       r="26.864061" />
  </defs>
  <g
     id="layer1"
     style="display:none">
    <path
       style="display:inline;opacity:0.85938;fill:none;fill-opacity:1;stroke:url(#pattern7);stroke-width:4.99999;stroke-linecap:round;stroke-linejoin:round;stroke-dasharray:none;stroke-opacity:1;paint-order:fill markers stroke;filter:url(#filter7)"
       d="M 11.783132,17.750356 C 21.737908,7.2915702 34.250638,3.7247793 47.438296,3.7389563 60.625951,3.7531433 77.605427,9.6456443 86.726708,18.936471 95.847999,28.2273 101.77283,34.12272 102.37454,44.55222 c 0.35374,6.131321 -0.34572,7.407234 -2.05648,8.614815 -1.710772,1.207579 -4.713719,2.984235 -6.036836,-1.200454 C 91.936947,44.552217 91.199388,41.801622 85.736769,34.94589 80.274147,28.090168 69.594255,21.194656 61.892162,18.257338 54.19007,15.320021 45.692126,15.517909 37.73547,17.525529 c -7.956656,2.007621 -15.372022,5.824973 -18.908363,8.617103 -3.536341,2.79213 -4.670297,6.809232 -4.217573,8.803255 0.452724,1.994025 3.271566,3.742639 9.390551,0 6.431916,-3.93404 23.590179,-9.768365 35.204793,-5.588661 11.781744,4.239853 21.116873,15.306406 24.581421,22.609352 3.606787,7.602758 3.013724,9.402684 1.039886,10.795966 -1.973848,1.393278 -3.184802,1.825987 -7.373294,-2.806884 -4.188492,-4.632872 -8.805792,-14.495211 -18.248015,-17.958435 -9.442216,-3.463232 -24.692849,0.293329 -30.704243,3.170223 -6.011394,2.876894 -5.331322,5.037852 -4.545035,7.169793 0.786287,2.131941 1.678692,4.234609 6.476403,4.106686 4.79771,-0.127922 15.633326,-5.275972 23.466433,-3.363873 7.833105,1.912098 15.488868,9.243184 16.785469,14.639504 1.060097,4.41199 0.0078,4.426955 -1.839528,5.530685 -1.847332,1.10373 -4.125468,2.311327 -6.710744,0.712317 -2.585276,-1.599011 -4.181177,-7.438696 -9.649549,-9.466383 -5.468375,-2.027688 -11.25205,-0.919826 -14.748612,10e-7 -3.496561,0.919828 -4.154541,3.906285 -3.228381,5.327512 0.926161,1.421227 1.684884,3.130468 4.283641,3.620061 2.598758,0.489595 5.190083,-1.060917 8.647566,10e-7 3.457492,1.060882 5.97577,3.556563 7.094783,5.682856 1.119004,2.126289 0.838612,3.883038 3.194975,8.298273 2.356355,4.415233 7.349468,11.488908 10.886248,19.898769 3.536791,8.40988 5.61723,18.15586 2.069603,19.90669 -3.547627,1.75082 -12.723169,-4.4935 -17.482586,-11.23611 -4.759427,-6.74262 -5.102503,-13.98323 -5.911297,-18.226085 -0.808794,-4.242859 -2.083275,-5.487862 -5.82488,-3.179161 -3.741605,2.3087 -9.950271,8.171066 -18.173309,9.248376 C 15.068794,104.91468 2.8687865,100.49615 2.0326272,96.983997 1.1964676,93.471832 10.9309,87.534249 18.836124,84.418705 26.74135,81.303162 31.593693,82.023637 39.727864,82.087746"
       id="path1" />
    <path
       style="display:inline;fill:#000000;fill-opacity:0;stroke:#9bdbfc;stroke-width:4.99999;stroke-linecap:round;stroke-linejoin:round;stroke-dasharray:none;stroke-opacity:1;paint-order:fill markers stroke"
       d="M 13.370634,15.633688 C 23.325409,5.1749035 35.838139,1.6081125 49.025797,1.6222895 c 13.187656,0.014187 30.167131,5.906688 39.288413,15.1975135 9.121291,9.290829 15.04614,15.186249 15.64785,25.615749 0.35373,6.131321 -0.34573,7.407234 -2.05649,8.614816 -1.71078,1.207578 -4.713728,2.984234 -6.036845,-1.200455 C 93.524448,42.43555 92.78689,39.684954 87.32427,32.829222 81.861648,25.9735 71.181756,19.077988 63.479663,16.14067 55.777572,13.203353 47.279628,13.401241 39.322972,15.408862 c -7.956656,2.00762 -15.372023,5.824972 -18.908363,8.617102 -3.536342,2.79213 -4.670298,6.809232 -4.217573,8.803255 0.452724,1.994025 3.271565,3.742639 9.39055,0 6.431916,-3.93404 23.590179,-9.768365 35.204793,-5.58866 11.781744,4.239852 21.116873,15.306406 24.581422,22.609351 3.606787,7.602758 3.013724,9.402685 1.039885,10.795967 -1.973848,1.393278 -3.184802,1.825986 -7.373294,-2.806885 C 74.8519,53.206121 70.2346,43.343781 60.792377,39.880557 51.350161,36.417325 36.099528,40.173886 30.088134,43.05078 c -6.011393,2.876894 -5.331321,5.037852 -4.545035,7.169793 0.786287,2.131942 1.678692,4.234609 6.476403,4.106687 4.79771,-0.127923 15.633327,-5.275973 23.466434,-3.363873 7.833104,1.912097 15.488867,9.243183 16.785469,14.639503 1.060096,4.41199 0.0078,4.426955 -1.839529,5.530685 -1.847332,1.10373 -4.125468,2.311327 -6.710744,0.712317 -2.585275,-1.59901 -4.181177,-7.438696 -9.649549,-9.466382 -5.468375,-2.027689 -11.25205,-0.919827 -14.748611,0 -3.496561,0.919829 -4.154542,3.906285 -3.228382,5.327512 0.926162,1.421227 1.684885,3.130468 4.283641,3.620062 2.598758,0.489595 5.190084,-1.060917 8.647566,0 3.457492,1.060882 5.97577,3.556563 7.094783,5.682856 1.119004,2.12629 0.838612,3.883038 3.194976,8.298273 2.356354,4.415234 7.349467,11.488908 10.886247,19.898767 3.536791,8.40987 5.617231,18.15586 2.069604,19.90668 -3.547628,1.75082 -12.72317,-4.4935 -17.482587,-11.23611 -4.759427,-6.74262 -5.102503,-13.983227 -5.911297,-18.226072 -0.808794,-4.24286 -2.083274,-5.487863 -5.824879,-3.179162 -3.741606,2.3087 -9.950272,8.171054 -18.17331,9.248374 C 16.656295,102.798 4.4562866,98.379492 3.6201273,94.867329 2.7839678,91.355164 12.518401,85.417581 20.423626,82.302038 c 7.905225,-3.115543 12.757568,-2.395069 20.89174,-2.33096"
       id="path5" />
  </g>
  <g
     id="layer3">
    <path
       style="fill:#a37fc3;fill-opacity:1;stroke:#000000;stroke-width:1.32292;stroke-linecap:round;stroke-linejoin:round;stroke-dasharray:none;paint-order:fill markers stroke"
       d="m 19.203277,97.213498 c 2.952035,2.134917 5.904048,4.269822 10.227416,6.164872 4.323369,1.89506 10.018015,3.55025 16.828554,3.55025 6.81054,0 14.736537,-1.65519 20.491691,-3.60491 5.755154,-1.94972 9.339126,-4.193823 13.203208,-7.474741 3.864083,-3.280917 8.007812,-7.598255 8.923144,-9.667581 0.915332,-2.069326 -1.397892,-1.890385 -3.71116,-1.71144"
       id="path7"
       transform="matrix(0.96578674,0,0,1.0010272,3.0215546,-0.09779101)" />
  </g>
  <path
     style="fill:url(#radialGradient2);stroke:#000000;stroke-width:3;stroke-linecap:round;stroke-linejoin:round;stroke-dasharray:none;paint-order:markers stroke fill"
     d="m 27.757486,40.806579 c 0.825851,-1.569489 1.651701,-3.138974 3.145743,-4.479513 1.494041,-1.340538 3.656269,-2.452126 4.811521,-3.162595 1.155252,-0.71047 1.303524,-1.01982 2.288871,-1.686742 0.985347,-0.666922 2.807757,-1.691409 5.159759,-1.88311 2.352002,-0.191701 5.233543,0.449376 8.871537,1.852596 3.637993,1.40322 8.032154,3.568469 10.146674,5.660646 2.11452,2.092177 1.949275,4.111178 -0.418441,3.565367 -2.367717,-0.545811 -6.937724,-3.656362 -7.05579,-5.919245 -0.118066,-2.262882 4.215774,-3.677856 9.390003,-1.561846 5.174229,2.11601 11.188217,7.762745 12.405252,9.533344 1.217036,1.770598 -2.36303,-0.335158 -1.844911,-0.950512 0.518119,-0.615355 5.134364,0.259765 8.617709,2.543415 3.483344,2.283651 5.833374,5.97556 6.805402,9.318786 0.972028,3.343226 0.565931,6.337428 0.159825,9.331691"
     id="path4" />
  <path
     style="fill:url(#radialGradient33);stroke:none;stroke-width:3;stroke-linecap:round;stroke-linejoin:round;stroke-dasharray:none;paint-order:markers stroke fill"
     d="m 27.757486,40.806579 c 0.825851,-1.569489 1.651701,-3.138974 3.145743,-4.479513 1.494041,-1.340538 3.656269,-2.452126 4.811521,-3.162595 1.155252,-0.71047 1.303524,-1.01982 2.288871,-1.686742 0.985347,-0.666922 2.807757,-1.691409 5.159759,-1.88311 2.352002,-0.191701 5.233543,0.449376 8.871537,1.852596 3.637993,1.40322 8.032154,3.568469 10.146674,5.660646 2.11452,2.092177 1.949275,4.111178 -0.473139,3.374897 -2.422414,-0.736281 -7.101812,-4.227757 -7.219877,-6.49064 -0.118066,-2.262883 4.325162,-3.296935 9.55409,-0.990453 5.228927,2.306482 11.242915,7.953217 12.45995,9.723816 1.217036,1.770598 -2.36303,-0.335158 -1.844911,-0.950512 0.518119,-0.615355 5.134364,0.259765 8.617709,2.543415 3.483344,2.283651 5.833374,5.97556 6.805402,9.318786 0.972028,3.343226 0.565931,6.337428 0.159825,9.331691"
     id="path37" />
  <path
     style="fill:#c5a1c0;fill-opacity:1;stroke:#42257d;stroke-width:1;stroke-linecap:round;stroke-linejoin:round;stroke-opacity:1;paint-order:fill markers stroke"
     d="M 52.864783,73.649694 C 47.313024,71.215672 37.194054,66.621113 31.013254,62.57349 c -6.180799,-4.047623 -8.423296,-7.548107 -8.505343,-9.967671 -0.08205,-2.419564 1.99642,-3.757974 2.830546,-5.918498 0.834126,-2.160524 0.423901,-5.143145 1.632848,-6.634493 1.208946,-1.491348 4.036982,-1.491348 5.787292,-2.968172 1.75031,-1.476825 2.42284,-4.430456 4.935849,-4.67513 2.513008,-0.244674 6.866457,2.219616 9.939548,3.195354 3.07309,0.975739 4.865798,0.462915 6.44698,0.08132 1.581182,-0.381596 2.950836,-0.631962 5.349467,0.49561 2.398631,1.127572 5.826233,3.633079 9.155758,4.885834 3.329525,1.252755 6.56097,1.252755 9.307497,2.759457 2.746527,1.506702 5.008136,4.520106 7.971296,7.482917 2.963159,2.962811 6.627865,5.875026 5.9988,10.032063 -0.629065,4.157036 -5.551708,9.558677 -8.286571,12.341599 -2.734864,2.782922 -3.281824,2.947009 -6.782505,3.001705 -3.500681,0.0547 -9.954815,0 -13.674229,-0.164094 -3.719414,-0.164094 -4.703946,-0.437575 -10.255704,-2.871597 z"
     id="path2" />
  <path
     style="fill:url(#radialGradient25);stroke:#42257d;stroke-width:1.74979;stroke-linecap:round;stroke-linejoin:round;stroke-dasharray:none;stroke-opacity:1;paint-order:fill markers stroke"
     d="M 52.864783,73.649694 C 47.313024,71.215672 37.194054,66.621113 31.013254,62.57349 c -6.180799,-4.047623 -8.423296,-7.548107 -8.505343,-9.967671 -0.08205,-2.419564 1.99642,-3.757974 3.035659,-5.918498 1.039239,-2.160524 1.039239,-5.143145 2.248185,-6.634493 1.208946,-1.491348 3.626761,-1.491348 5.677906,-2.530595 2.051145,-1.039246 3.735568,-3.117728 6.30659,-3.314056 2.571023,-0.196327 6.02861,1.489503 9.802715,2.173218 3.774106,0.683714 7.864706,0.365307 11.54646,1.574888 3.681753,1.209581 6.954648,3.947149 10.892842,6.435869 3.938195,2.48872 8.541683,4.728589 12.675783,7.304633 4.1341,2.576044 7.798806,5.488259 7.169741,9.645296 -0.629065,4.157036 -5.551708,9.558677 -8.286571,12.341599 -2.734864,2.782922 -3.281824,2.947009 -6.782505,3.001705 -3.500681,0.0547 -9.954815,0 -13.674229,-0.164094 -3.719414,-0.164094 -4.703946,-0.437575 -10.255704,-2.871597 z"
     id="path3"
     transform="matrix(0.97535567,0,0.25655843,-0.5700419,-16.290621,120.28511)" />
  <g
     id="layer4">
    <path
       style="fill:#7773d5;fill-opacity:1;stroke:#42257d;stroke-width:1.32292;stroke-linecap:round;stroke-linejoin:round;stroke-dasharray:none;stroke-opacity:1;paint-order:fill markers stroke"
       d="m 47.655159,81.131853 c -8.396315,1.337016 -16.245559,4.441201 -18.613465,7.154636 -2.367906,2.713434 0.745649,5.035857 5.224424,6.964822 4.478775,1.928965 10.322232,3.464241 17.161844,2.801811 6.839613,-0.662431 14.674719,-3.522545 21.044671,-5.451472 6.369951,-1.928926 11.274494,-2.926587 11.274494,-4.76248 0,-1.835892 -4.904445,-4.509817 -11.82852,-6.061971 -6.924074,-1.552154 -15.867133,-1.982361 -24.263448,-0.645346 z"
       id="path10" />
    <path
       style="mix-blend-mode:overlay;fill:url(#radialGradient19);stroke:none;stroke-width:1.32292;stroke-linecap:round;stroke-linejoin:round;stroke-dasharray:none;paint-order:fill markers stroke"
       d="m 62.879384,41.190707 c 0.928242,2.320607 3.949502,7.193866 6.001619,12.260568 2.052117,5.066702 3.135044,10.326632 3.676518,14.302618 0.541474,3.975987 0.541474,6.667772 1.718624,8.720265 1.17715,2.052493 3.531311,3.465454 3.780202,-1.793379 0.24889,-5.258833 -1.607513,-17.188796 -3.094087,-23.766574 -1.486575,-6.577777 -2.603147,-7.802534 -3.606238,-8.53096 -1.003092,-0.728426 -1.89264,-0.960482 -3.052955,-1.385932 -1.160316,-0.42545 -2.591325,-1.044265 -3.889248,-1.469712 -1.297922,-0.425446 -2.462678,-0.657501 -1.534435,1.663106 z"
       id="path11"
       transform="translate(-6.7441899,-3.9381939)" />
    <path
       style="mix-blend-mode:overlay;fill:url(#radialGradient21);stroke:none;stroke-width:1.32292;stroke-linecap:round;stroke-linejoin:round;stroke-dasharray:none;paint-order:fill markers stroke"
       d="m 85.402611,52.02784 c 0.929851,2.769043 2.150322,8.045197 1.483753,13.309101 -0.666569,5.263904 -3.220075,10.515029 -4.962406,13.31581 -1.742332,2.80078 -2.673287,3.150888 -2.827997,1.885523 -0.15471,-1.265365 0.466842,-4.146058 1.155009,-7.145123 0.688167,-2.999065 1.442882,-6.116205 1.945304,-9.561896 0.502423,-3.44569 0.752527,-7.219717 0.375152,-9.790497 -0.377375,-2.570779 -1.382174,-3.938153 -1.382935,-4.621881 -7.6e-4,-0.683728 1.002536,-0.683728 1.823805,-0.552813 0.82127,0.130914 1.460463,0.392733 2.390315,3.161776 z"
       id="path12"
       transform="translate(-6.2354737,-5.0426936)" />
    <path
       style="mix-blend-mode:overlay;fill:url(#radialGradient18);fill-opacity:1;stroke:none;stroke-width:1.32292;stroke-linecap:round;stroke-linejoin:round;stroke-dasharray:none;paint-order:fill markers stroke"
       d="m 35.946042,38.755633 c 2.24325,2.462861 8.103872,5.846494 12.246564,9.798005 4.142692,3.95151 6.584882,8.480778 8.106889,11.710135 1.522006,3.229357 2.123663,5.158463 2.725332,7.087607 0.637526,2.320603 1.275039,4.641161 2.403244,5.494762 1.128205,0.853602 2.74698,0.240193 2.12737,-4.149491 C 62.935832,64.306966 60.077854,56.14137 56.557662,49.777512 53.037471,43.413653 48.855372,38.851964 45.39091,36.389054 c -3.464461,-2.462911 -6.21092,-2.826756 -8.266864,-2.235085 -2.055944,0.59167 -3.421253,2.138803 -1.178004,4.601664 z"
       id="path13" />
    <path
       style="mix-blend-mode:overlay;fill:url(#radialGradient20);fill-opacity:1;stroke:none;stroke-width:1.32292;stroke-linecap:round;stroke-linejoin:round;stroke-dasharray:none;paint-order:fill markers stroke"
       d="m 30.233246,39.585624 c 1.902553,1.140966 5.030797,4.041713 8.569756,6.937807 3.538959,2.896094 7.488466,5.787412 10.410857,8.862243 2.922391,3.07483 4.817514,6.33299 6.209884,9.103085 1.39237,2.770096 2.281917,5.051977 2.7267,6.513162 0.444782,1.461185 0.444782,2.101604 -0.137683,2.42182 -0.582466,0.320216 -1.747353,0.320216 -2.5062,-0.560831 -0.758848,-0.881047 -1.111617,-2.643066 -3.217232,-5.457968 -2.105615,-2.814902 -5.963916,-6.682496 -10.001028,-9.27385 -4.037112,-2.591353 -8.25279,-3.906336 -11.337278,-5.02797 -3.084487,-1.121634 -5.037581,-2.049837 -5.601415,-3.287517 -0.563834,-1.237681 0.261662,-2.784684 0.76447,-4.525173 0.502808,-1.740489 0.682865,-3.674248 1.111327,-4.950604 0.428461,-1.276357 1.105289,-1.89517 3.007842,-0.754204 z"
       id="path14" />
    <path
       style="opacity:0.639169;mix-blend-mode:screen;fill:url(#radialGradient31);stroke:none;stroke-width:1.32292;stroke-linecap:round;stroke-linejoin:round;stroke-dasharray:none;paint-order:fill markers stroke"
       d="m 29.597448,104.07904 c -0.761135,0.30942 -1.396475,0.96692 -1.261099,1.61224 0.135376,0.64531 1.041439,1.27841 2.442078,1.59496 1.400639,0.31656 3.29576,0.31656 5.481018,-0.5995 2.185258,-0.91606 4.660521,-2.74812 6.497677,-4.95986 1.837155,-2.211741 3.03611,-4.803029 5.724184,-6.542393 2.688073,-1.739363 6.865076,-2.626715 8.251755,-3.322901 1.386679,-0.696186 -0.01699,-1.201168 -2.58903,-0.370694 -2.572039,0.830473 -6.312269,2.996327 -9.132301,5.162244 -2.820031,2.165917 -4.719716,4.331774 -6.712908,5.530754 -1.993193,1.19897 -4.079773,1.43103 -5.566556,1.52772 -1.486783,0.0967 -2.373684,0.058 -3.134818,0.36743 z"
       id="path29" />
  </g>
  <path
     style="fill:url(#radialGradient49);stroke:#5a274b;stroke-width:1.32292;stroke-linecap:round;stroke-linejoin:round;stroke-dasharray:none;stroke-opacity:1;paint-order:fill markers stroke"
     d="m 54.920154,77.877161 c -3.891359,0.428428 -7.445089,0.428428 -10.038401,0.409253 -2.593312,-0.01917 -4.225965,-0.05752 -7.398129,1.661012 -3.172164,1.718534 -7.883459,5.193743 -10.61463,11.331552 -2.731171,6.13781 -3.48189,14.937482 -0.555755,19.337582 2.926135,4.4001 9.528964,4.4001 14.002809,1.60502 4.473844,-2.79508 6.818692,-8.38523 10.053873,-11.18039 3.235181,-2.795169 7.360372,-2.795169 12.942743,-3.723202 5.582371,-0.928032 12.621252,-2.783987 15.812145,-5.251461 3.190892,-2.467475 2.533414,-5.546176 -0.08395,-8.370051 -2.617365,-2.823875 -7.194307,-5.392589 -11.597414,-6.248586 -4.403106,-0.855997 -8.631931,8.42e-4 -12.523289,0.429271 z"
     id="path6"
     transform="translate(-0.63074248,-3.9450251)" />
  <path
     style="opacity:0.639169;mix-blend-mode:overlay;fill:url(#radialGradient22);stroke:none;stroke-width:1;stroke-linecap:round;stroke-linejoin:round;paint-order:fill markers stroke;filter:url(#filter21)"
     d="M 54.11997,74.182705 C 50.078927,72.485172 38.577005,67.255863 31.70473,62.890865 24.832455,58.525867 22.589958,55.025383 22.507911,52.605819 c -0.08205,-2.419564 1.99642,-3.757974 2.946575,-5.847745 0.950156,-2.089771 0.771989,-4.930885 1.980936,-6.422233 1.208946,-1.491349 3.804926,-1.632854 5.452193,-2.942506 1.647267,-1.309652 2.345771,-3.787434 4.85878,-4.032108 2.513008,-0.244673 6.840482,1.743766 9.900586,2.481579 3.060103,0.737813 4.852811,0.224989 6.433993,-0.156606 1.581182,-0.381596 2.950836,-0.631962 5.349467,0.49561 2.398631,1.127572 5.826233,3.633079 9.155758,4.885834 3.329525,1.252755 6.56097,1.252755 9.307497,2.759457 2.746527,1.506702 5.008125,4.520091 7.713243,7.948694 2.705118,3.428603 5.853703,7.272354 5.46627,11.389031 -0.387434,4.116678 -4.310837,8.506208 -6.529093,8.506207 -2.218256,0 -2.731216,-4.389531 -4.297511,-6.215152 -1.566295,-1.825622 -4.185919,-1.087272 -6.131234,-0.718095 -1.945315,0.369176 -3.216301,0.369176 -4.130798,-0.1775 -0.914497,-0.546676 -1.472502,-1.640033 -2.031905,-1.419018 -0.559403,0.221015 -1.120209,1.756383 -2.127471,2.303068 -1.007262,0.546685 -2.460912,0.10466 -4.132935,-0.407436 -1.672023,-0.512096 -3.56239,-1.094254 -3.56239,0.08988 0,1.184133 1.890349,4.134521 1.070649,5.609744 -0.819701,1.475224 -4.349403,1.475224 -4.404363,2.392352 -0.05496,0.917128 3.364855,2.751363 -0.676188,1.053831 z"
     id="path16" />
  <path
     style="mix-blend-mode:overlay;fill:url(#radialGradient28);stroke:none;stroke-width:1.32292;stroke-linecap:round;stroke-linejoin:round;stroke-dasharray:none;paint-order:fill markers stroke;filter:url(#filter36)"
     d="m 54.920154,77.877161 c -3.891359,0.428428 -7.445089,0.428428 -9.999724,0.580469 -2.554634,0.152041 -4.109936,0.456104 -5.740076,1.084889 -1.630139,0.628786 -3.334918,1.582216 -4.885032,2.699201 -1.550114,1.116985 -2.945372,2.397387 -4.672268,5.073631 -1.726897,2.676244 -3.785279,6.74812 -1.8835,7.581208 1.901779,0.833089 7.763707,-1.572612 12.551213,-4.403395 4.787507,-2.830783 8.500168,-6.086367 11.858322,-7.209436 3.358154,-1.12307 6.361491,-0.11346 9.36678,0.603378 3.00529,0.716837 6.012517,1.1409 9.41538,1.243459 3.402864,0.10256 7.201031,-0.116385 6.656624,-1.735928 -0.544408,-1.619542 -5.431326,-4.639489 -9.989431,-5.721117 -4.558105,-1.081627 -8.78693,-0.224788 -12.678288,0.203641 z"
     id="path25"
     transform="translate(-0.63074248,-3.9450251)" />
  <path
     style="opacity:0.639169;mix-blend-mode:screen;fill:#f8aec3;fill-opacity:1;stroke:none;stroke-width:1.32292;stroke-linecap:round;stroke-linejoin:round;stroke-dasharray:none;paint-order:fill markers stroke;filter:url(#filter46)"
     d="m 32.21208,104.82563 c -1.077627,0 -2.075581,0.74658 -2.075579,1.68422 2e-6,0.93765 0.997938,2.06627 1.983928,1.80432 0.985989,-0.26194 1.959956,-1.91447 3.160257,-2.58136 1.2003,-0.66689 2.626911,-0.34811 4.713252,-1.86516 2.086341,-1.51705 4.832376,-4.869889 7.607885,-7.208747 2.775509,-2.338858 5.580368,-3.663665 5.019516,-3.940405 -0.560851,-0.27674 -4.487313,0.494583 -7.610908,2.524046 -3.123594,2.029463 -5.44415,5.316916 -6.878029,7.372656 -1.433879,2.05575 -1.981002,2.87967 -2.833211,2.91834 -0.852209,0.0387 -2.009484,-0.70791 -3.087111,-0.70791 z"
     id="path31"
     transform="translate(-0.82045707,-1.3183483)" />
  <path
     style="opacity:0.546785;mix-blend-mode:overlay;fill:url(#radialGradient36);fill-opacity:1;stroke:none;stroke-width:1.32292;stroke-linecap:round;stroke-linejoin:round;stroke-dasharray:none;paint-order:fill markers stroke;filter:url(#filter37)"
     d="m 77.481996,79.607597 c 0.536128,0.502797 1.162142,0.942123 1.664943,1.611455 0.502802,0.669333 0.882375,1.568638 0.882371,2.690276 -4e-6,1.121637 -0.379577,2.465538 -1.50122,3.69431 -1.121643,1.228771 -2.985276,2.342343 -6.45226,3.444641 -3.466983,1.102297 -8.53708,2.193254 -12.112911,2.835437 -3.57583,0.642183 -5.657209,0.835563 -7.56995,1.841176 -1.912741,1.005613 -3.656732,2.823382 -3.561807,2.378572 0.09492,-0.444809 2.028721,-3.152124 6.167193,-5.612066 4.138472,-2.459942 10.481325,-4.672367 14.181638,-6.548203 3.700312,-1.875837 4.757911,-3.414979 5.463034,-4.687372 0.705122,-1.272393 1.057734,-2.277968 1.45717,-2.497625 0.399436,-0.219656 0.845671,0.346602 1.381799,0.849399 z"
     id="path34" />
  <path
     style="opacity:0.716273;mix-blend-mode:overlay;fill:url(#linearGradient40);stroke:none;stroke-width:3;stroke-linecap:round;stroke-linejoin:round;stroke-dasharray:none;paint-order:markers stroke fill"
     d="m 45.087383,29.865538 c -0.860557,0.304123 -2.581672,0.91237 -3.374543,1.476288 -0.792872,0.563918 -0.657505,1.083488 0.75196,1.876371 1.409466,0.792883 4.092923,1.859029 5.930076,2.382442 1.837153,0.523414 2.827912,0.504074 3.787432,-0.143775 0.959519,-0.647848 1.887742,-1.924155 2.226161,-2.697692 0.338419,-0.773537 0.08703,-1.044269 -1.537427,-1.493436 -1.624452,-0.449168 -4.621838,-1.076741 -6.004528,-1.390533 -1.38269,-0.313793 -1.150634,-0.313793 -1.034603,-0.313793 0.11603,0 0.11603,4e-6 -0.744528,0.304128 z"
     id="path38" />
  <path
     style="opacity:0.853934;mix-blend-mode:overlay;fill:url(#linearGradient41);stroke:none;stroke-width:3;stroke-linecap:round;stroke-linejoin:round;stroke-dasharray:none;paint-order:markers stroke fill"
     d="m 39.385326,27.956934 c 0.194582,1.076694 1.369151,2.088771 3.161506,3.114259 1.792355,1.025487 4.202288,2.064266 5.848021,2.583685 1.645734,0.519418 2.527101,0.519418 3.374587,0.391204 0.847486,-0.128213 1.661056,-0.384635 1.794365,-0.798261 0.133309,-0.413626 -0.413643,-0.984417 -2.660762,-2.452315 -2.247119,-1.467898 -6.19422,-3.832779 -8.560539,-4.444627 -2.366318,-0.611848 -3.15176,0.529361 -2.957178,1.606055 z"
     id="path38-6"
     transform="translate(21.513897,7.29342)" />
  <path
     style="opacity:1;mix-blend-mode:overlay;fill:url(#linearGradient42);stroke:none;stroke-width:3;stroke-linecap:round;stroke-linejoin:round;stroke-dasharray:none;paint-order:markers stroke fill"
     d="m 37.829068,22.609894 c 1.064825,1.279751 3.713651,3.355396 6.37855,5.850628 2.664899,2.495233 5.345558,5.40976 6.614187,6.431985 1.268629,1.022225 1.125083,0.152016 1.053309,-0.402871 -0.07178,-0.554887 -0.07178,-0.794429 -1.112837,-2.545061 -1.041061,-1.750633 -3.123075,-5.012177 -5.456532,-7.194379 -2.333456,-2.182203 -4.918137,-3.284839 -6.470164,-3.594305 -1.552027,-0.309466 -2.071338,0.174253 -1.006513,1.454003 z"
     id="path41"
     transform="translate(38.851515,20.08513)" />
  <path
     style="opacity:0.310457;mix-blend-mode:overlay;fill:url(#linearGradient44);stroke:none;stroke-width:3;stroke-linecap:round;stroke-linejoin:round;stroke-dasharray:none;paint-order:markers stroke fill;filter:url(#filter44)"
     d="m 40.312358,30.05463 c 10e-7,0.98967 0.224636,2.968894 -1.693688,5.220215 -1.918324,2.251321 -5.979383,4.774473 -6.179104,5.462997 -0.199721,0.688525 3.461986,-0.457677 6.291089,-1.361897 2.829104,-0.90422 4.825492,-1.566422 7.312684,-3.064051 2.487192,-1.497628 5.465078,-3.830617 7.796908,-6.059435 2.331831,-2.228817 4.017546,-4.353407 4.142732,-5.235113 0.125187,-0.881706 -1.31015,-0.520493 -4.440494,0.361272 -3.130345,0.881765 -7.955555,2.284042 -10.480521,2.985192 -2.524966,0.70115 -2.749606,0.70115 -2.749606,1.69082 z"
     id="path42"
     transform="translate(24.865043,65.496649)" />
  <path
     style="opacity:0.310457;mix-blend-mode:overlay;fill:url(#linearGradient46);stroke:none;stroke-width:3;stroke-linecap:round;stroke-linejoin:round;stroke-dasharray:none;paint-order:markers stroke fill;filter:url(#filter44)"
     d="m 39.143185,30.047793 c -1.169174,0.982832 -3.282749,2.948383 -5.23526,4.806557 -1.95251,1.858174 -3.743725,3.608752 -2.774273,4.181043 0.969452,0.572291 4.699528,-0.03378 6.652004,-0.218739 1.952475,-0.184958 2.127263,0.05121 3.547968,-0.676296 1.420705,-0.727504 4.087265,-2.418647 5.708969,-4.49502 1.621704,-2.076374 2.198514,-4.53795 1.871796,-5.608641 -0.326719,-1.070691 -1.556958,-0.750497 -3.06635,-0.347301 -1.509393,0.403195 -3.29788,0.889376 -4.304461,1.13247 -1.00658,0.243094 -1.23122,0.243094 -2.400393,1.225927 z"
     id="path44"
     transform="translate(16.3409,67.263466)" />
  <path
     style="opacity:1;mix-blend-mode:overlay;fill:url(#linearGradient51);stroke:none;stroke-width:3;stroke-linecap:round;stroke-linejoin:round;stroke-dasharray:none;paint-order:markers stroke fill"
     d="m 77.178329,78.053536 c 0.668813,1.312797 2.395189,3.473113 2.835302,5.213347 0.440112,1.740235 -0.406058,3.060309 -1.341668,4.310662 -0.93561,1.250353 -1.960641,2.430961 -1.960641,3.021269 0,0.590308 1.025028,0.590308 2.932747,0.132272 1.907719,-0.458037 4.698087,-1.3741 5.997557,-2.878779 1.29947,-1.504679 1.108039,-3.597842 0.654037,-5.306437 -0.454002,-1.708595 -1.170533,-3.032442 -2.046924,-3.858308 -0.876391,-0.825866 -1.91259,-1.153715 -3.099524,-1.550274 -1.186935,-0.396559 -2.524535,-0.861804 -3.387736,-0.861798 -0.863202,5e-6 -1.251963,0.465248 -0.58315,1.778046 z"
     id="path49" />
  <path
     style="opacity:1;fill:url(#radialGradient67);fill-opacity:1;stroke:#29437e;stroke-width:3;stroke-linecap:round;stroke-linejoin:round;stroke-dasharray:none;stroke-opacity:1;paint-order:markers stroke fill"
     d="m 47.322017,66.469995 c -0.928241,2.721358 -1.61528,7.443851 -1.784751,10.197223 -0.169472,2.753372 0.178612,3.537592 1.164885,3.833015 0.986274,0.295424 2.610663,0.102044 3.085257,-1.112207 0.474594,-1.214251 -0.200596,-3.449222 -0.231679,-4.726333 -0.03108,-1.277111 0.581944,-1.596179 1.159209,-1.755724 0.577264,-0.159545 1.118687,-0.159545 1.667268,0.822127 0.548581,0.981673 1.104265,2.944939 1.593818,3.926592 0.489553,0.981653 0.912947,0.981653 1.650689,0.851632 0.737741,-0.130022 1.78978,-0.390053 2.240229,-0.732798 0.450449,-0.342745 0.299293,-0.768179 -1.013966,-3.359567 -1.31326,-2.591387 -3.788521,-7.348529 -5.610909,-9.367028 -1.822387,-2.018499 -2.991809,-1.298289 -3.92005,1.423068 z"
     id="path53"
     transform="matrix(0.95378762,0.30048156,-0.16582737,0.99620912,7.624354,-10.528928)" />
  <path
     style="opacity:1;fill:url(#radialGradient66);fill-opacity:1;stroke:#29437e;stroke-width:3;stroke-linecap:round;stroke-linejoin:round;stroke-dasharray:none;stroke-opacity:1;paint-order:markers stroke fill"
     d="m 34.281431,71.77632 c 0.724737,2.283605 2.17421,6.850816 3.090391,9.216534 0.916182,2.365718 1.299053,2.529935 2.98102,2.106022 1.681967,-0.423913 4.662903,-1.43592 6.208098,-2.105247 1.545195,-0.669326 1.654586,-0.995938 1.501928,-1.570103 -0.152658,-0.574164 -0.567351,-1.395841 -0.922886,-1.806687 -0.355535,-0.410847 -0.651889,-0.410847 -1.743614,-0.110171 -1.091725,0.300677 -2.978739,0.902006 -3.911601,1.011233 -0.932862,0.109227 -0.911536,-0.273646 -1.40382,-2.174406 -0.492285,-1.900761 -1.498139,-5.319262 -2.165172,-6.97385 -0.667032,-1.654588 -0.995211,-1.545195 -1.583213,-1.367427 -0.588002,0.177769 -1.435789,0.423901 -1.94174,0.683715 -0.505951,0.259814 -0.670038,0.533294 -0.752084,0.670037 -0.08205,0.136744 -0.08204,0.136744 0.642693,2.42035 z"
     id="path52"
     transform="matrix(0.9184666,-0.2009614,0.37271597,1.0072206,-31.323236,16.340002)" />
  <path
     style="opacity:1;fill:url(#radialGradient69);fill-opacity:1;stroke:#29437e;stroke-width:3;stroke-linecap:round;stroke-linejoin:round;stroke-dasharray:none;stroke-opacity:1;paint-order:markers stroke fill"
     d="m 24.551542,76.989358 c -1.498355,1.150658 -1.593811,1.593387 -1.689268,2.036118 3.072533,4.616754 6.145066,9.23351 8.009521,11.221761 1.864455,1.98825 2.520807,1.348025 4.218792,0.372673 1.697985,-0.975351 4.437424,-2.285736 4.88481,-4.141862 0.447386,-1.856125 -1.397336,-4.257769 -3.409841,-4.813897 -2.012506,-0.556127 -4.1926,0.733354 -4.336845,0.580228 -0.144246,-0.153127 1.747285,-1.74879 2.023887,-3.67641 0.276602,-1.927619 -1.061758,-4.18696 -3.181632,-4.387388 -2.119874,-0.200428 -5.021069,1.658119 -6.519424,2.808777 z"
     id="path51"
     transform="matrix(0.74986543,-0.40447928,0.07431808,1.135823,-5.7700618,12.739828)" />
  <path
     style="opacity:1;fill:#29437e;fill-opacity:1;stroke:none;stroke-width:1;stroke-linecap:round;stroke-linejoin:round;stroke-dasharray:none;stroke-opacity:1;paint-order:markers stroke fill"
     d="m 49.81563,68.129037 c -0.201115,0.406105 -0.201115,1.06361 0.162232,1.334345 0.363347,0.270735 1.090009,0.154707 1.291121,-0.251404 0.201111,-0.406112 -0.12333,-1.10228 -0.486672,-1.373016 -0.363343,-0.270735 -0.765566,-0.11603 -0.966681,0.290075 z"
     id="path54"
     transform="matrix(1.7472297,0,0,1.5477563,-44.68389,-32.509843)" />
  <path
     style="opacity:1;fill:url(#radialGradient68);fill-opacity:1;stroke:#29437e;stroke-width:3;stroke-linecap:round;stroke-linejoin:round;stroke-dasharray:none;stroke-opacity:1;paint-order:markers stroke fill"
     d="m 58.102035,77.990679 c -1.791332,1.795553 -5.373995,5.386662 -6.349178,7.46704 -0.975183,2.080378 0.657047,2.650004 2.210924,1.96627 1.553877,-0.683734 3.02931,-2.620761 3.892204,-3.602967 0.862893,-0.982206 1.113208,-1.009552 1.528447,-1.023226 0.41524,-0.01367 0.995378,-0.01367 1.312802,0.0547 0.317424,0.06837 0.372119,0.205111 -0.120165,0.970886 -0.492285,0.765774 -1.53151,2.160522 -1.974091,2.939959 -0.442581,0.779436 -0.288504,0.943523 0.2995,1.120565 0.588004,0.177042 1.609894,0.367028 2.982345,-0.584623 1.372451,-0.95165 3.095377,-3.044857 4.613235,-4.917361 1.517858,-1.872503 2.830563,-3.524198 2.871574,-4.350061 0.04101,-0.825864 -1.189651,-0.825864 -1.94174,-0.825864 -0.752089,0 -1.025567,0 -1.76399,0.669889 -0.738424,0.669889 -1.941737,2.009616 -2.598103,2.665817 -0.656367,0.6562 -0.765759,0.628851 -1.18967,0.560478 -0.42391,-0.06837 -1.162306,-0.177766 -1.545188,-0.205114 -0.382881,-0.02735 -0.41023,0.02735 0.259823,-0.68373 0.670053,-0.711077 2.037453,-2.187871 2.557073,-3.113852 0.51962,-0.925981 0.191444,-1.301105 -0.492281,-1.360023 -0.683726,-0.05892 -1.722951,0.19837 -2.242573,0.327017 -0.519622,0.128646 -0.519617,0.128646 -2.310948,1.9242 z"
     id="path55" />
  <path
     style="opacity:1;fill:url(#linearGradient73);stroke:none;stroke-width:3;stroke-linecap:round;stroke-linejoin:round;stroke-dasharray:none;stroke-opacity:1;paint-order:markers stroke fill"
     d="m 22.150109,84.921941 c 0.503381,-0.227181 1.151273,-0.382964 1.799166,-0.538747 -0.471229,0.377009 -0.942448,0.75401 -1.445839,1.430311 -0.50339,0.676302 -1.038915,1.651857 -1.546969,2.855641 -0.508054,1.203784 -0.988636,2.635795 -1.104668,3.767117 -0.116033,1.131322 0.132492,1.961885 0.358748,2.81914 0.226256,0.857255 0.47235,1.923661 0.259379,2.023437 -0.212971,0.09977 -0.884972,-0.767054 -1.687106,-1.685154 -0.802133,-0.9181 -1.734308,-1.887367 -1.398287,-3.53717 0.33602,-1.649803 1.940192,-3.979947 2.921764,-5.294384 0.981573,-1.314436 1.340432,-1.613009 1.843812,-1.840191 z"
     id="path71" />
  <path
     style="opacity:1;fill:url(#linearGradient75);stroke:none;stroke-width:3;stroke-linecap:round;stroke-linejoin:round;stroke-dasharray:none;stroke-opacity:1;paint-order:markers stroke fill"
     d="m 27.208134,77.305969 c 0.75326,-0.275572 1.23518,-0.0092 1.19513,0.542856 -0.04005,0.5521 -0.602064,1.389933 -0.843028,1.869703 -0.240963,0.479771 -0.160866,0.601459 0.782676,2.034942 0.943541,1.433482 2.750462,4.17866 3.57699,5.686595 0.826528,1.507936 0.672632,1.77857 -0.183888,0.749906 -0.85652,-1.028665 -2.415567,-3.356504 -3.754418,-5.068668 -1.33885,-1.712165 -2.457349,-2.808456 -2.504324,-3.765379 -0.04697,-0.956924 0.977601,-1.774384 1.730862,-2.049955 z"
     id="path73" />
  <path
     style="opacity:1;fill:url(#linearGradient77);fill-opacity:1;stroke:none;stroke-width:3;stroke-linecap:round;stroke-linejoin:round;stroke-dasharray:none;stroke-opacity:1;paint-order:markers stroke fill"
     d="m 45.400756,73.629701 c 0,0.616138 -0.199092,1.107924 -0.538891,1.449357 -0.339799,0.341432 -0.820284,0.532502 -1.060532,0.70685 -0.240249,0.174347 -0.240249,0.331962 4e-6,0.471177 0.240254,0.139216 0.72074,0.260021 1.244254,0.181209 0.523514,-0.07881 1.090024,-0.357233 1.344276,-0.837883 0.254252,-0.480649 0.196238,-1.163497 -0.08703,-1.87518 -0.283266,-0.711683 -0.791762,-1.452156 -0.946467,-1.452148 -0.154705,7e-6 0.04438,0.740481 0.04438,1.356618 z"
     id="path75"
     transform="translate(-0.08378325,0.13813705)" />
  <path
     style="opacity:1;fill:url(#linearGradient79);fill-opacity:1;stroke:none;stroke-width:3;stroke-linecap:round;stroke-linejoin:round;stroke-dasharray:none;stroke-opacity:1;paint-order:markers stroke fill"
     d="m 43.54527,68.344073 c -0.480497,-0.109394 -0.953084,0.02735 -1.372173,0.505957 -0.419089,0.478608 -0.784663,1.299049 -1.377691,2.857939 -0.593027,1.558891 -1.413468,3.856125 -2.001466,5.7788 -0.587998,1.922676 -0.943522,3.470684 -0.779424,4.244703 0.164099,0.774019 0.847801,0.774019 1.364416,-0.110876 0.516614,-0.884895 0.866118,-2.654616 1.295051,-4.645669 0.428933,-1.991053 0.937268,-4.203314 1.671947,-5.541935 0.734679,-1.338621 1.695651,-1.803537 1.931939,-2.213769 0.236289,-0.410232 -0.252102,-0.765755 -0.732599,-0.87515 z"
     id="path77" />
  <path
     style="opacity:1;fill:url(#linearGradient81);stroke:none;stroke-width:3;stroke-linecap:round;stroke-linejoin:round;stroke-dasharray:none;stroke-opacity:1;paint-order:markers stroke fill"
     d="m 61.219771,76.602131 c -0.273486,0.406841 -0.820458,1.220526 -1.360597,1.867417 -0.540138,0.646891 -1.073425,1.126971 -1.264864,1.537948 -0.191439,0.410976 -0.04102,0.752827 0.844881,0.985291 0.885906,0.232464 2.507236,0.35553 3.197785,0.335017 0.690549,-0.02051 0.450295,-0.184601 0.972869,-0.847816 0.522574,-0.663215 1.807931,-1.825505 2.724113,-2.454359 0.916181,-0.628855 1.463144,-0.724245 1.524674,-0.423404 0.06153,0.300841 -0.362365,0.997888 -1.360603,2.187404 -0.998238,1.189515 -2.570749,2.871418 -3.680544,4.163647 -1.109794,1.292229 -1.756817,2.194715 -2.35849,2.707502 -0.601673,0.512786 -1.157956,0.635851 -1.057278,0.108736 0.100677,-0.527115 0.858321,-1.704377 1.459988,-2.523408 0.601666,-0.819031 1.047348,-1.279821 0.771077,-1.567604 -0.27627,-0.287783 -1.274492,-0.402556 -2.146196,-0.554397 -0.871703,-0.151842 -1.616859,-0.340744 -2.503188,0.107495 -0.886328,0.44824 -1.913768,1.533579 -2.59899,2.456602 -0.685222,0.923022 -1.028187,1.683671 -1.422055,2.043493 -0.393868,0.359822 -0.838614,0.3188 -1.168752,0.250428 -0.330137,-0.06837 -0.545654,-0.164092 -0.448169,-0.649538 0.09748,-0.485446 0.507957,-1.360582 1.984805,-3.115112 1.476849,-1.75453 4.019963,-4.38833 5.378259,-5.866239 1.358295,-1.477908 1.531715,-1.799861 1.757344,-1.948458 0.225628,-0.148597 0.503451,-0.123831 0.683389,0.03715 0.179938,0.160985 0.261982,0.458172 0.303005,0.606769 0.04102,0.148596 0.04102,0.148591 -0.232463,0.555433 z"
     id="path79" />
  <path
     style="opacity:1;fill:url(#linearGradient83);fill-opacity:1;stroke:none;stroke-width:3;stroke-linecap:round;stroke-linejoin:round;stroke-dasharray:none;stroke-opacity:1;paint-order:markers stroke fill"
     d="m 23.949275,89.100303 c 0,0.295631 0,0.886893 -0.272146,1.592762 -0.272146,0.705868 -0.816416,1.526309 -0.81641,1.786117 6e-6,0.259808 0.544275,-0.04102 0.975018,-0.546976 0.430743,-0.505955 0.747936,-1.217004 0.899699,-1.900724 0.151762,-0.683721 0.138089,-1.340075 -0.02051,-1.539983 -0.158602,-0.199909 -0.462121,0.05663 -0.613883,0.184902 -0.151762,0.128271 -0.151765,0.128271 -0.151765,0.423902 z"
     id="path81" />
  <path
     style="opacity:1;fill:url(#linearGradient85);fill-opacity:1;stroke:none;stroke-width:3;stroke-linecap:round;stroke-linejoin:round;stroke-dasharray:none;stroke-opacity:1;paint-order:markers stroke fill"
     d="m 27.661924,94.762314 c 0.259811,-0.479076 0.615919,-0.671468 0.917044,-0.41165 0.301125,0.259818 0.547258,0.97182 0.191717,2.059416 -0.355541,1.087597 -1.312723,2.550716 -1.907556,3.172892 -0.594833,0.622178 -0.827292,0.403394 -0.731568,-0.205122 0.09572,-0.608515 0.519618,-1.606716 0.813328,-2.488715 0.293711,-0.881999 0.457223,-1.647746 0.717035,-2.126821 z"
     id="path83" />
</svg>
