<?xml version="1.0" encoding="UTF-8" standalone="no"?>
<!-- Created with Inkscape (http://www.inkscape.org/) -->

<svg
   version="1.1"
   id="svg55"
   width="2282.6084"
   height="1285.5377"
   viewBox="0 0 2282.6084 1285.5377"
   xmlns:xlink="http://www.w3.org/1999/xlink"
   xmlns="http://www.w3.org/2000/svg"
   xmlns:svg="http://www.w3.org/2000/svg">
  <defs
     id="defs59">
    <linearGradient
       id="linearGradient37">
      <stop
         style="stop-color:#928cd6;stop-opacity:1;"
         offset="0"
         id="stop37" />
      <stop
         style="stop-color:#3741af;stop-opacity:1;"
         offset="0.58834916"
         id="stop36" />
      <stop
         style="stop-color:#4745ac;stop-opacity:1;"
         offset="1"
         id="stop35" />
    </linearGradient>
    <linearGradient
       id="linearGradient26">
      <stop
         style="stop-color:#4f5297;stop-opacity:1;"
         offset="0"
         id="stop26" />
      <stop
         style="stop-color:#396cbb;stop-opacity:0;"
         offset="1"
         id="stop31" />
    </linearGradient>
    <linearGradient
       id="linearGradient15">
      <stop
         style="stop-color:#251145;stop-opacity:1;"
         offset="0"
         id="stop21" />
      <stop
         style="stop-color:#251145;stop-opacity:0;"
         offset="1"
         id="stop22" />
    </linearGradient>
    <linearGradient
       id="linearGradient13">
      <stop
         style="stop-color:#d0dadd;stop-opacity:1;"
         offset="0"
         id="stop14" />
      <stop
         style="stop-color:#495f66;stop-opacity:1;"
         offset="1"
         id="stop15" />
    </linearGradient>
    <linearGradient
       id="linearGradient49">
      <stop
         style="stop-color:#313060;stop-opacity:1"
         offset="0"
         id="stop47" />
      <stop
         style="stop-color:#505696;stop-opacity:1;"
         offset="0.41165084"
         id="stop48" />
      <stop
         style="stop-color:#7d8abf;stop-opacity:1;"
         offset="1"
         id="stop49" />
    </linearGradient>
    <linearGradient
       id="linearGradient46">
      <stop
         style="stop-color:#be72d8;stop-opacity:1;"
         offset="0"
         id="stop45" />
      <stop
         style="stop-color:#6167dd;stop-opacity:1;"
         offset="1"
         id="stop46" />
    </linearGradient>
    <linearGradient
       id="linearGradient43">
      <stop
         style="stop-color:#313060;stop-opacity:1"
         offset="0"
         id="stop41" />
      <stop
         style="stop-color:#3741af;stop-opacity:1;"
         offset="0.41165084"
         id="stop42" />
      <stop
         style="stop-color:#686fa4;stop-opacity:0.90355585"
         offset="1"
         id="stop43" />
    </linearGradient>
    <linearGradient
       id="linearGradient25">
      <stop
         style="stop-color:#313060;stop-opacity:1"
         offset="0"
         id="stop23" />
      <stop
         style="stop-color:#3741af;stop-opacity:1;"
         offset="0.41165084"
         id="stop24" />
      <stop
         style="stop-color:#686fa4;stop-opacity:1;"
         offset="1"
         id="stop25" />
    </linearGradient>
    <linearGradient
       id="linearGradient4">
      <stop
         style="stop-color:#47407e;stop-opacity:1;"
         offset="0"
         id="stop4" />
      <stop
         style="stop-color:#464464;stop-opacity:1;"
         offset="0.40482804"
         id="stop39" />
      <stop
         style="stop-color:#0144aa;stop-opacity:1;"
         offset="1"
         id="stop5" />
    </linearGradient>
    <linearGradient
       id="linearGradient1">
      <stop
         style="stop-color:#b995c6;stop-opacity:1;"
         offset="0"
         id="stop1" />
      <stop
         style="stop-color:#7176e0;stop-opacity:1;"
         offset="1"
         id="stop2" />
    </linearGradient>
    <linearGradient
       id="linearGradient16">
      <stop
         style="stop-color:#bbabb9;stop-opacity:1;"
         offset="0"
         id="stop16" />
      <stop
         style="stop-color:#8f7aac;stop-opacity:1;"
         offset="1"
         id="stop17" />
    </linearGradient>
    <pattern
       xlink:href="#Polkadots-med"
       preserveAspectRatio="xMidYMid"
       id="pattern7"
       patternTransform="matrix(19.318517,5.1763809,-5.1763809,19.318517,0,0)"
       x="0"
       y="0" />
    <pattern
       patternUnits="userSpaceOnUse"
       width="10"
       height="10"
       patternTransform="translate(0,0) scale(10,10)"
       preserveAspectRatio="xMidYMid"
       id="Polkadots-med">
      <circle
         style="stroke:none"
         cx="2.567"
         cy="0.810"
         r="0.15"
         id="circle406" />
      <circle
         style="stroke:none"
         cx="3.048"
         cy="2.33"
         r="0.15"
         id="circle408" />
      <circle
         style="stroke:none"
         cx="4.418"
         cy="2.415"
         r="0.15"
         id="circle410" />
      <circle
         style="stroke:none"
         cx="1.844"
         cy="3.029"
         r="0.15"
         id="circle412" />
      <circle
         style="stroke:none"
         cx="6.08"
         cy="1.363"
         r="0.15"
         id="circle414" />
      <circle
         style="stroke:none"
         cx="5.819"
         cy="4.413"
         r="0.15"
         id="circle416" />
      <circle
         style="stroke:none"
         cx="4.305"
         cy="4.048"
         r="0.15"
         id="circle418" />
      <circle
         style="stroke:none"
         cx="5.541"
         cy="3.045"
         r="0.15"
         id="circle420" />
      <circle
         style="stroke:none"
         cx="4.785"
         cy="5.527"
         r="0.15"
         id="circle422" />
      <circle
         style="stroke:none"
         cx="2.667"
         cy="5.184"
         r="0.15"
         id="circle424" />
      <circle
         style="stroke:none"
         cx="7.965"
         cy="1.448"
         r="0.15"
         id="circle426" />
      <circle
         style="stroke:none"
         cx="7.047"
         cy="5.049"
         r="0.15"
         id="circle428" />
      <circle
         style="stroke:none"
         cx="4.340"
         cy="0.895"
         r="0.15"
         id="circle430" />
      <circle
         style="stroke:none"
         cx="7.125"
         cy="0.340"
         r="0.15"
         id="circle432" />
      <circle
         style="stroke:none"
         cx="9.550"
         cy="1.049"
         r="0.15"
         id="circle434" />
      <circle
         style="stroke:none"
         cx="7.006"
         cy="2.689"
         r="0.15"
         id="circle436" />
      <circle
         style="stroke:none"
         cx="8.909"
         cy="2.689"
         r="0.15"
         id="circle438" />
      <circle
         style="stroke:none"
         cx="9.315"
         cy="4.407"
         r="0.15"
         id="circle440" />
      <circle
         style="stroke:none"
         cx="7.820"
         cy="3.870"
         r="0.15"
         id="circle442" />
      <circle
         style="stroke:none"
         cx="8.270"
         cy="5.948"
         r="0.15"
         id="circle444" />
      <circle
         style="stroke:none"
         cx="7.973"
         cy="7.428"
         r="0.15"
         id="circle446" />
      <circle
         style="stroke:none"
         cx="9.342"
         cy="8.072"
         r="0.15"
         id="circle448" />
      <circle
         style="stroke:none"
         cx="8.206"
         cy="9.315"
         r="0.15"
         id="circle450" />
      <circle
         style="stroke:none"
         cx="9.682"
         cy="9.475"
         r="0.15"
         id="circle452" />
      <circle
         style="stroke:none"
         cx="9.688"
         cy="6.186"
         r="0.15"
         id="circle454" />
      <circle
         style="stroke:none"
         cx="3.379"
         cy="6.296"
         r="0.15"
         id="circle456" />
      <circle
         style="stroke:none"
         cx="2.871"
         cy="8.204"
         r="0.15"
         id="circle458" />
      <circle
         style="stroke:none"
         cx="4.59"
         cy="8.719"
         r="0.15"
         id="circle460" />
      <circle
         style="stroke:none"
         cx="3.181"
         cy="9.671"
         r="0.15"
         id="circle462" />
      <circle
         style="stroke:none"
         cx="5.734"
         cy="7.315"
         r="0.15"
         id="circle464" />
      <circle
         style="stroke:none"
         cx="6.707"
         cy="6.513"
         r="0.15"
         id="circle466" />
      <circle
         style="stroke:none"
         cx="5.730"
         cy="9.670"
         r="0.15"
         id="circle468" />
      <circle
         style="stroke:none"
         cx="6.535"
         cy="8.373"
         r="0.15"
         id="circle470" />
      <circle
         style="stroke:none"
         cx="4.37"
         cy="7.154"
         r="0.15"
         id="circle472" />
      <circle
         style="stroke:none"
         cx="0.622"
         cy="7.25"
         r="0.15"
         id="circle474" />
      <circle
         style="stroke:none"
         cx="0.831"
         cy="5.679"
         r="0.15"
         id="circle476" />
      <circle
         style="stroke:none"
         cx="1.257"
         cy="8.519"
         r="0.15"
         id="circle478" />
      <circle
         style="stroke:none"
         cx="1.989"
         cy="6.877"
         r="0.15"
         id="circle480" />
      <circle
         style="stroke:none"
         cx="0.374"
         cy="3.181"
         r="0.15"
         id="circle482" />
      <circle
         style="stroke:none"
         cx="1.166"
         cy="1.664"
         r="0.15"
         id="circle484" />
      <circle
         style="stroke:none"
         cx="1.151"
         cy="0.093"
         r="0.15"
         id="circle486" />
      <circle
         style="stroke:none"
         cx="1.151"
         cy="10.093"
         r="0.15"
         id="circle488" />
      <circle
         style="stroke:none"
         cx="1.302"
         cy="4.451"
         r="0.15"
         id="circle490" />
      <circle
         style="stroke:none"
         cx="3.047"
         cy="3.763"
         r="0.15"
         id="circle492" />
    </pattern>
    <linearGradient
       id="linearGradient89">
      <stop
         style="stop-color:#313060;stop-opacity:1"
         offset="0"
         id="stop87" />
      <stop
         style="stop-color:#505696;stop-opacity:1;"
         offset="0.41165084"
         id="stop88" />
      <stop
         style="stop-color:#7f87c1;stop-opacity:1;"
         offset="1"
         id="stop89" />
    </linearGradient>
    <linearGradient
       id="linearGradient76">
      <stop
         style="stop-color:#5257a3;stop-opacity:1;"
         offset="0"
         id="stop76" />
      <stop
         style="stop-color:#415280;stop-opacity:1;"
         offset="1"
         id="stop77" />
    </linearGradient>
    <linearGradient
       id="linearGradient32">
      <stop
         style="stop-color:#313060;stop-opacity:1"
         offset="0"
         id="stop32" />
      <stop
         style="stop-color:#505696;stop-opacity:1;"
         offset="0.41165084"
         id="stop34" />
      <stop
         style="stop-color:#a79fd9;stop-opacity:1;"
         offset="1"
         id="stop33" />
    </linearGradient>
    <linearGradient
       id="linearGradient17">
      <stop
         style="stop-color:#484d87;stop-opacity:1;"
         offset="0"
         id="stop18" />
      <stop
         style="stop-color:#484d87;stop-opacity:1;"
         offset="0.24076192"
         id="stop20" />
      <stop
         style="stop-color:#484d87;stop-opacity:0;"
         offset="1"
         id="stop19" />
    </linearGradient>
    <linearGradient
       id="linearGradient8">
      <stop
         style="stop-color:#ffffff;stop-opacity:0;"
         offset="0"
         id="stop8" />
      <stop
         style="stop-color:#ffffff;stop-opacity:0.1254902;"
         offset="0.25281081"
         id="stop12" />
      <stop
         style="stop-color:#6a4a18;stop-opacity:1;"
         offset="0.55114341"
         id="stop13" />
      <stop
         style="stop-color:#916d51;stop-opacity:1;"
         offset="0.59112269"
         id="stop11" />
      <stop
         style="stop-color:#4d411b;stop-opacity:1;"
         offset="0.75902051"
         id="stop10" />
      <stop
         style="stop-color:#4a4253;stop-opacity:1;"
         offset="1"
         id="stop9" />
    </linearGradient>
    <radialGradient
       xlink:href="#linearGradient8"
       id="radialGradient9"
       cx="3369.1135"
       cy="4004.8716"
       fx="3369.1135"
       fy="4004.8716"
       r="44.88393"
       gradientTransform="matrix(0.13174182,0.92163065,-0.70748568,0.10113103,5758.6496,502.29645)"
       gradientUnits="userSpaceOnUse" />
    <radialGradient
       xlink:href="#linearGradient17"
       id="radialGradient19"
       cx="3261.9514"
       cy="3982.0657"
       fx="3261.9514"
       fy="3982.0657"
       r="78.152016"
       gradientTransform="matrix(0.48425652,0.87492607,-0.98141102,0.5431941,5633.9632,-1031.7776)"
       gradientUnits="userSpaceOnUse" />
    <filter
       style="color-interpolation-filters:sRGB"
       id="filter20"
       x="-0.013054532"
       y="-0.02753105"
       width="1.0261091"
       height="1.0550621">
      <feGaussianBlur
         stdDeviation="0.85719623"
         id="feGaussianBlur20" />
    </filter>
    <filter
       style="color-interpolation-filters:sRGB"
       id="filter31"
       x="-0.022390304"
       y="-0.092184152"
       width="1.0447806"
       height="1.1843683">
      <feGaussianBlur
         stdDeviation="14.960303"
         id="feGaussianBlur31" />
    </filter>
    <radialGradient
       xlink:href="#linearGradient32"
       id="radialGradient33"
       cx="3274.3225"
       cy="3894.5198"
       fx="3274.3225"
       fy="3894.5198"
       r="91.259033"
       gradientTransform="matrix(-0.18019265,1.0721595,-2.7636875,-0.46448555,14764.129,2255.862)"
       gradientUnits="userSpaceOnUse" />
    <filter
       style="color-interpolation-filters:sRGB"
       id="filter33"
       x="-0.0097986141"
       y="-0.017656399"
       width="1.0195972"
       height="1.0353128">
      <feGaussianBlur
         stdDeviation="0.7749537"
         id="feGaussianBlur33" />
    </filter>
    <filter
       style="color-interpolation-filters:sRGB"
       id="filter65"
       x="-0.018353004"
       y="-0.056470874"
       width="1.036706"
       height="1.1129417">
      <feGaussianBlur
         stdDeviation="8.3091045"
         id="feGaussianBlur65" />
    </filter>
    <linearGradient
       xlink:href="#linearGradient76"
       id="linearGradient77"
       x1="3665.2646"
       y1="3674.3315"
       x2="4058.7798"
       y2="4554.5713"
       gradientUnits="userSpaceOnUse" />
    <filter
       style="color-interpolation-filters:sRGB"
       id="filter78"
       x="-0.0059201013"
       y="-0.0082281643"
       width="1.0118402"
       height="1.0164563">
      <feGaussianBlur
         stdDeviation="0.94984101"
         id="feGaussianBlur78" />
    </filter>
    <linearGradient
       xlink:href="#linearGradient89"
       id="linearGradient82"
       x1="3525.5081"
       y1="4110.1011"
       x2="2632.033"
       y2="4047.5361"
       gradientUnits="userSpaceOnUse" />
    <linearGradient
       xlink:href="#linearGradient49"
       id="linearGradient84"
       x1="3354.0203"
       y1="4123.959"
       x2="2634.3511"
       y2="3979.7666"
       gradientUnits="userSpaceOnUse" />
    <radialGradient
       xlink:href="#linearGradient16"
       id="radialGradient17"
       cx="3064.8064"
       cy="4142.5332"
       fx="3064.8064"
       fy="4142.5332"
       r="49.645679"
       gradientTransform="matrix(0.15250938,0.92153188,-1.0807577,0.17886053,4486.5968,-2790.9422)"
       gradientUnits="userSpaceOnUse" />
    <radialGradient
       xlink:href="#linearGradient16"
       id="radialGradient22"
       cx="3502.9709"
       cy="3996.2075"
       fx="3502.9709"
       fy="3996.2075"
       r="73.329887"
       gradientTransform="matrix(0.61194412,2.3006448,-1.275038,0.4409505,6454.6649,-5838.4163)"
       gradientUnits="userSpaceOnUse" />
    <linearGradient
       xlink:href="#linearGradient16"
       id="linearGradient24"
       x1="3645.2004"
       y1="3954.3999"
       x2="3599.6038"
       y2="3800.2607"
       gradientUnits="userSpaceOnUse" />
    <filter
       style="color-interpolation-filters:sRGB"
       id="filter36"
       x="-0.013194852"
       y="-0.007909692"
       width="1.0263897"
       height="1.0158194">
      <feGaussianBlur
         stdDeviation="1.1380254"
         id="feGaussianBlur36" />
    </filter>
    <filter
       style="color-interpolation-filters:sRGB"
       id="filter37"
       x="-0.0011650694"
       y="-0.0043619947"
       width="1.0023301"
       height="1.008724">
      <feGaussianBlur
         stdDeviation="0.27936667"
         id="feGaussianBlur37" />
    </filter>
    <filter
       style="color-interpolation-filters:sRGB"
       id="filter38"
       x="-0.0027364851"
       y="-0.0022012614"
       width="1.005473"
       height="1.0044025">
      <feGaussianBlur
         stdDeviation="0.18429096"
         id="feGaussianBlur38" />
    </filter>
    <filter
       style="color-interpolation-filters:sRGB"
       id="filter65-0"
       x="-0.026572446"
       y="-0.11942774"
       width="1.0531449"
       height="1.2388555">
      <feGaussianBlur
         stdDeviation="19.803477"
         id="feGaussianBlur65-4" />
    </filter>
    <linearGradient
       xlink:href="#linearGradient1"
       id="linearGradient2"
       x1="3625.521"
       y1="3670.8923"
       x2="3661.1138"
       y2="3783.0054"
       gradientUnits="userSpaceOnUse" />
    <linearGradient
       xlink:href="#linearGradient4"
       id="linearGradient5"
       x1="4082.106"
       y1="4358.4565"
       x2="4043.4858"
       y2="4141.3818"
       gradientUnits="userSpaceOnUse" />
    <radialGradient
       xlink:href="#linearGradient37"
       id="radialGradient23"
       cx="1588.1768"
       cy="592.60437"
       fx="1588.1768"
       fy="592.60437"
       r="194.67836"
       gradientTransform="matrix(-0.83640296,0.77265481,-1.3981916,-1.5135501,3470.9018,593.73012)"
       gradientUnits="userSpaceOnUse" />
    <linearGradient
       xlink:href="#linearGradient25"
       id="linearGradient35"
       x1="3364.8762"
       y1="4093.7053"
       x2="3415.5913"
       y2="4016.2141"
       gradientUnits="userSpaceOnUse" />
    <filter
       style="color-interpolation-filters:sRGB"
       id="filter39"
       x="-0.0028676235"
       y="-0.011448365"
       width="1.0057352"
       height="1.0228967">
      <feGaussianBlur
         stdDeviation="2.5139302"
         id="feGaussianBlur39" />
    </filter>
    <linearGradient
       xlink:href="#linearGradient43"
       id="linearGradient41"
       x1="222.2921"
       y1="637.00067"
       x2="229.5562"
       y2="590.35547"
       gradientUnits="userSpaceOnUse" />
    <filter
       style="color-interpolation-filters:sRGB"
       id="filter41"
       x="-0.00013761867"
       y="-0.00065474134"
       width="1.0002752"
       height="1.0013095">
      <feGaussianBlur
         stdDeviation="0.029645653"
         id="feGaussianBlur41" />
    </filter>
    <linearGradient
       xlink:href="#linearGradient46"
       id="linearGradient45"
       x1="3285.8896"
       y1="3919.437"
       x2="3262.0828"
       y2="3742.2942"
       gradientUnits="userSpaceOnUse" />
    <radialGradient
       xlink:href="#linearGradient13"
       id="radialGradient15"
       cx="3304.1357"
       cy="4027.0542"
       fx="3304.1357"
       fy="4027.0542"
       r="91.621712"
       gradientTransform="matrix(1.1490091,-0.04346106,0.01951734,0.51599321,-558.15919,2096.1581)"
       gradientUnits="userSpaceOnUse" />
    <radialGradient
       xlink:href="#linearGradient15"
       id="radialGradient24"
       cx="3357.877"
       cy="4075.3682"
       fx="3357.877"
       fy="4075.3682"
       r="91.621712"
       gradientTransform="matrix(1.9219334,-0.15804551,0.04231894,0.51462513,-3268.2041,2482.6717)"
       gradientUnits="userSpaceOnUse" />
    <linearGradient
       xlink:href="#linearGradient26"
       id="linearGradient31"
       x1="3376.1101"
       y1="3627.9575"
       x2="3481.0835"
       y2="3627.9575"
       gradientUnits="userSpaceOnUse" />
  </defs>
  <g
     id="layer3"
     transform="translate(-2587.8726,-3371.2504)">
    <path
       style="display:inline;opacity:1;fill:#113145;fill-opacity:1;stroke:none;stroke-width:7;stroke-linecap:round;stroke-linejoin:bevel;stroke-dasharray:none;stroke-opacity:1;paint-order:markers fill stroke"
       d="m 2712.983,4002.1406 c -103.1042,14.2716 -111.1039,40.9443 -105.8986,64.0617 5.2052,23.1175 23.6149,42.6776 78.6559,60.2324 55.041,17.5548 146.7092,33.1033 255.9816,43.2593 109.2723,10.156 236.1418,14.919 284.2057,-16.908 48.0638,-31.8269 17.3207,-100.2412 -97.1575,-133.514 -114.4782,-33.2729 -312.6829,-31.4031 -415.7871,-17.1314 z"
       id="path81" />
    <path
       style="opacity:1;fill:url(#linearGradient84);fill-opacity:1;stroke:#113145;stroke-width:2;stroke-linecap:round;stroke-linejoin:bevel;stroke-dasharray:none;stroke-opacity:1;paint-order:markers fill stroke"
       d="m 2623.4479,4003.9935 c -16.9415,25.1688 -18.6042,47.3471 -14.3413,49.0221 4.2629,1.675 -6.2655,11.7679 14.3413,0 15.8634,-9.0591 6.6961,-10.7902 30.6848,-14.7092 23.9888,-3.9189 76.226,-20.4461 115.6987,-20.8759 39.4727,-0.4298 79.0227,-2.0253 125.1291,6.4945 46.1063,8.5198 106.4066,22.3272 140.7453,34.7833 34.3388,12.4562 58.8034,21.5492 100.0434,39.8829 41.24,18.3337 99.2527,45.9068 157.0602,56.9486 57.8074,11.0417 115.4063,5.5516 74.9232,-33.7836 -40.4831,-39.3351 -179.0436,-112.5124 -307.1617,-153.1614 -128.1182,-40.6489 -245.784,-48.7675 -318.8019,-36.0475 -73.0179,12.7199 -101.3795,46.2775 -118.3211,71.4462 z"
       id="path79" />
    <path
       style="opacity:1;fill:url(#linearGradient82);stroke:#113145;stroke-width:2;stroke-linecap:round;stroke-linejoin:bevel;stroke-dasharray:none;stroke-opacity:1;paint-order:markers fill stroke"
       d="m 2623.8268,4101.1502 c -12.1243,-14.1811 -21.867,-23.0578 -25.1146,-27.8209 -3.2475,-4.7631 0,-5.4126 14.3159,-8.3925 14.3159,-2.9799 39.6985,-8.2899 78.6068,-10.8246 38.9083,-2.5347 78.4661,-6.3241 124.4481,-7.1331 45.9821,-0.809 98.3835,1.3624 132.5468,0 34.1633,-1.3625 62.9579,-2.2285 127.2031,10.1642 64.2453,12.3926 163.9349,38.0425 163.2853,61.9668 -0.6495,23.9243 -101.6399,46.1206 -214.0579,51.6981 -112.418,5.5774 -236.2565,-5.4641 -305.4301,-20.728 -69.1735,-15.2638 -83.6791,-34.7489 -95.8034,-48.93 z"
       id="path80" />
  </g>
  <path
     style="display:inline;fill:#756fa4;fill-opacity:1;stroke:#6c7f9d;stroke-width:7;stroke-linecap:round;stroke-linejoin:bevel;stroke-dasharray:none;stroke-opacity:1;paint-order:markers fill stroke"
     d="m 923.36987,823.39276 c 4.87642,49.27718 9.75273,98.55435 59.54711,146.47904 49.79432,47.9246 144.50282,94.4949 212.53042,120.1991 68.0277,25.7042 109.3709,30.5411 137.9333,38.5219 28.5624,7.9807 44.3425,19.1049 45.8732,14.6673 1.5307,-4.4377 -11.1879,-24.4365 -33.1661,-56.8538 -21.9781,-32.4173 -53.2145,-77.251 -82.5869,-107.70679 -29.3725,-30.45572 -56.8793,-46.53194 -85.5304,-68.79355 -28.6512,-22.26154 -58.4447,-50.70706 -88.2389,-79.15305"
     id="path35-7" />
  <g
     id="g1"
     style="display:inline"
     transform="translate(-2587.8726,-3371.2504)">
    <g
       id="g31"
       clip-path="none"
       style="display:inline">
      <g
         id="g30">
        <path
           style="opacity:1;fill:url(#linearGradient77);stroke:#113145;stroke-width:12;stroke-linejoin:bevel;stroke-opacity:1;paint-order:fill markers stroke"
           d="m 2619.7157,3962.9476 c 21.4329,-30.3123 61.2369,-75.0152 120.3313,-117.5753 59.0944,-42.56 137.4761,-82.9756 229.0263,-119.1057 91.5503,-36.1301 196.2634,-67.9727 331.2924,-85.7314 135.0291,-17.7588 300.3655,-21.4329 433.2507,-16.5338 132.8851,4.8991 233.3116,18.3709 300.6726,28.475 67.3609,10.1042 101.6529,16.8401 150.3369,39.8044 48.684,22.9642 111.7568,62.1551 180.6491,114.2071 68.8923,52.0521 143.5998,116.9619 199.9382,176.6684 56.3383,59.7066 94.3044,114.2063 132.4248,160.4406 38.1204,46.2343 76.3927,84.2004 81.9038,148.347 5.511,64.1466 -21.7389,154.4693 -44.856,226.7294 -23.1172,72.2601 -42.1003,126.4537 -68.1263,136.4043 -26.026,9.9507 -59.0932,-24.3413 -120.3311,-81.2924 -61.2378,-56.9512 -150.6419,-136.5576 -230.863,-186.1597 -80.2211,-49.6021 -151.2545,-69.1975 -227.1891,-72.2592 -75.9346,-3.0617 -156.7657,10.4101 -290.8764,30.6186 -134.1108,20.2084 -321.492,47.1521 -488.6703,50.2138 -167.1783,3.0616 -314.144,-17.7585 -411.5111,-42.2536 -97.3672,-24.495 -145.1311,-52.6635 -175.7497,-72.2594 -30.6186,-19.5959 -44.0904,-30.6183 -59.3998,-52.0516 -15.3094,-21.4332 -32.4554,-53.2758 -47.1524,-72.2593 -14.697,-18.9835 -26.9441,-25.1071 -26.944,-34.9051 10e-5,-9.7981 12.2472,-23.2699 23.4231,-28.6281 11.1758,-5.3582 21.2797,-2.6026 40.7227,-1.3779 19.443,1.2247 48.2238,0.9186 84.6602,-4.5929 36.4364,-5.5114 80.5262,-16.2276 121.8615,-22.5044 41.3353,-6.2768 79.9138,-8.1139 137.9999,-1.0375 58.0862,7.0763 176.3415,31.9607 207.3582,40.9367 52.9125,15.3125 63.5081,16.0206 87.1429,17.2041 34.2698,1.716 30.0361,6.7496 29.4123,8.8819 -0.9455,3.2321 -8.4862,7.1931 -34.9584,0 -44.2803,-12.032 -43.2352,-15.1651 -73.5049,-22.0964 -30.2698,-6.9313 -57.8029,-24.851 -92.9511,-39.4987 -35.1481,-14.6476 -70.6649,-32.406 -110.3162,-45.4189 -39.6513,-13.013 -88.2576,-25.7812 -141.2281,-28.2306 -52.9706,-2.4495 -100.1744,-2.2964 -141.8158,0 -41.6413,2.2964 -73.6605,10.7551 -88.5108,18.739 -15.2586,8.2034 -25.7194,21.2798 -27.7096,31.9963 -1.9901,10.7165 4.1335,18.371 2.6025,14.2373 -1.531,-4.1336 -10.7164,-20.0549 -13.7782,-35.9767 -3.0618,-15.9217 0,-31.843 21.4329,-62.1553 z"
           id="path1" />
      </g>
      <path
         style="opacity:0.387604;mix-blend-mode:normal;fill:#97a8de;fill-opacity:1;stroke:none;stroke-width:12;stroke-linecap:round;stroke-linejoin:bevel;stroke-opacity:1;paint-order:markers fill stroke;filter:url(#filter31)"
         d="m 3037.4552,4380.4985 c 90.3918,5.2334 186.4695,-9.4428 260.4704,-16.2473 74.0009,-6.8046 123.6421,-15.4068 200.4924,-33.0273 76.8502,-17.6206 175.2117,-24.3477 264.4057,-41.3867 89.1941,-17.039 171.4868,-34.7178 267.6275,-39.2271 96.1406,-4.5094 206.1231,4.1506 294.3943,60.2091 88.2712,56.0585 160.5135,151.3213 221.1169,205.7686 60.6034,54.4473 104.254,104.5127 93.4227,121.4554 -14.112,22.0743 -533.8451,-318.2408 -638.2894,-311.8596 -181.5649,11.0929 -568.2449,62.0633 -672.8945,68.536 -68.9745,4.2661 -266.4868,4.3116 -290.746,-14.2211"
         id="path30" />
      <path
         style="display:inline;opacity:0.248243;mix-blend-mode:overlay;fill:url(#linearGradient5);fill-opacity:1;stroke:none;stroke-width:12;stroke-linecap:round;stroke-linejoin:bevel;stroke-opacity:1;paint-order:markers fill stroke;filter:url(#filter39)"
         d="m 2702.9006,4280.0694 c -78.9692,-30.356 11.208,-102.8171 97.5424,-119.8973 86.3344,-17.0802 204.8724,-19.1972 294.289,-4.6914 89.4166,14.5059 149.7099,45.6345 298.9353,49.0747 149.2254,3.4401 387.3768,-20.8081 537.0466,-27.9821 149.6698,-7.174 210.8489,2.7267 253.1069,-14.1838 42.2581,-16.9106 70.4211,-21.0854 91.3595,-23.0048 20.9384,-1.9193 34.6518,-1.5833 94.0824,47.1229 59.4306,48.7063 159.7505,106.2348 290.3213,130.0666 130.5708,23.8318 116.1337,-3.4305 116.6924,15.7179 1.3623,46.6929 -54.2125,212.1087 -80.7545,297.7064 -41.8548,134.9809 -242.0445,-151.1188 -302.3237,-202.3942 -13.4073,-11.4046 -133.6672,-92.4673 -241.2629,-101.4207 -225.8708,-18.7954 -549.7205,43.0905 -782.3403,64.0438 -75.6908,6.8179 -388.477,18.9144 -513.7323,-43.8743 -69.1221,-34.6499 -90.7692,-42.3766 -152.9621,-66.2837 z"
         id="path4" />
      <path
         style="display:inline;opacity:0.735;mix-blend-mode:overlay;fill:url(#linearGradient2);fill-opacity:1;stroke:none;stroke-width:12;stroke-linecap:round;stroke-linejoin:bevel;stroke-opacity:1;paint-order:markers fill stroke;filter:url(#filter65-0)"
         d="m 2907.2556,3751.6075 c -48.1693,25.3018 -50.3872,24.4935 -117.78,62.4738 -67.3928,37.9804 -219.0907,192.8598 -222.407,214.0559 -3.3164,21.196 137.7076,-114.9015 298.9178,-136.6899 181.4931,-24.5297 350.2207,14.5548 458.4598,0 108.2391,-14.5548 134.3853,-44.6722 196.1459,-70.2945 61.7606,-25.6222 159.13,-46.7467 275.4839,-53.3287 116.3539,-6.5819 341.5621,3.6541 465.9188,22.8718 124.3567,19.2176 112.6481,15.9687 35.967,-30.2831 -76.6811,-46.2518 -348.7782,-129.3238 -384.8463,-127.9937 -31.4931,1.1615 -650.4595,12.9005 -801.7374,47.7469 -101.9222,23.4774 -141.8507,45.9215 -204.1225,71.4415 z"
         id="path58-1" />
      <path
         style="opacity:0.544712;fill:url(#radialGradient33);fill-opacity:1;stroke:none;stroke-width:12;stroke-linecap:round;stroke-linejoin:bevel;stroke-opacity:1;paint-order:markers fill stroke;filter:url(#filter33)"
         d="m 3255.1162,4022.5221 c 5.1041,8.9984 24.3909,-15.8305 38.9502,-16.4718 14.5592,-0.6414 33.0711,-3.1378 52.8101,-2.6535 19.739,0.4844 40.7037,3.9494 55.4858,10.3309 14.7821,6.3816 23.3808,15.6792 29.3861,21.7354 6.0053,6.0562 9.4169,8.8707 11.0463,-0.7449 1.6293,-9.6155 1.4762,-31.6604 -10.7714,-52.6343 -12.2477,-20.9738 -36.5889,-40.8754 -67.3608,-45.3915 -30.7719,-4.5161 -67.9726,6.3532 -86.7722,20.1797 -18.7996,13.8264 -27.8781,56.6517 -22.7741,65.65 z"
         id="path32" />
      <path
         style="display:inline;opacity:0.164025;mix-blend-mode:screen;fill:url(#linearGradient45);fill-opacity:1;stroke:none;stroke-width:5.19772;stroke-linecap:round;stroke-linejoin:bevel;stroke-dasharray:none;stroke-opacity:1;paint-order:markers fill stroke;filter:url(#filter65)"
         d="m 3133.0106,3759.8802 c -22.0741,-0.458 -33.2617,-24.5411 -97.2067,39.436 -40.5138,40.5342 -27.1725,52.0471 -30.4888,73.2432 -3.3164,21.196 -5.219,81.9395 16.0068,94.2789 57.4111,33.3753 -16.0068,33.3753 89.2751,33.3753 97.9233,0 341.7188,-118.0399 409.9951,-179.1308 58.7715,-52.5864 159.13,-46.7467 254.2528,-21.7666 95.1228,24.9801 188.1621,82.8698 254.1893,94.4696 78.8651,13.8552 78.4415,15.8815 13.656,-39.3435 -64.7855,-55.2249 -206.5922,-183.1414 -407.339,-204.571 -200.7467,-21.4296 -237.3431,86.7586 -371.8975,110.0089 -134.5545,23.2503 -99.0273,0.6519 -130.4431,0 z"
         id="path69"
         transform="matrix(0.59850533,0,0,0.24738103,789.17552,3159.3491)" />
    </g>
    <path
       style="opacity:0.396125;mix-blend-mode:normal;fill:url(#linearGradient35);fill-opacity:1;stroke:none;stroke-width:12;stroke-linecap:round;stroke-linejoin:bevel;stroke-opacity:1;paint-order:fill markers stroke"
       d="m 3260.9698,3998.8931 c -2.2446,10.7212 -4.4892,21.4422 -1.1838,32.5139 3.3055,11.0717 12.161,22.4937 21.0738,32.2179 8.9128,9.7243 17.8827,17.7506 30.3126,23.9377 12.4299,6.187 28.3197,10.5347 43.7109,13.643 15.3913,3.1083 30.2839,4.9771 44.9272,4.7054 14.6433,-0.2718 29.0371,-2.6841 41.4706,-10.1603 12.4336,-7.4762 22.9064,-20.0158 33.3794,-32.5555"
       id="path3"
       transform="translate(-2.6743991,5.371049)" />
    <path
       style="fill:#d0dadd;fill-opacity:1;stroke:#251145;stroke-width:12;stroke-linejoin:bevel;stroke-opacity:1;paint-order:markers fill stroke"
       d="m 3283.3593,4032.5209 c 13.6368,6.6667 36.9068,22.5883 60.4782,27.9191 23.5715,5.3308 47.4431,0.071 64.1427,-4.6699 16.6997,-4.7409 26.2257,-8.9627 26.3617,-17.0654 0.1361,-8.1027 0.8569,-8.029 -15.6055,-21.6283 -16.4624,-13.5994 -50.5884,-26.4021 -70.5237,-31.7075 -19.9353,-5.3054 -27.9359,-8.6514 -38.2148,0 -10.2788,8.6515 -22.3532,14.8322 -27.7685,19.0472 -5.4152,4.2149 -11.8874,-0.054 -15.4825,2.968 -3.5951,3.0218 -4.3131,13.3342 -2.6704,17.1962 1.6427,3.8621 5.6461,1.2739 19.2828,7.9406 z"
       id="path2"
       clip-path="none" />
    <path
       style="fill:#d0dadd;fill-opacity:1;stroke:#251145;stroke-width:12;stroke-linejoin:bevel;stroke-opacity:1;paint-order:markers fill stroke"
       d="m 3283.3593,4032.5209 c 13.6368,6.6667 36.9068,22.5883 60.4782,27.9191 23.5715,5.3308 47.4431,0.071 64.1427,-4.6699 16.6997,-4.7409 26.2257,-8.9627 26.3617,-17.0654 0.1361,-8.1027 0.8569,-8.029 -15.6055,-21.6283 -16.4624,-13.5994 -50.5884,-26.4021 -70.5237,-31.7075 -19.9353,-5.3054 -27.9359,-8.6514 -38.2148,0 -10.2788,8.6515 -22.3532,14.8322 -27.7685,19.0472 -5.4152,4.2149 -11.8874,-0.054 -15.4825,2.968 -3.5951,3.0218 -4.3131,13.3342 -2.6704,17.1962 1.6427,3.8621 5.6461,1.2739 19.2828,7.9406 z"
       id="path12" />
    <path
       style="fill:#d0dadd;fill-opacity:1;stroke:#251145;stroke-width:12;stroke-linejoin:bevel;stroke-opacity:1;paint-order:markers fill stroke"
       d="m 3283.3593,4032.5209 c 13.6368,6.6667 36.9068,22.5883 60.4782,27.9191 23.5715,5.3308 47.4431,0.071 64.1427,-4.6699 16.6997,-4.7409 26.2257,-8.9627 26.3617,-17.0654 0.1361,-8.1027 0.8569,-8.029 -15.6055,-21.6283 -16.4624,-13.5994 -50.5884,-26.4021 -70.5237,-31.7075 -19.9353,-5.3054 -27.9359,-8.6514 -38.2148,0 -10.2788,8.6515 -22.3532,14.8322 -27.7685,19.0472 -5.4152,4.2149 -11.8874,-0.054 -15.4825,2.968 -3.5951,3.0218 -4.3131,13.3342 -2.6704,17.1962 1.6427,3.8621 5.6461,1.2739 19.2828,7.9406 z"
       id="path11" />
    <path
       style="opacity:0.635535;mix-blend-mode:multiply;fill:url(#radialGradient19);fill-opacity:1;stroke:none;stroke-width:12;stroke-linecap:round;stroke-linejoin:bevel;stroke-opacity:1;paint-order:markers fill stroke;filter:url(#filter20)"
       d="m 3266.7799,4004.1841 c -7.2915,19.6943 6.0276,35.4628 19.4358,34.9994 13.4082,-0.4634 26.9048,-17.1576 40.2087,-23.1668 13.3039,-6.0091 26.4136,-1.3325 48.3703,3.1877 21.9567,4.5203 52.7583,8.8836 46.7457,-4.8019 -6.0127,-13.6855 -48.8379,-45.4182 -84.2028,-49.4752 -35.365,-4.057 -63.2663,19.5625 -70.5577,39.2568 z"
       id="path17"
       clip-path="none" />
    <path
       style="fill:#d0dadd;fill-opacity:1;stroke:#251145;stroke-width:12;stroke-linejoin:bevel;stroke-opacity:1;paint-order:markers fill stroke"
       d="m 3283.3593,4032.5209 c 13.6368,6.6667 36.9068,22.5883 60.4782,27.9191 23.5715,5.3308 47.4431,0.071 64.1427,-4.6699 16.6997,-4.7409 26.2257,-8.9627 26.3617,-17.0654 0.1361,-8.1027 0.8569,-8.029 -15.6055,-21.6283 -16.4624,-13.5994 -50.5884,-26.4021 -70.5237,-31.7075 -19.9353,-5.3054 -27.9359,-8.6514 -38.2148,0 -10.2788,8.6515 -22.3532,14.8322 -27.7685,19.0472 -5.4152,4.2149 -11.8874,-0.054 -15.4825,2.968 -3.5951,3.0218 -4.3131,13.3342 -2.6704,17.1962 1.6427,3.8621 5.6461,1.2739 19.2828,7.9406 z"
       id="path9" />
    <path
       style="fill:url(#radialGradient15);stroke:url(#radialGradient24);stroke-width:12;stroke-linejoin:bevel;stroke-opacity:1;paint-order:markers fill stroke"
       d="m 3283.3593,4032.5209 c 13.6368,6.6667 36.9068,22.5883 60.4782,27.9191 23.5715,5.3308 47.4431,0.071 64.1427,-4.6699 16.6997,-4.7409 26.2257,-8.9627 26.3617,-17.0654 0.1361,-8.1027 0.8569,-8.029 -15.6055,-21.6283 -16.4624,-13.5994 -50.5884,-26.4021 -70.5237,-31.7075 -19.9353,-5.3054 -27.9359,-8.6514 -38.2148,0 -10.2788,8.6515 -22.3532,14.8322 -27.7685,19.0472 -5.4152,4.2149 -11.8874,-0.054 -15.4825,2.968 -3.5951,3.0218 -4.3131,13.3342 -2.6704,17.1962 1.6427,3.8621 5.6461,1.2739 19.2828,7.9406 z"
       id="path6" />
    <path
       style="display:inline;fill:url(#radialGradient9);fill-opacity:1;stroke:#114445;stroke-width:12;stroke-linecap:round;stroke-linejoin:bevel;stroke-opacity:1;paint-order:markers fill stroke"
       d="m 3350.9932,3988.3239 c -9.6734,-2.6369 -13.9204,-9.8514 -20.7625,3.1749 -6.842,13.0263 -3.7723,31.3524 6.6307,42.7012 10.4029,11.3489 28.1378,15.7196 42.3127,12.4579 14.175,-3.2617 26.1346,-13.6898 29.9,-26.7616 1.6929,-5.877 1.3032,-5.877 -10.6029,-12.4684 -9.2632,-5.1282 -16.8254,-8.6833 -23.9632,-11.289 -7.1378,-2.6058 -11.8679,-4.6401 -23.5148,-7.815 z"
       id="path8"
       clip-path="none" />
    <path
       style="display:inline;fill:none;fill-opacity:1;stroke:#1e251e;stroke-width:7;stroke-linecap:round;stroke-linejoin:round;stroke-dasharray:none;stroke-opacity:1;paint-order:fill markers stroke"
       d="m 3635.3476,4145.9565 c 31.1867,69.7114 62.3735,139.4229 105.6176,179.8724 43.244,40.4494 98.5432,51.6365 185.0313,24.3651 86.4882,-27.2713 204.1596,-92.9987 281.9225,-209.3344 77.7629,-116.3358 115.6127,-283.2688 113.4547,-361.9979 -2.1579,-78.7292 -44.324,-69.2447 -86.491,-59.7601"
       id="path33" />
    <path
       style="display:inline;opacity:1;fill:#4a5593;fill-opacity:1;stroke:#12324d;stroke-width:12;stroke-linecap:round;stroke-linejoin:bevel;stroke-opacity:1;paint-order:markers fill stroke"
       d="m 3517.4071,4202.7294 c 11.4871,58.7701 22.9741,117.5402 78.8098,169.6876 55.8356,52.1473 156.0159,97.6702 226.9279,121.0444 70.9121,23.3743 112.5524,24.599 141.9463,31.029 29.3939,6.4299 46.5399,18.0647 47.4583,12.5532 0.9184,-5.5116 -14.3906,-28.1688 -40.556,-64.7439 -26.1654,-36.5751 -63.1856,-87.0656 -96.4168,-120.4575 -33.2313,-33.3918 -62.6716,-49.6832 -94.0814,-73.2924 -31.4099,-23.6091 -64.7872,-54.5345 -98.1652,-85.4604"
       id="path35"
       transform="translate(248.95598,-27.939767)" />
    <path
       style="baseline-shift:baseline;display:inline;overflow:visible;opacity:1;vector-effect:none;fill:#363b77;fill-opacity:1;stroke-linecap:round;stroke-linejoin:bevel;paint-order:fill markers stroke;enable-background:accumulate;stop-color:#000000;stop-opacity:1"
       d="m 3275.2775,4050.3815 c -1.0528,-1.1943 -16.1987,-23.1884 -17.4567,-22.2128 -2.6184,2.0307 8.0139,20.8236 10.0444,23.4421 8.8556,11.4221 10.9996,24.5185 20.1561,34.5086 9.1565,9.9901 9.8226,8.1744 23.0748,14.7708 13.2523,6.5963 26.6044,7.0907 42.2744,10.2552 15.67,3.1646 31.3224,1.0474 46.5514,0.7648 15.229,-0.2827 31.965,-6.2096 46.3589,-8.622 13.0197,-0.4695 -38.9172,4.5248 -46.2209,4.7634 -14.0576,0.2609 -36.4455,-4.4371 -51.558,-7.4891 -15.1125,-3.052 -21.2626,-9.4759 -33.7794,-12.8593 -20.3339,-5.4964 -28.5754,-24.9914 -39.445,-37.3217 z"
       id="path15" />
    <path
       style="fill:none;fill-opacity:1;stroke:#1e251e;stroke-width:7;stroke-linecap:round;stroke-linejoin:round;stroke-dasharray:none;stroke-opacity:1;paint-order:fill markers stroke"
       d="m 4288.6178,4368.5315 c 12.1148,55.206 24.2297,110.4119 85.8622,159.4499 61.6325,49.038 172.7783,91.9064 263.1155,103.2734 90.3371,11.3671 159.8606,-8.7674 229.3855,-28.9022"
       id="path34" />
    <path
       style="mix-blend-mode:overlay;fill:#715c6f;fill-opacity:1;stroke:none;stroke-width:7;stroke-linecap:round;stroke-linejoin:round;stroke-dasharray:none;stroke-opacity:1;paint-order:fill markers stroke;filter:url(#filter36)"
       d="m 3437.785,3626.592 c 14.1849,-0.4547 26.667,-1.3641 56.9809,15.6667 30.3139,17.0308 78.4566,51.9996 104.2761,105.8101 25.8194,53.8105 29.3125,126.4577 20.2118,172.297 -9.1006,45.8393 -30.7939,64.8683 -38.4461,41.0346 -7.6521,-23.8337 -1.2623,-90.5274 -7.063,-144.6303 -5.8007,-54.103 -23.7913,-95.6094 -56.1438,-125.1316 -32.3525,-29.5221 -79.0631,-47.0565 -94.4756,-55.8242 -15.4126,-8.7676 0.4748,-8.7676 14.6597,-9.2223 z"
       id="path36" />
    <path
       style="opacity:0.48582;mix-blend-mode:overlay;fill:#715c6f;fill-opacity:1;stroke:none;stroke-width:7;stroke-linecap:round;stroke-linejoin:round;stroke-dasharray:none;stroke-opacity:1;paint-order:fill markers stroke;filter:url(#filter37)"
       d="m 3594.1084,4169.0513 c -39.8345,26.7324 -137.8084,82.0158 -191.115,109.6576 -53.3066,27.6417 -61.9455,27.6417 -101.0033,20.8212 -39.0578,-6.8204 -108.5316,-20.4608 -144.452,-27.2811 -35.9203,-6.8203 -38.2859,-6.8203 -48.1079,-3.6374 -9.822,3.1829 -27.0998,9.5484 -42.5594,6.1381 -15.4595,-3.4103 -29.0999,-16.596 -25.9578,-28.4039 3.142,-11.8079 23.066,-22.2374 39.7083,-23.8287 16.6423,-1.5913 30.0021,5.6554 38.2764,12.3561 8.2743,6.7007 11.4628,12.8552 47.4175,21.0397 35.9548,8.1844 104.673,18.3985 144.0141,23.7329 39.3411,5.3345 49.3033,5.7892 92.2415,-17.3061 42.9383,-23.0953 118.8475,-69.7376 165.9576,-93.9698 47.11,-24.2322 65.4145,-26.0509 25.58,0.6814 z"
       id="path37" />
    <path
       style="display:inline;fill:#dde9f5;fill-opacity:1;stroke:none;stroke-width:12;stroke-linecap:round;stroke-linejoin:bevel;stroke-opacity:1;paint-order:markers fill stroke"
       d="m 3329.6589,4029.6176 c -2.6413,-0.6294 -5.6265,-0.4763 -8.9181,0.5954 -3.2915,1.0717 -6.889,3.0618 -4.9749,5.1073 1.9141,2.0455 9.3394,4.1461 14.6216,4.9286 5.2822,0.7825 8.4205,0.2466 9.1477,-1.1695 0.7272,-1.4161 -0.9567,-3.7124 -2.9473,-5.5666 -1.9907,-1.8541 -4.2877,-3.2659 -6.929,-3.8952 z"
       id="path13"
       clip-path="none" />
    <path
       style="opacity:0.48582;mix-blend-mode:overlay;fill:#715c6f;fill-opacity:1;stroke:none;stroke-width:7;stroke-linecap:round;stroke-linejoin:round;stroke-dasharray:none;stroke-opacity:1;paint-order:fill markers stroke;filter:url(#filter38)"
       d="m 3565.5793,4117.855 c 0.643,29.6628 15.4326,47.0245 37.5397,52.6922 22.1071,5.6676 51.5306,-0.3586 75.4466,-19.2828 23.916,-18.9242 42.3233,-50.7451 47.2235,-80.0517 4.9002,-29.3067 -3.7067,-56.0975 -16.0483,-74.2126 -12.3415,-18.1151 -28.4168,-27.5535 -48.6724,-24.8967 -20.2555,2.6568 -44.69,17.4086 -63.6594,45.7671 -18.9695,28.3585 -32.4727,70.3216 -31.8297,99.9845 z"
       id="path38" />
  </g>
  <g
     id="layer2"
     transform="translate(-2587.8726,-3371.2504)">
    <path
       style="opacity:1;fill:#1e251e;fill-opacity:1;stroke:none;stroke-width:7;stroke-linecap:round;stroke-linejoin:bevel;stroke-dasharray:none;stroke-opacity:1;paint-order:markers fill stroke"
       d="m 3535.5303,3941.6941 c -25.1146,-0.866 -45.4661,16.8874 -57.3739,46.9821 -11.9078,30.0947 -15.3718,72.5288 -4.9793,101.1077 10.3925,28.5788 34.6406,43.3009 60.405,45.0328 25.7644,1.7319 53.0435,-9.5261 67.7658,-37.2392 14.7224,-27.7131 16.8874,-71.8793 3.0308,-103.7058 -13.8566,-31.8265 -43.7338,-51.3115 -68.8484,-52.1776 z"
       id="path78"
       transform="translate(38.579263,5.5113234)" />
  </g>
  <g
     id="layer2-7-6"
     transform="matrix(1.2046192,0,0,1.0564465,-3284.7667,-3599.5109)"
     style="fill:url(#pattern7);fill-opacity:1">
    <g
       id="g10"
       clip-path="none">
      <g
         id="g9">
        <path
           style="baseline-shift:baseline;display:inline;overflow:visible;opacity:1;fill:#9e8bb1;fill-opacity:1;stroke:url(#linearGradient24);stroke-width:6;stroke-linecap:round;stroke-linejoin:round;stroke-dasharray:none;stroke-opacity:1;paint-order:fill markers stroke;enable-background:accumulate;stop-color:#000000;stop-opacity:1"
           d="m 3465.4097,3577.3801 c -8.101,-0.012 -17.0991,0.4509 -25.4691,2.8706 -22.32,6.4527 -46.6715,22.7977 -67.0291,49.4016 -2.7517,3.5959 -3.9519,3.0552 3.617,2.7334 9.5582,-0.4064 31.2662,-2.4281 31.9107,-3.3759 5.9674,-8.7752 19.6506,-31.7076 34.8854,-36.112 15.2348,-4.4044 35.5929,-6.1418 47.6539,0 24.1219,12.2837 44.1539,65.3694 60.9707,109.4342 16.8168,44.0649 27.8957,96.4826 33.3047,141.2715 2.7045,22.3945 4.0062,42.913 4.0078,59.3828 0,16.4698 1.4132,29.7744 0,34.0285 -2.7859,8.3862 -1.398,17.102 6.9883,19.8875 8.3856,2.7861 22.2253,-2.6056 25.0117,-10.9911 3.8315,-11.5336 0,-24.7971 0,-42.9288 0,-18.1317 -1.4025,-39.7359 -4.2383,-63.2168 -5.6714,-46.9617 -17.0346,-101.3034 -35.1777,-148.8437 -18.1431,-47.5404 -29.8358,-79.1687 -66.8629,-98.0241 -11.5709,-5.8923 -36.0714,-15.4984 -49.5731,-15.5177 z"
           id="path7"
           transform="matrix(0.83013786,0,0,0.94656947,578.51821,216.0644)" />
      </g>
      <path
         style="fill:url(#linearGradient31);fill-opacity:1;stroke:none;stroke-width:4.43222;stroke-linecap:round;stroke-linejoin:round;paint-order:fill markers stroke"
         d="m 3376.1101,3653.9319 c 10.5068,-0.8077 21.0137,-1.6153 31.5206,-2.423 0.1455,-0.033 0.291,-0.066 0.4366,-0.1 0.1113,-0.1349 5.7555,-21.1074 24.7927,-33.6719 19.0373,-12.5645 36.7196,-4.6266 36.7196,-4.6266 l 11.5038,4.994 -13.1526,-13.0882 c 0,0 -23.05,-11.0756 -51.7662,9.1038 -28.7162,20.1793 -40.0545,39.8116 -40.0545,39.8116 z"
         id="path24" />
    </g>
    <path
       style="fill:none;fill-opacity:1;stroke:#1e251e;stroke-width:15;stroke-linecap:round;stroke-linejoin:round;stroke-dasharray:none;stroke-opacity:1;paint-order:fill markers stroke"
       d="m 3607.7065,4143.561 -286.5444,102.8219 c 0,0 -34.7631,-4.3859 -189.6787,-71.1002"
       id="path14"
       transform="matrix(0.83013786,0,0,0.94656947,578.51821,216.0644)" />
    <path
       style="opacity:1;fill:url(#radialGradient22);fill-opacity:1;stroke:#4325b2;stroke-width:7;stroke-linecap:round;stroke-linejoin:bevel;stroke-dasharray:none;stroke-opacity:1;paint-order:markers fill stroke"
       d="m 3539.5372,3941.3134 c -25.1146,-0.866 -49.473,17.2681 -61.3808,47.3628 -11.9078,30.0947 -15.3718,72.5288 -4.9793,101.1077 10.3925,28.5788 34.6406,43.3009 60.405,45.0328 25.7644,1.7319 53.0435,-9.5261 67.7658,-37.2392 14.7224,-27.7131 16.8874,-71.8793 3.0308,-103.7058 -13.8566,-31.8265 -39.7269,-51.6922 -64.8415,-52.5583 z"
       id="path78-5"
       transform="translate(38.579262,5.511325)" />
  </g>
  <path
     style="opacity:0.337314;mix-blend-mode:overlay;fill:url(#radialGradient23);stroke:none;stroke-width:7;stroke-linecap:round;stroke-linejoin:bevel;stroke-dasharray:none;stroke-opacity:1;paint-order:markers fill stroke;filter:url(#filter78)"
     d="m 1214.0179,829.71483 c -1.7908,18.0657 -1.0049,55.67823 28.0073,91.18553 29.0122,35.5072 65.3326,88.21484 122.2373,117.45484 56.9046,29.24 139.2332,28.5751 179.432,36.5186 40.1988,7.9435 59.1819,5.1879 53.9765,-15.6331 -5.2055,-20.8209 -34.5986,-59.70557 -79.3022,-103.03117 -44.7035,-43.3256 -104.7145,-91.0894 -142.2223,-117.7275 -37.5077,-26.6381 -52.5105,-32.1494 -72.4128,-34.7519 -19.9022,-2.6026 -44.7026,-2.2964 -61.7085,0.3341 -17.006,2.6304 -26.2165,7.585 -28.0073,25.6506 z"
     id="path77" />
  <path
     style="fill:url(#radialGradient17);fill-opacity:1;stroke:#000000;stroke-width:7;stroke-linecap:round;stroke-linejoin:round;stroke-dasharray:none;stroke-opacity:1;paint-order:fill markers stroke"
     d="m 473.092,753.9742 c 20.7376,-8.6809 53.5319,-1.3924 64.624,14.9519 11.0922,16.3442 0.4825,41.7432 -20.2555,50.424 -20.7379,8.6808 -51.6025,0.6431 -62.6946,-15.7011 -11.0922,-16.3443 -2.4115,-40.994 18.3261,-49.6748 z"
     id="path16" />
  <path
     style="opacity:0.951844;fill:#113145;fill-opacity:1;stroke:none;stroke-width:7;stroke-linecap:round;stroke-linejoin:round;stroke-dasharray:none;stroke-opacity:1;paint-order:fill markers stroke"
     d="m 681.9073,521.7899 c 14.3268,2.7329 46.582,2.7329 78.8375,7.7733 32.2556,5.0403 64.5101,15.1206 63.0249,11.7445 -1.4853,-3.376 -36.7095,-20.208 -67.1643,-27.9811 -30.4547,-7.7731 -56.138,-6.4871 -70.7808,-3.1111 -14.6427,3.3759 -18.2442,8.8415 -3.9173,11.5744 z"
     id="path39" />
  <path
     style="opacity:0.624497;mix-blend-mode:overlay;fill:url(#linearGradient41);stroke:#12324d;stroke-width:0;stroke-linecap:round;stroke-linejoin:round;stroke-dasharray:none;stroke-opacity:1;paint-order:fill markers stroke;filter:url(#filter41)"
     d="m 10.41257,655.58386 c -1.72874,-6.65475 -1.72874,-14.61243 6.210037,-27.41479 7.938776,-12.80236 23.815379,-30.44834 63.562641,-40.03131 39.747262,-9.58296 103.360422,-11.10177 161.698242,-4.25476 58.33782,6.84701 111.39436,22.05931 167.28386,45.07597 55.88949,23.01666 114.60852,53.83613 117.23243,58.66634 2.62391,4.8302 -50.84634,-16.32863 -94.0636,-30.88502 -43.21726,-14.5564 -76.17915,-22.50962 -109.7892,-27.72655 -33.61006,-5.21694 -67.86624,-7.69732 -106.0418,-7.6466 -38.17556,0.0507 -80.26812,2.63251 -108.61513,5.96182 -28.347012,3.32931 -42.947047,7.40595 -55.272096,13.47369 -12.32505,6.06775 -22.374424,14.12621 -27.58883,19.81469 -5.214406,5.68847 -5.593627,9.00666 -7.512017,7.98982 -1.918389,-1.01684 -5.375798,-6.36855 -7.104537,-13.0233 z"
     id="path40" />
</svg>
