<?xml version="1.0" encoding="UTF-8" standalone="no"?>
<!-- Created with Inkscape (http://www.inkscape.org/) -->

<svg
   version="1.1"
   id="svg55"
   width="2019.5999"
   height="1691.174"
   viewBox="0 0 2019.5999 1691.174"
   xmlns:xlink="http://www.w3.org/1999/xlink"
   xmlns="http://www.w3.org/2000/svg"
   xmlns:svg="http://www.w3.org/2000/svg">
  <defs
     id="defs59">
    <linearGradient
       id="linearGradient5">
      <stop
         style="stop-color:#485c7a;stop-opacity:0.99607801;"
         offset="0"
         id="stop5" />
      <stop
         style="stop-color:#296b94;stop-opacity:0.99607843;"
         offset="0.10875026"
         id="stop7" />
      <stop
         style="stop-color:#4e83a4;stop-opacity:0.99607843;"
         offset="0.30985096"
         id="stop15" />
      <stop
         style="stop-color:#3f7fa5;stop-opacity:0.99607843;"
         offset="0.44619504"
         id="stop20" />
      <stop
         style="stop-color:#296b94;stop-opacity:0.99607843;"
         offset="0.54444075"
         id="stop10" />
      <stop
         style="stop-color:#485c7a;stop-opacity:1;"
         offset="1"
         id="stop6" />
    </linearGradient>
    <linearGradient
       id="linearGradient44">
      <stop
         style="stop-color:#a555b6;stop-opacity:1;"
         offset="0"
         id="stop44" />
      <stop
         style="stop-color:#573b7a;stop-opacity:0;"
         offset="1"
         id="stop47" />
    </linearGradient>
    <linearGradient
       id="linearGradient18">
      <stop
         style="stop-color:#000000;stop-opacity:1;"
         offset="0"
         id="stop18" />
      <stop
         style="stop-color:#000000;stop-opacity:0;"
         offset="1"
         id="stop19" />
    </linearGradient>
    <linearGradient
       id="linearGradient16">
      <stop
         style="stop-color:#000000;stop-opacity:1;"
         offset="0"
         id="stop16" />
      <stop
         style="stop-color:#000000;stop-opacity:0;"
         offset="1"
         id="stop17" />
    </linearGradient>
    <linearGradient
       id="linearGradient55">
      <stop
         style="stop-color:#725cb1;stop-opacity:0.85458547;"
         offset="0"
         id="stop54" />
      <stop
         style="stop-color:#63397c;stop-opacity:0.32950586;"
         offset="1"
         id="stop55" />
    </linearGradient>
    <linearGradient
       id="linearGradient50">
      <stop
         style="stop-color:#af76b4;stop-opacity:0.31485867"
         offset="0"
         id="stop49" />
      <stop
         style="stop-color:#63397c;stop-opacity:0.32950586;"
         offset="1"
         id="stop50" />
    </linearGradient>
    <linearGradient
       id="linearGradient45">
      <stop
         style="stop-color:#af76b4;stop-opacity:1;"
         offset="0"
         id="stop45" />
      <stop
         style="stop-color:#63397c;stop-opacity:0.32950586;"
         offset="1"
         id="stop46" />
    </linearGradient>
    <linearGradient
       id="linearGradient39">
      <stop
         style="stop-color:#586a95;stop-opacity:0.99607801;"
         offset="0"
         id="stop39" />
      <stop
         style="stop-color:#586a95;stop-opacity:0;"
         offset="1"
         id="stop40" />
    </linearGradient>
    <linearGradient
       id="linearGradient37">
      <stop
         style="stop-color:#76909c;stop-opacity:0.99244498;"
         offset="0"
         id="stop37" />
      <stop
         style="stop-color:#d8d5ba;stop-opacity:0;"
         offset="1"
         id="stop38" />
    </linearGradient>
    <linearGradient
       id="linearGradient12">
      <stop
         style="stop-color:#271b34;stop-opacity:1;"
         offset="0"
         id="stop13" />
      <stop
         style="stop-color:#604382;stop-opacity:0.26890925;"
         offset="1"
         id="stop14" />
    </linearGradient>
    <linearGradient
       id="linearGradient11">
      <stop
         style="stop-color:#8f51bb;stop-opacity:1;"
         offset="0"
         id="stop11" />
      <stop
         style="stop-color:#5f4684;stop-opacity:1;"
         offset="1"
         id="stop12" />
    </linearGradient>
    <linearGradient
       id="linearGradient7">
      <stop
         style="stop-color:#000000;stop-opacity:1;"
         offset="0"
         id="stop8" />
      <stop
         style="stop-color:#000000;stop-opacity:0.79840517;"
         offset="1"
         id="stop9" />
    </linearGradient>
    <linearGradient
       id="linearGradient1">
      <stop
         style="stop-color:#643479;stop-opacity:1;"
         offset="0"
         id="stop1" />
      <stop
         style="stop-color:#5e4885;stop-opacity:1;"
         offset="1"
         id="stop2" />
    </linearGradient>
    <linearGradient
       xlink:href="#linearGradient1"
       id="linearGradient2"
       x1="3040.8018"
       y1="1555.9966"
       x2="2195.5378"
       y2="2482.6318"
       gradientUnits="userSpaceOnUse" />
    <radialGradient
       xlink:href="#linearGradient7"
       id="radialGradient9"
       cx="2021.012"
       cy="2066.0513"
       fx="2021.012"
       fy="2066.0513"
       r="58.92485"
       gradientTransform="matrix(1.5559797,1.8313035,-1.2571421,1.0681394,288.6453,-5081.1117)"
       gradientUnits="userSpaceOnUse" />
    <filter
       style="color-interpolation-filters:sRGB"
       id="filter10"
       x="-0.022061264"
       y="-0.02941502"
       width="1.0441225"
       height="1.05883">
      <feGaussianBlur
         stdDeviation="0.26270083"
         id="feGaussianBlur10" />
    </filter>
    <radialGradient
       xlink:href="#linearGradient11"
       id="radialGradient12"
       cx="2847.1118"
       cy="2037.3616"
       fx="2847.1118"
       fy="2037.3616"
       r="71.890083"
       gradientTransform="matrix(0.35599231,0.42892788,-2.4692299,2.0493582,4853.3204,-4634.2473)"
       gradientUnits="userSpaceOnUse" />
    <linearGradient
       xlink:href="#linearGradient12"
       id="linearGradient14"
       x1="2899.5276"
       y1="2085.1079"
       x2="2885.7249"
       y2="2026.7941"
       gradientUnits="userSpaceOnUse"
       gradientTransform="translate(-2048.4378,-1283.344)" />
    <filter
       style="color-interpolation-filters:sRGB"
       id="filter15"
       x="-0.31094517"
       y="-0.31007183"
       width="1.6218903"
       height="1.6201437">
      <feGaussianBlur
         stdDeviation="0.35052923"
         id="feGaussianBlur15" />
    </filter>
    <linearGradient
       xlink:href="#linearGradient37"
       id="linearGradient38"
       x1="3887.2615"
       y1="2178.3779"
       x2="3800.8154"
       y2="2159.3284"
       gradientUnits="userSpaceOnUse"
       gradientTransform="translate(-2045.7097,-1279.7633)" />
    <filter
       style="color-interpolation-filters:sRGB"
       id="filter39"
       x="-0.020438071"
       y="-0.053431235"
       width="1.0408761"
       height="1.1068625">
      <feGaussianBlur
         stdDeviation="1.6600852"
         id="feGaussianBlur39" />
    </filter>
    <linearGradient
       xlink:href="#linearGradient39"
       id="linearGradient40"
       x1="3643.5535"
       y1="2158.3774"
       x2="3667.0759"
       y2="2109.9531"
       gradientUnits="userSpaceOnUse"
       gradientTransform="translate(-2045.7097,-1279.7633)" />
    <linearGradient
       xlink:href="#linearGradient39"
       id="linearGradient42"
       x1="3746.9561"
       y1="2184.5688"
       x2="3778.1753"
       y2="2184.5688"
       gradientUnits="userSpaceOnUse"
       gradientTransform="translate(-2045.7097,-1279.7633)" />
    <filter
       style="color-interpolation-filters:sRGB"
       id="filter43"
       x="-0.0090018962"
       y="-0.0061642216"
       width="1.0119366"
       height="1.0124589">
      <feGaussianBlur
         stdDeviation="0.37235628"
         id="feGaussianBlur43" />
    </filter>
    <filter
       style="color-interpolation-filters:sRGB"
       id="filter44"
       x="-0.0092037218"
       y="-0.041022388"
       width="1.0185115"
       height="1.083127">
      <feGaussianBlur
         stdDeviation="0.37235628"
         id="feGaussianBlur44" />
    </filter>
    <filter
       style="color-interpolation-filters:sRGB"
       id="filter45"
       x="-0.016611439"
       y="-0.013103093"
       width="1.0334346"
       height="1.0260866">
      <feGaussianBlur
         stdDeviation="0.37235628"
         id="feGaussianBlur45" />
    </filter>
    <linearGradient
       xlink:href="#linearGradient45"
       id="linearGradient46"
       x1="2983.116"
       y1="1509.8773"
       x2="3091.5396"
       y2="1743.2957"
       gradientUnits="userSpaceOnUse"
       gradientTransform="translate(-2045.7097,-1279.7633)" />
    <filter
       style="color-interpolation-filters:sRGB"
       id="filter46"
       x="-0.0045762621"
       y="-0.00775345"
       width="1.0091525"
       height="1.0155069">
      <feGaussianBlur
         stdDeviation="1.3220521"
         id="feGaussianBlur46" />
    </filter>
    <linearGradient
       xlink:href="#linearGradient50"
       id="linearGradient49"
       x1="2747.2954"
       y1="1917.4359"
       x2="2828.918"
       y2="1997.5696"
       gradientUnits="userSpaceOnUse"
       gradientTransform="translate(-2045.7097,-1279.7633)" />
    <filter
       style="color-interpolation-filters:sRGB"
       id="filter49"
       x="-0.012609836"
       y="-0.024061373"
       width="1.0252197"
       height="1.0481227">
      <feGaussianBlur
         stdDeviation="1.0170942"
         id="feGaussianBlur49" />
    </filter>
    <filter
       style="color-interpolation-filters:sRGB"
       id="filter50"
       x="-0.023067813"
       y="-0.027176291"
       width="1.0461356"
       height="1.0543526">
      <feGaussianBlur
         stdDeviation="2.9189865"
         id="feGaussianBlur50" />
    </filter>
    <linearGradient
       xlink:href="#linearGradient45"
       id="linearGradient52"
       x1="3120.4463"
       y1="2600.0525"
       x2="3228.0864"
       y2="2465.01"
       gradientUnits="userSpaceOnUse"
       gradientTransform="translate(-2045.7097,-1279.7633)" />
    <linearGradient
       xlink:href="#linearGradient55"
       id="linearGradient54"
       x1="3346.9504"
       y1="1959.9435"
       x2="3354.6665"
       y2="2133.5605"
       gradientUnits="userSpaceOnUse"
       gradientTransform="translate(-2045.7097,-1279.7633)" />
    <filter
       style="color-interpolation-filters:sRGB"
       id="filter55"
       x="-0.017859356"
       y="-0.03015635"
       width="1.0357187"
       height="1.0603127">
      <feGaussianBlur
         stdDeviation="5.2083163"
         id="feGaussianBlur55" />
    </filter>
    <linearGradient
       xlink:href="#linearGradient16"
       id="linearGradient17"
       x1="1665.0111"
       y1="856.78931"
       x2="1485.7274"
       y2="794.38336"
       gradientUnits="userSpaceOnUse" />
    <filter
       style="color-interpolation-filters:sRGB"
       id="filter17"
       x="-0.023026002"
       y="-0.049361176"
       width="1.046052"
       height="1.0987224">
      <feGaussianBlur
         stdDeviation="1.7447228"
         id="feGaussianBlur17" />
    </filter>
    <linearGradient
       xlink:href="#linearGradient18"
       id="linearGradient19"
       x1="1753.386"
       y1="852.29236"
       x2="1726.0784"
       y2="931.40808"
       gradientUnits="userSpaceOnUse" />
    <filter
       style="color-interpolation-filters:sRGB"
       id="filter19"
       x="-0.080560499"
       y="-0.038391112"
       width="1.161121"
       height="1.0767822">
      <feGaussianBlur
         stdDeviation="1.558386"
         id="feGaussianBlur19" />
    </filter>
    <filter
       style="color-interpolation-filters:sRGB"
       id="filter23"
       x="-0.042737639"
       y="-0.025596392"
       width="1.0854753"
       height="1.0511928">
      <feGaussianBlur
         stdDeviation="4.1095064"
         id="feGaussianBlur23" />
    </filter>
    <filter
       style="color-interpolation-filters:sRGB"
       id="filter41"
       x="-0.018768363"
       y="-0.013927704"
       width="1.0375367"
       height="1.0278554">
      <feGaussianBlur
         stdDeviation="2.9125761"
         id="feGaussianBlur41" />
    </filter>
    <linearGradient
       xlink:href="#linearGradient44"
       id="linearGradient47"
       x1="3248.6433"
       y1="2379.6028"
       x2="3319.8757"
       y2="2337.1631"
       gradientUnits="userSpaceOnUse"
       gradientTransform="translate(-2045.7097,-1279.7633)" />
    <filter
       style="color-interpolation-filters:sRGB"
       id="filter47"
       x="-0.12000162"
       y="-0.16221695"
       width="1.2400032"
       height="1.3244339">
      <feGaussianBlur
         stdDeviation="7.9021572"
         id="feGaussianBlur47" />
    </filter>
    <linearGradient
       xlink:href="#linearGradient44"
       id="linearGradient48"
       gradientUnits="userSpaceOnUse"
       x1="3248.6433"
       y1="2379.6028"
       x2="3319.8757"
       y2="2337.1631"
       gradientTransform="translate(-2255.9792,-1275.9051)" />
    <linearGradient
       xlink:href="#linearGradient37"
       id="linearGradient4"
       gradientUnits="userSpaceOnUse"
       x1="3887.2615"
       y1="2178.3779"
       x2="3800.8154"
       y2="2159.3284"
       gradientTransform="translate(-2045.7097,-1279.7633)" />
    <linearGradient
       xlink:href="#linearGradient5"
       id="linearGradient6"
       x1="299.47855"
       y1="577.46417"
       x2="325.05554"
       y2="618.20898"
       gradientUnits="userSpaceOnUse" />
    <linearGradient
       xlink:href="#linearGradient5"
       id="linearGradient22"
       x1="206.59605"
       y1="626.38336"
       x2="247.31026"
       y2="681.41528"
       gradientUnits="userSpaceOnUse" />
    <filter
       style="color-interpolation-filters:sRGB"
       id="filter22"
       x="-0.024370305"
       y="-0.027044027"
       width="1.0490938"
       height="1.0538257">
      <feGaussianBlur
         stdDeviation="0.25998632"
         id="feGaussianBlur22" />
    </filter>
  </defs>
  <path
     style="display:inline;fill:#544783;fill-opacity:0.992445;stroke:#756197;stroke-width:10;stroke-linecap:round;stroke-linejoin:bevel;stroke-dasharray:none;stroke-opacity:1;paint-order:fill markers stroke;filter:url(#filter45)"
     d="m 1125.1531,1037.3669 c 62.8282,57.5146 125.6551,115.028 188.3676,126.5559 62.7125,11.5278 125.3041,-22.9301 151.4469,-68.6935 26.1428,-45.7634 15.8337,-102.8263 -13.6721,-134.9827 -29.5057,-32.1564 -78.2052,-39.4022 -109.9867,-59.8317 -31.7815,-20.4295 -46.6429,-54.0404 -39.9178,-87.5079 6.7251,-33.4676 35.0361,-66.7878 42.4862,-85.5435 7.4501,-18.7556 -5.9616,-22.9446 -33.264,-6.8391 -27.3023,16.1055 -68.493,52.5043 -85.3286,95.149 -16.8357,42.6447 -9.3159,91.5316 22.1998,121.8314 31.5157,30.2997 87.023,42.0085 96.8782,57.5289 9.8552,15.5204 -25.9432,34.8505 -52.0564,47.3815 -26.1133,12.5309 -42.5385,18.2612 -58.964,23.9917"
     id="path27" />
  <path
     style="fill:#544783;fill-opacity:0.992445;stroke:#756197;stroke-width:10;stroke-linecap:round;stroke-linejoin:bevel;stroke-dasharray:none;stroke-opacity:1;paint-order:fill markers stroke;filter:url(#filter44)"
     d="m 564.6544,1173.5061 c 8.6391,15.6868 25.0079,51.1524 61.1561,67.7485 36.1483,16.5961 92.0738,14.3227 125.9482,1.8186 33.8744,-12.5042 45.696,-35.2381 74.5691,-32.9644 28.8732,2.2737 74.7958,29.5544 121.1744,38.6481 46.3787,9.0937 93.2106,10e-5 125.721,-17.733 32.5104,-17.7331 50.6975,-44.1045 68.2032,-56.8357 17.5057,-12.7313 34.3288,-11.822 41.3764,-24.0988 7.0477,-12.2768 4.3196,-37.7388 -103.8983,-40.4667 -108.2179,-2.728 -321.917,17.2779 -426.9499,30.4639 -105.0329,13.186 -101.3955,19.5515 -99.1221,20.6882 2.2735,1.1367 3.1828,-2.9554 11.8219,12.7313 z"
     id="path33" />
  <path
     style="display:inline;fill:#544783;fill-opacity:0.992445;stroke:#756197;stroke-width:8;stroke-linejoin:round;stroke-dasharray:none;stroke-opacity:1;paint-order:markers fill stroke;filter:url(#filter43)"
     d="m 940.116,1095.3064 c -158.9881,28.301 -317.9729,56.6015 -416.3964,21.7782 -98.4234,-34.8234 -136.2776,-132.7677 -125.099,-210.4183 11.1787,-77.6505 71.3876,-135.0022 127.2296,-160.6205 55.8419,-25.6184 107.312,-19.5006 139.9534,6.4481 32.6414,25.9487 46.4532,71.7281 54.2685,51.8772 7.8154,-19.851 9.6341,-105.3302 -11.1874,-175.3047 -20.8215,-69.9745 -64.2808,-124.4373 -69.2735,-174.9994 -4.9928,-50.5622 28.4824,-97.2195 70.94,-111.4802 42.4575,-14.2608 93.8966,3.8751 108.0696,20.1812 14.1729,16.3061 -8.9215,30.7815 -29.1687,28.1999 -20.2472,-2.5815 -37.6471,-22.2199 -56.376,-5.2421 -18.7288,16.9777 -38.7847,70.5688 -20.1674,104.6411 18.6174,34.0723 75.907,48.6221 98.9856,108.7885 23.0787,60.1664 11.9458,165.9441 -1.2602,225.5719 -13.2059,59.6278 -28.4841,73.1014 -68.3314,72.1234 -39.8472,-0.9779 -104.2611,-16.4071 -137.0803,-10.9263 -32.8193,5.4807 -34.0406,31.8704 -23.1831,53.1631 10.8575,21.2928 33.7932,37.4863 91.6404,14.2091 57.8471,-23.2772 150.6016,-86.0229 243.358,-148.7698"
     id="path22" />
  <path
     style="display:inline;opacity:1;fill:#957a58;fill-opacity:0.992445;stroke:#3b77ce;stroke-width:12;stroke-linecap:round;stroke-linejoin:bevel;stroke-dasharray:none;stroke-opacity:1;paint-order:fill markers stroke"
     d="m 1647.34,822.5171 c -20.2648,-13.1145 -58.0607,-38.6999 -89.338,-48.2779 -31.2772,-9.578 -56.0327,-3.148 -70.4207,4.5685 -14.388,7.7164 -18.4068,16.7184 -9.4846,30.9457 8.9222,14.2272 30.7842,33.678 64.7139,45.3459 33.9298,11.6678 79.9242,15.5515 103.5649,17.6542 23.6407,2.1026 24.9267,2.4242 28.7849,-0.6303 3.8582,-3.0544 10.2884,-9.4846 10.3687,-15.9149 0.08,-6.4303 -6.1891,-12.8604 -10.6903,-16.3971 -4.5012,-3.5366 -7.234,-4.1797 -27.4988,-17.2941 z"
     id="path48" />
  <path
     style="display:inline;opacity:1;fill:#957a58;fill-opacity:0.992445;stroke:#3b77ce;stroke-width:12;stroke-linecap:round;stroke-linejoin:bevel;stroke-dasharray:none;stroke-opacity:1;paint-order:fill markers stroke"
     d="m 1716.493,845.7897 c 3.0691,-6.934 9.6621,-17.6192 19.097,-22.6207 9.4349,-5.0016 21.7112,-4.3195 28.3042,-2.9555 6.593,1.3641 7.5023,3.4102 1.7049,24.3263 -5.7974,20.916 -18.301,60.7004 -26.0307,81.1614 -7.7298,20.4609 -10.6852,21.5976 -17.5056,16.937 -6.8204,-4.6607 -17.5054,-15.1183 -20.8019,-25.5762 -3.2964,-10.458 0.7957,-20.9156 3.9785,-28.5317 3.1829,-7.616 5.4563,-12.3902 6.8203,-16.8235 1.3641,-4.4332 1.8188,-8.5253 1.8188,-12.1628 0,-3.6376 -0.4547,-6.8203 2.6145,-13.7543 z"
     id="path49" />
  <path
     style="display:inline;opacity:1;fill:url(#linearGradient38);fill-opacity:0.992445;stroke:#3b77ce;stroke-width:12;stroke-linecap:butt;stroke-linejoin:bevel;stroke-dasharray:none;stroke-opacity:1;paint-order:fill markers stroke"
     d="m 1733.6298,943.3304 c 12.4374,-2.8452 24.8748,-5.6903 42.2335,5.5049 17.3587,11.1953 39.638,36.43 49.0728,52.7988 9.4347,16.3688 6.0245,23.8711 7.5024,9.548 1.4778,-14.323 7.8433,-50.47 12.0492,-79.7976 4.2058,-29.3276 6.2519,-51.8342 -1.137,-68.4304 -7.3888,-16.5963 -24.2119,-27.2812 -37.8526,-32.7375 -13.6408,-5.4562 -24.0984,-5.6836 -34.5562,-5.9109"
     id="path51" />
  <path
     style="display:inline;opacity:1;fill:#5d86c3;fill-opacity:0.992445;stroke:#3b77ce;stroke-width:12;stroke-linecap:round;stroke-linejoin:bevel;stroke-dasharray:none;stroke-opacity:1;paint-order:fill markers stroke"
     d="m 1844.1959,869.4708 c -1.5272,-4.4208 -3.6171,-9.0828 -5.6266,-8.2789 -2.0094,0.8038 -3.9385,7.0732 -3.7777,14.7093 0.1608,7.636 2.4113,16.6381 1.1252,23.9526 -1.2861,7.3145 -6.1087,12.9409 -7.6359,20.9788 -1.5271,8.0379 0.2412,18.4869 0.08,27.6501 -0.1608,9.1632 -2.2506,17.0401 -6.6714,19.9337 -4.4209,2.8936 -11.1726,0.8038 -14.6288,1.688 -3.4563,0.8842 -3.617,4.7423 -0.5626,8.1986 3.0544,3.4563 9.3238,6.5106 13.5839,12.2175 4.26,5.707 6.5106,14.0661 7.877,19.2907 1.3665,5.2246 1.8487,7.3144 0.4019,11.7353 -1.4469,4.4209 -4.8227,11.1725 -3.7777,16.2364 1.0449,5.0638 6.5106,8.4397 10.1276,7.9573 3.617,-0.4823 5.3853,-4.8226 4.5815,-9.8061 -0.8038,-4.9835 -4.1796,-10.6099 -5.1442,-19.8535 -0.9645,-9.2436 0.4823,-22.1039 2.5722,-30.4633 2.0898,-8.3594 4.8226,-12.2174 7.234,-16.7187 2.4114,-4.5012 4.5012,-9.6453 4.5012,-16.156 -10e-5,-6.5107 -2.0899,-14.3877 -2.4917,-24.4351 -0.4019,-10.0474 0.8841,-22.2646 1.4468,-30.3024 0.5626,-8.0379 0.4019,-11.896 -0.1608,-15.915 -0.5626,-4.0189 -1.5272,-8.1985 -3.0543,-12.6193 z"
     id="path52" />
  <path
     style="display:inline;fill:url(#linearGradient22);stroke:#303a73;stroke-width:6;stroke-linecap:round;stroke-linejoin:bevel;stroke-dasharray:none;stroke-opacity:0.996078;paint-order:fill markers stroke"
     d="m 273.2562,651.5243 c -2.3303,2.1597 -6.9907,6.4791 -11.0829,10.8556 -4.0923,4.3764 -7.616,8.8095 -9.719,11.6514 -2.1029,2.8418 -2.785,4.0922 -4.7742,5.5131 -1.9893,1.4209 -5.2858,3.0123 -16.3552,3.9175 -11.0693,0.9053 -29.9112,1.1244 -39.6872,1.2381 -9.776,0.1137 -10.4853,0.1221 -12.2182,0.6662 -1.733,0.5441 -4.4895,1.624 -6.2941,1.5103 -1.8046,-0.1137 -2.6571,-1.4209 -1.904,-3.0976 0.7531,-1.6766 3.1118,-3.7227 4.5753,-5.3141 1.4635,-1.5914 2.0318,-2.7281 6.124,-10.9694 4.0922,-8.2412 11.7081,-23.5866 15.9709,-31.7711 4.2628,-8.1846 5.1721,-9.2076 8.9802,-10.3443 3.808,-1.1368 10.5145,-2.3871 16.0277,-4.149 5.5131,-1.762 9.8327,-4.0354 12.1913,-5.0017 2.3587,-0.9662 2.7566,-0.6251 3.1686,-0.043 0.4121,0.5825 0.8383,1.4066 2.4014,3.2965 1.563,1.8898 4.2627,4.8452 7.6729,8.1702 3.4102,3.3249 7.5307,7.0191 11.7366,10.3014 4.2059,3.2824 8.4968,6.1524 11.0261,7.8576 2.5293,1.7051 3.2966,2.2451 3.7513,2.643 0.4546,0.3978 0.5967,0.6535 0.6677,0.7814 0.071,0.1279 0.071,0.1276 -2.2592,2.2874 z"
     id="path43" />
  <path
     style="display:inline;fill:#303a72;fill-opacity:1;stroke:none;stroke-width:6;stroke-linecap:round;stroke-linejoin:bevel;stroke-dasharray:none;stroke-opacity:0.996078;paint-order:fill markers stroke"
     d="m 459.8527,478.9526 c 4.3616,-2.8763 12.5161,-7.1511 18.9273,-5.7761 6.4111,1.3751 11.0784,8.3996 9.3187,14.7781 -1.7597,6.3785 -9.9463,12.1102 -14.608,14.9762 -4.6618,2.8659 -5.7985,2.8659 -7.1625,2.0702 -1.3641,-0.7957 -2.9555,-2.3871 -4.4901,-3.7512 -1.5346,-1.3641 -3.0123,-2.5008 -4.2501,-5.2072 -1.2378,-2.7063 -2.2356,-6.9821 -2.4503,-9.8591 -0.2148,-2.877 0.3535,-4.3546 4.715,-7.2309 z"
     id="path55" />
  <g
     id="g19"
     transform="translate(-2041.8515,-1285.0541)"
     style="stroke:#000000;stroke-width:5;stroke-dasharray:none;stroke-opacity:1">
    <path
       style="display:inline;opacity:1;fill:url(#linearGradient2);stroke:#000000;stroke-width:10;stroke-linecap:square;stroke-linejoin:miter;stroke-miterlimit:0;stroke-dasharray:none;stroke-opacity:1;paint-order:markers fill stroke"
       d="m 2300.4963,2178.579 c -5.5655,-38.9438 -11.1309,-77.8873 12.1401,-102.7857 23.271,-24.8985 75.3778,-35.7517 137.7297,-20.8273 62.3519,14.9243 134.9438,55.6245 208.1032,66.4916 73.1594,10.8672 146.8803,-8.1004 189.6141,-65.3253 42.7339,-57.2249 54.4807,-152.7071 37.9564,-242.8337 -16.5243,-90.1265 -61.3172,-174.8893 -125.336,-235.7606 -64.0187,-60.8712 -147.2589,-97.8451 -224.7629,-118.2695 -77.5041,-20.4244 -149.2644,-24.2976 -228.1841,-1.8444 -78.9198,22.4532 -164.9895,71.2301 -226.7641,118.8602 -61.7745,47.6301 -99.2464,94.1075 -127.192,148.7234 -27.9457,54.6158 -46.3618,117.3637 -71.4731,170.1612 -25.1113,52.7975 -56.9157,95.6398 -58.4728,142.7249 -1.5571,47.085 27.1336,98.4119 47.5325,127.47 20.399,29.0581 32.5057,35.8471 -31.0649,78.535 -63.5705,42.6879 -202.8101,121.2698 -248.2131,164.962 -45.4029,43.6922 3.0366,52.4893 61.5908,56.6534 58.5541,4.1641 127.2179,3.6947 170.18,21.3729 42.962,17.6782 60.2223,53.5039 83.8627,83.7671 23.6404,30.2632 53.6586,54.9612 76.9004,35.8818 23.2419,-19.0795 39.705,-81.9353 56.9635,-114.9902 17.2585,-33.055 35.3121,-36.3078 76.8257,-15.5626 41.5137,20.7452 106.4854,65.4872 136.9053,52.5201 30.42,-12.9672 26.2856,-83.6432 61.3585,-106.6784 35.0728,-23.0352 109.353,1.5706 172.5219,-0.36 63.169,-1.9307 115.2218,-30.3967 105.9528,-64.0349 -9.2689,-33.6382 -79.8578,-72.4435 -134.717,-100.7464 -54.8592,-28.3028 -93.9809,-46.0991 -117.9924,-61.9817 -24.0116,-15.8826 -32.9098,-29.8496 -41.8083,-43.817"
       id="path56"
       transform="translate(837.25814,-0.68203209)" />
    <path
       style="opacity:1;fill:#5e4784;fill-opacity:1;stroke:#000000;stroke-width:5;stroke-linecap:round;stroke-linejoin:bevel;stroke-dasharray:none;stroke-opacity:1;paint-order:fill markers stroke"
       d="m 3120.3004,2387.0888 c 45.5122,28.7087 91.0235,57.4169 124.4588,95.702 33.4353,38.2851 54.7913,86.1429 102.2828,116.515 47.4915,30.3722 121.1128,43.255 198.4969,27.3646 77.3842,-15.8904 158.5219,-60.5521 182.3155,-122.7776 23.7937,-62.2255 -9.7599,-142.0071 -33.0476,-192.9096 -23.2878,-50.9025 -36.3074,-72.9204 -42.073,-102.7337 -5.7657,-29.8134 -4.2773,-67.4213 9.8245,-82.5039 14.1018,-15.0826 40.8156,-7.6388 56.2001,0.2038 15.3844,7.8426 19.4384,16.0835 10.5092,25.7197 -8.9292,9.6362 -30.8412,20.6673 -23.6531,29.0218 7.1882,8.3544 43.476,14.0319 54.078,-10.6449 10.602,-24.6769 -4.4821,-79.7057 -39.9507,-96.2539 -35.4686,-16.5482 -91.3173,5.3859 -120.0339,32.6933 -28.7165,27.3073 -30.2973,59.9843 -15.202,112.24 15.0954,52.2557 46.8648,124.0833 53.0942,172.3987 6.2295,48.3153 -13.0816,73.1125 -52.4384,88.1574 -39.3567,15.0449 -98.7535,20.3354 -131.8091,12.6342 -33.0556,-7.7011 -39.7653,-28.3929 -49.3342,-62.3993 -9.569,-34.0064 -21.996,-81.3231 -57.6458,-117.7315 -35.6498,-36.4085 -94.5187,-61.9043 -153.389,-87.4008"
       id="path24"
       transform="translate(-3.8581561,-2.8936171)" />
    <path
       style="opacity:1;fill:#5e4885;fill-opacity:1;stroke:#000000;stroke-width:10;stroke-linecap:round;stroke-linejoin:round;stroke-dasharray:none;stroke-opacity:1;paint-order:fill markers stroke"
       d="m 2732.8991,2427.3155 c -60.9282,52.7438 -121.8552,105.4866 -200.5178,123.2197 -78.6626,17.7332 -175.0526,0.4558 -229.6163,-64.5659 -54.5636,-65.0217 -67.2944,-177.7798 -38.0795,-262.2337 29.2149,-84.4539 100.3719,-140.5934 137.2543,-183.2712 36.8824,-42.6779 39.4858,-71.8899 30.3922,-100.5349 -9.0937,-28.6451 -29.8846,-56.7233 -52.7844,-68.2619 -22.8998,-11.5387 -47.9071,-6.5373 -52.5534,6.8535 -4.6462,13.3908 11.0692,35.1707 25.2136,42.3961 14.1444,7.2254 26.718,-0.1036 27.0447,5.8299 0.3267,5.9335 -11.5932,25.1292 -35.0593,20.4045 -23.466,-4.7248 -58.4756,-33.369 -68.7063,-59.9688 -10.2307,-26.5997 4.3187,-51.152 28.4177,-65.0202 24.0989,-13.8683 57.7445,-17.0509 87.0725,-10.9125 29.3279,6.1384 54.3348,21.5972 73.4321,51.3798 19.0973,29.7827 32.2827,73.8857 33.4194,113.217 1.1368,39.3313 -9.7755,73.8869 -26.599,118.4463 -16.8234,44.5595 -39.5573,99.1208 -50.0154,141.4077 -10.458,42.2869 -8.6394,72.2951 15.0049,85.936 23.6442,13.6409 66.2018,9.7222 111.6706,6.9941"
       id="path25"
       transform="translate(-3.8581561,-2.8936171)" />
    <path
       style="opacity:1;fill:#5e4784;fill-opacity:1;stroke:#000000;stroke-width:10;stroke-linecap:round;stroke-linejoin:bevel;stroke-dasharray:none;stroke-opacity:1;paint-order:fill markers stroke"
       d="m 2924.5536,2425.3061 c 32.7375,102.7595 65.4751,205.519 121.8564,257.3534 56.3813,51.8345 136.4064,52.7438 192.7877,9.5485 56.3813,-43.1954 89.1189,-130.4955 115.78,-174.761 26.6611,-44.2655 47.2456,-45.4963 61.7978,-42.1291 14.5523,3.3673 23.072,11.3327 28.0507,15.9876 4.9787,4.6548 6.4165,5.999 13.8853,6.4672 7.4689,0.4682 20.9687,0.06 30.9168,-0.254 9.9481,-0.3144 16.344,-0.5354 7.0542,-15.7381 -9.2897,-15.2027 -34.2652,-45.387 -61.303,-63.2073 -27.0378,-17.8204 -56.1379,-23.2766 -98.4239,-0.5422 -42.2859,22.7344 -97.7579,73.6594 -135.0423,89.1188 -37.2844,15.4594 -56.3813,-4.5468 -66.8391,-35.9203 -10.4579,-31.3735 -12.2766,-74.1141 -14.0954,-116.8548"
       id="path19"
       transform="translate(-3.8581561,-2.8936171)" />
    <path
       style="opacity:1;fill:#5f4583;fill-opacity:1;stroke:#000000;stroke-width:5;stroke-linejoin:round;stroke-dasharray:none;stroke-opacity:1;paint-order:fill markers stroke"
       d="m 2881.056,2489.6321 c -46.9363,66.9389 -93.8726,133.8778 -131.0554,172.3967 -37.1828,38.5188 -64.612,48.6176 -95.4968,52.2999 -30.8848,3.6822 -65.2252,0.9479 -103.8083,-13.2107 -38.5831,-14.1586 -81.4088,-39.7415 -105.9836,-86.0045 -24.5748,-46.2629 -30.8986,-113.2059 -1.9093,-178.8287 28.9894,-65.6228 93.292,-129.9254 156.9516,-141.1783 63.6596,-11.253 126.6761,30.5437 172.0095,48.8699 45.3333,18.3263 72.9834,13.182 92.5957,1.6076 19.6123,-11.5745 31.1867,-29.5793 28.2931,-51.1206 -2.8936,-21.5414 -20.2553,-46.6194 -42.4397,-53.0496 -22.1844,-6.4303 -49.1915,5.7872 -61.0875,5.7872 -11.896,0 -8.6808,-12.2175 8.0378,-24.7565 16.7187,-12.539 46.941,-25.3996 77.8062,-16.0757 30.8653,9.3239 62.3735,40.8322 74.9125,80.3783 12.539,39.5461 6.1088,87.13 -23.792,120.5674 -29.9007,33.4373 -83.2718,52.7281 -134.9148,42.0139 -51.6429,-10.7142 -101.5576,-51.4334 -142.7987,-44.6274 -41.241,6.8061 -73.8084,61.1376 -75.6332,96.1202 -1.8249,34.9827 27.0928,50.6166 50.1474,33.248 23.0547,-17.3685 40.2464,-67.7395 57.4381,-118.1105"
       id="path4"
       transform="rotate(-51.97205,2772.243,2442.6079)" />
  </g>
  <path
     style="display:inline;fill:#8e67ae;fill-opacity:0.996078;stroke:none;stroke-width:10;stroke-linecap:round;stroke-linejoin:bevel;stroke-dasharray:none;stroke-opacity:1;paint-order:fill markers stroke"
     d="m 882.0267,1263.9891 c -9.5484,11.5945 -7.7297,69.3398 -22.7344,115.036 -15.0047,45.6961 -46.8328,79.3431 -86.6181,107.7611 -39.7852,28.418 -106.98413,23.995 -78.33883,36.2716 28.6454,12.2766 113.44917,-20.3365 148.16789,-73.5288 25.59991,-39.2215 33.67591,-48.678 44.27614,-93.8906 6.28962,-26.8269 4.7958,-103.2439 -4.7527,-91.6493 z"
     id="path28" />
  <path
     style="fill:#8e68ae;fill-opacity:1;stroke:none;stroke-width:8;stroke-linejoin:round;stroke-dasharray:none;stroke-opacity:0.996078;paint-order:markers fill stroke"
     d="m 272.9705,583.5654 c 12.08653,-15.54936 24.64812,-26.02238 40.03332,-29.52638 15.3853,-3.5039 19.00066,1.2901 35.76486,8.7419 16.7642,7.4519 30.58802,22.42578 42.08252,40.05088 11.4945,17.6252 21.5944,40.5007 20.3955,71.3546 -1.1989,30.8539 -13.6963,69.6842 -36.769,102.286 -23.0726,32.6018 -56.7189,58.9732 -75.8158,108.5349 -19.097,49.5617 -23.6437,122.3103 -16.3685,179.8288 7.2752,57.5185 26.3717,99.8036 59.678,122.8791 33.3064,23.0754 80.8195,26.9402 112.7609,23.424 31.9414,-3.5161 48.3075,-14.4126 50.498,-9.9281 2.1904,4.4845 -9.7949,24.3496 -15.6586,48.3678 -5.8638,24.0182 -3.65981,16.4316 -62.65331,18.2969 -66.01647,2.0874 -128.41967,-10.4329 -190.87187,-108.9151 -62.4521,-98.4821 -6.79743,-260.19542 35.91348,-322.31728 0,0 91.0136,-63.6606 107.90546,-116.46491 13.69344,-42.80602 19.91272,-74.67697 11.94232,-92.83637 -7.9703,-18.1594 -55.65439,-56.17962 -71.59349,-64.56122 -15.9391,-8.3816 -54.44026,30.04277 -47.24379,20.78448 z"
     id="path26" />
  <path
     style="fill:#8e67ae;fill-opacity:0.996078;stroke:none;stroke-width:10;stroke-linecap:round;stroke-linejoin:bevel;stroke-dasharray:none;stroke-opacity:1;paint-order:fill markers stroke"
     d="m 546.26055,1443.1882 c -4.3196,-23.7574 -52.08275,-76.667 -45.71675,-126.001 6.366,-49.3341 43.6497,-87.9818 87.9823,-116.8547 44.3326,-28.8729 95.7113,-47.9694 125.9481,-75.2511 30.2369,-27.2816 39.3304,-62.7465 34.556,-92.9835 -4.7744,-30.237 -23.4162,-55.2444 -44.1048,-67.0662 -20.6885,-11.8219 -40.51206,-18.92435 -57.79036,-13.46795 -17.2782,5.4563 -32.01024,23.47105 -33.09004,25.06235 -1.0798,1.5914 5.51595,-8.0138 14.95075,-11.5944 9.4349,-3.5807 27.74807,-5.9677 37.06927,-5.0015 9.3212,0.9663 17.16783,6.67715 25.06813,11.45145 7.9003,4.7743 15.1336,10.00404 19.0554,18.13174 3.9217,8.1276 4.35408,28.93801 4.06988,38.77071 -0.2842,9.8328 -3.63765,11.8612 -7.72985,20.7277 -4.0923,8.8664 -12.66352,16.104 -19.97302,23.2684 -7.3095,7.1644 -15.4642,15.8425 -33.8514,26.2889 -18.3871,10.4464 -47.53906,23.1894 -64.95346,32.6781 -17.4143,9.4887 -23.9496,14.3997 -29.3202,18.1625 -5.3707,3.7628 -9.5765,6.3773 -15.2602,11.3221 -5.6836,4.9448 -12.8448,12.2196 -18.6989,19.9494 -5.8542,7.7298 -10.401,15.914 -15.5163,29.0433 -5.1153,13.1293 -10.7988,31.2028 -13.7543,43.2521 -2.9554,12.0493 -1.94278,16.97 -5.861,27.7503 -5.22693,14.381 2.9848,23.0292 3.6102,51.675 0.6254,28.6458 25.31919,63.6576 41.18239,92.7989 15.8632,29.1412 16.44766,41.6449 12.12816,17.8874 z"
     id="path29" />
  <path
     style="fill:#8e67ae;fill-opacity:0.996078;stroke:none;stroke-width:10;stroke-linecap:round;stroke-linejoin:bevel;stroke-dasharray:none;stroke-opacity:1;paint-order:fill markers stroke"
     d="m 855.15883,1169.6354 c -8.55108,-44.2052 -1.93923,-56.694 13.18697,-52.636 15.1262,4.058 36.4071,36.9168 54.9254,78.8723 18.5183,41.9555 34.2721,93.0037 59.5113,131.3891 25.2391,38.3855 59.9618,64.106 97.2577,70.5361 37.2959,6.4301 77.1627,-6.4301 112.6902,-35.0452 35.5275,-28.6151 66.7136,-72.983 86.9691,-99.6687 20.2554,-26.6857 25.0812,-37.2753 20.0976,-25.0575 -4.9836,12.2178 -20.0976,41.1783 -35.8295,69.4773 -15.2336,27.4027 -35.9002,60.6518 -68.856,88.4629 -32.9558,27.8112 -62.9284,38.6385 -112.1484,33.5935 -60.6592,-6.2174 -100.1807,-62.3559 -124.28526,-99.6227 -18.83285,-29.1165 -46.10808,-112.7284 -58.05982,-145.4562 -10.75726,-29.4568 -41.40864,6.0951 -45.45929,-14.8449 z"
     id="path30" />
  <path
     style="fill:#8e67ae;fill-opacity:0.996078;stroke:none;stroke-width:10;stroke-linecap:round;stroke-linejoin:bevel;stroke-dasharray:none;stroke-opacity:1;paint-order:fill markers stroke"
     d="m 1198.1657,1183.4723 c -6.5911,-16.5579 -27.7775,-57.8246 -48.3561,-74.1471 -20.5787,-16.3225 -39.2261,-18.2516 -50.6399,-15.6794 -11.4137,2.5722 -15.5933,9.6453 -16.5578,24.4352 -0.9645,14.7898 3.5722,18.4035 5.2313,36.4482 0.506,5.5027 18.0516,-29.1657 34.9312,-26.4329 16.8797,2.7329 36.199,25.6314 48.376,36.8992 15.0191,13.8976 33.6063,35.0347 27.0153,18.4768 z"
     id="path31" />
  <path
     style="fill:#8e67ae;fill-opacity:0.996078;stroke:none;stroke-width:10;stroke-linecap:round;stroke-linejoin:bevel;stroke-dasharray:none;stroke-opacity:1;paint-order:fill markers stroke"
     d="m 1278.0987,1297.5275 c -10.9276,-3.823 7.918,3.965 27.5166,12.785 20.0202,9.0096 64.0236,33.2964 85.7102,33.2964 50.9015,0 100.1065,1.8147 184.4519,-37.5168 84.3454,-39.3314 111.6424,-67.9203 108.2052,-134.1835 -5.0168,-96.7142 -12.8814,-75.1046 -35.8186,-133.02 -20.5958,-52.00337 -49.4531,-120.38174 -49.2771,-144.11568 0.153,-20.63415 37.9218,-48.18732 52.5127,-47.26052 14.5909,0.9269 34.4506,13.1244 35.3141,6.2738 0.8635,-6.8507 -17.2692,-32.7491 -35.5457,-38.9794 -18.2765,-6.2302 -36.6947,7.2081 -48.6374,24.9397 -11.9426,17.7317 -17.4081,39.7544 -19.1765,66.2798 -1.7684,26.5254 0.1606,57.5502 10.61,90.7471 10.4494,33.1969 29.4179,68.5619 41.5852,107.2774 12.1673,38.7154 17.5319,80.7767 10.0227,111.1146 -7.5091,30.338 -27.8912,48.9487 -50.9941,62.8481 -23.1029,13.8995 -48.9238,23.0859 -93.401,31.3265 -44.4772,8.2405 -107.6055,15.5341 -147.1438,12.4026 -39.5382,-3.1315 -65.0069,-20.3922 -75.9344,-24.2151 z"
     id="path32" />
  <path
     style="display:inline;opacity:0.156353;mix-blend-mode:overlay;fill:#f154b9;fill-opacity:1;stroke:none;stroke-width:30;stroke-linecap:butt;stroke-linejoin:bevel;stroke-opacity:1;paint-order:fill markers stroke;filter:url(#filter23)"
     d="m 483.93685,724.46173 c 11.38117,-43.40621 3.83934,-49.00673 0.51942,-8.65293 -3.31991,40.3538 -2.4179,126.66192 -13.53191,190.20758 -11.114,63.54566 -34.244,104.32882 -38.57104,128.88122 -4.32704,24.5523 10.14888,32.8738 42.16458,36.8328 32.01569,3.9591 81.57114,3.5556 120.4442,-12.5602 38.87306,-16.1158 67.06369,-47.9439 60.21107,-52.1142 -6.85261,-4.1702 -48.74857,19.3176 -91.48924,32.0536 -42.74068,12.7359 -86.32608,14.7202 -111.75631,-5.2081 -25.43023,-19.9283 -32.70523,-61.76898 -21.19066,-123.29532 11.51458,-61.52634 41.81872,-142.73823 53.19989,-186.14445 z"
     id="path23" />
  <path
     style="display:inline;opacity:0.129344;mix-blend-mode:multiply;fill:#573b7a;fill-opacity:1;stroke:none;stroke-width:30;stroke-linecap:butt;stroke-linejoin:bevel;stroke-opacity:1;paint-order:fill markers stroke;filter:url(#filter41)"
     d="m 891.4483,1146.4476 c -3.8723,-43.8794 -1.1214,-67.0571 -16.9441,-89.3725 -15.8227,-22.3155 -50.219,-43.7685 -64.6729,-8.5699 -14.4538,35.1986 -8.9653,127.0488 -10.0791,197.7304 -1.1139,70.6817 -8.8302,120.1947 -35.8373,142.3791 -27.0071,22.1844 -73.3049,17.0402 -98.0614,-4.1796 -24.7565,-21.2199 -27.9717,-58.5155 -31.1868,-88.4162 -3.2151,-29.9007 -6.4303,-52.4066 -15.7541,-58.8369 -9.3239,-6.4302 -24.7566,3.2152 -38.9031,38.5817 -14.1466,35.3664 -27.0071,96.4538 -1.2861,151.111 25.7211,54.6572 90.0237,102.8842 161.0781,104.8133 71.0543,1.929 148.8605,-42.4397 179.4042,-85.5225 30.5437,-43.0827 13.8251,-84.8794 0.2179,-138.0683 -13.6072,-53.189 -24.1029,-117.7702 -27.9753,-161.6496 z"
     id="path34" />
  <path
     style="opacity:0.251342;mix-blend-mode:multiply;fill:url(#linearGradient54);stroke:none;stroke-width:6;stroke-linecap:round;stroke-linejoin:bevel;stroke-dasharray:none;stroke-opacity:0.996078;paint-order:fill markers stroke;filter:url(#filter55)"
     d="m 1198.1115,1001.9517 c -39.8455,-4.1293 -98.0044,-32.2834 -137.3655,-60.2435 -39.361,-27.96 -59.9241,-55.7259 -74.5987,-77.0182 -14.6747,-21.2924 -23.4608,-36.1111 -22.0994,-58.3425 1.3615,-22.2314 12.8706,-51.8756 27.777,-65.9979 14.9065,-14.1223 33.2104,-12.7229 53.1185,-18.521 19.908,-5.7981 41.4203,-18.7937 70.2573,-30.1498 28.837,-11.3561 64.9988,-21.0729 103.3351,-16.6073 38.3362,4.4655 78.8468,23.1132 116.1423,44.6546 37.2955,21.5414 71.3758,45.9763 115.1016,53.6926 43.7258,7.7164 97.0969,-1.286 127.4848,-10.3228 30.3878,-9.0369 37.7924,-18.1082 47.8952,-53.2763 10.1029,-35.1681 22.9041,-96.4328 30.5352,-115.2068 7.631,-18.774 10.092,4.9427 6.5093,38.487 -3.5826,33.5443 -13.2087,76.9161 -24.5421,104.0839 -11.3333,27.1679 -24.3738,38.1317 -56.6151,49.0794 -32.2413,10.9476 -83.6833,21.8791 -132.2318,18.6639 -48.5485,-3.2151 -94.2033,-20.5768 -135.357,-20.8983 -41.1537,-0.3215 -77.8061,16.3971 -82.4621,49.6141 -4.656,33.217 22.6844,82.9322 25.5887,117.7375 2.9042,34.8053 -18.6279,54.7008 -58.4733,50.5714 z"
     id="path53" />
  <path
     style="fill:#a07ed0;fill-opacity:1;stroke:#4d206a;stroke-width:5;stroke-dasharray:none;stroke-opacity:0.882471;paint-order:markers stroke fill;filter:url(#filter22)"
     d="m 782.8237,785.7856 c 6.4299,-23.8548 40.7218,-43.395 72.2595,-26.4015 31.5376,16.9936 60.3184,70.5196 53.8881,94.3744 -6.4303,23.8548 -48.0705,18.0374 -79.6077,1.0439 -31.5373,-16.9935 -52.9698,-45.1619 -46.5399,-69.0168 z"
     id="path1" />
  <path
     style="display:inline;opacity:0.733471;fill:url(#radialGradient9);fill-opacity:1;stroke:#68652b;stroke-width:5;stroke-opacity:1"
     d="m 811.1506,831.2727 c 0.2458,5.4352 4.5647,10.1051 11.4156,14.4683 6.8509,4.3631 16.2336,8.4193 27.8525,12.629 11.6189,4.2098 25.4733,8.5728 35.1183,7.2332 9.6451,-1.3396 15.0796,-8.3816 17.3761,-17.2993 2.2964,-8.9178 1.4544,-19.7106 -3.636,-28.8579 -5.0904,-9.1474 -14.4288,-16.6487 -25.5282,-20.5526 -11.0993,-3.9039 -23.9588,-4.21 -33.4505,-1.1864 -9.4918,3.0236 -15.4291,9.1836 -20.556,15.6513 -5.1268,6.4677 -8.8376,12.4792 -8.5918,17.9144 z"
     id="path6" />
  <ellipse
     style="mix-blend-mode:color-dodge;fill:#ffffff;fill-opacity:0.680519;stroke:none;stroke-width:5;stroke-opacity:1;filter:url(#filter10)"
     id="path9"
     cx="2862.7207"
     cy="2093.2422"
     rx="14.289344"
     ry="10.717008"
     transform="matrix(0.97142929,0,0,0.78212217,-1964.1755,-815.59312)" />
  <rect
     style="opacity:0.869639;fill:#5f376d;fill-opacity:0.929778;stroke:#7f3587;stroke-width:10.9453;stroke-linejoin:round;stroke-dasharray:none;stroke-opacity:1;paint-order:markers fill stroke;filter:url(#filter15)"
     id="rect10"
     width="20.305574"
     height="20.362766"
     x="3450.1108"
     y="1009.0684"
     transform="rotate(19.712843,2660.0383,-6527.0096)" />
  <path
     style="fill:url(#radialGradient12);fill-opacity:1;stroke:url(#linearGradient14);stroke-width:4;stroke-linejoin:round;stroke-dasharray:none;stroke-opacity:1;paint-order:markers fill stroke"
     d="m 803.9453,749.1005 c -9.5651,4.5012 -17.9244,10.1277 -23.3337,20.7971 -5.4093,10.6695 -7.8685,26.381 -7.834,30.4146 0.035,4.0336 2.563,-3.6113 9.9915,-7.0913 7.4286,-3.4799 19.7571,-2.7949 34.5122,-0.5589 14.7551,2.236 31.9364,6.0228 48.8809,17.5446 16.9446,11.5217 33.6514,30.7774 43.0557,38.0919 9.4043,7.3145 11.5055,2.6871 6.0454,-14.0146 -5.4601,-16.7017 -18.4811,-45.4765 -33.1101,-63.5617 -14.6291,-18.0853 -30.8652,-25.4799 -44.3689,-27.4893 -13.5036,-2.0094 -24.274,1.3664 -33.839,5.8676 z"
     id="path11" />
  <path
     style="opacity:0.265187;fill:#af98ef;fill-opacity:0.680519;stroke:#68652b;stroke-width:4;stroke-linejoin:round;stroke-dasharray:none;stroke-opacity:1;paint-order:markers fill stroke"
     d="m 869.2955,1363.7931 c -3.1829,2.2735 -6.3657,4.5469 -9.5485,6.8203"
     id="path21" />
  <path
     style="fill:none;fill-opacity:1;stroke:#5e4885;stroke-width:6;stroke-linecap:round;stroke-linejoin:bevel;stroke-dasharray:none;stroke-opacity:1;paint-order:fill markers stroke"
     d="m 1591.1127,888.5303 c -2.9554,0.5684 -7.0476,9.4349 -7.0476,18.9834 10e-5,9.5486 4.0921,19.7788 7.0476,19.2104 2.9555,-0.5685 4.7742,-11.9355 4.7742,-21.484 0,-9.5485 -1.8187,-17.2781 -4.7742,-16.7098 z"
     id="path118" />
  <path
     style="fill:none;fill-opacity:1;stroke:#5e4885;stroke-width:6;stroke-linecap:round;stroke-linejoin:bevel;stroke-dasharray:none;stroke-opacity:1;paint-order:fill markers stroke"
     d="m 1595.6596,871.3659 c 0.682,7.275 1.3641,14.55 3.6375,15.3457 2.2735,0.7956 6.1383,-4.8879 8.0708,-8.5254 1.9324,-3.6375 1.9324,-5.2289 1.9324,-6.8203"
     id="path119" />
  <path
     style="fill:none;fill-opacity:1;stroke:#5e4885;stroke-width:6;stroke-linecap:round;stroke-linejoin:bevel;stroke-dasharray:none;stroke-opacity:1;paint-order:fill markers stroke"
     d="m 1592.5905,946.9578 c -1.7051,1.2504 -0.3411,11.2535 2.9555,20.9157 3.2965,9.6622 8.5254,18.9832 10.2304,17.7326 1.7051,-1.2505 -0.1136,-13.0721 -3.4102,-22.7343 -3.2965,-9.6622 -8.0707,-17.1644 -9.7757,-15.914 z"
     id="path120" />
  <path
     style="fill:none;fill-opacity:1;stroke:#5e4885;stroke-width:6;stroke-linecap:round;stroke-linejoin:bevel;stroke-dasharray:none;stroke-opacity:1;paint-order:fill markers stroke"
     d="m 1604.0713,925.9284 c -2.9554,1.1368 -5.0015,7.0477 -2.387,15.3459 2.6145,8.2982 9.8894,18.9831 12.8448,17.8463 2.9555,-1.1369 1.5915,-14.0952 -1.023,-22.3933 -2.6145,-8.2981 -6.4793,-11.9356 -9.4348,-10.7989 z"
     id="path121" />
  <path
     style="fill:none;fill-opacity:1;stroke:#5e4885;stroke-width:6;stroke-linecap:round;stroke-linejoin:bevel;stroke-dasharray:none;stroke-opacity:1;paint-order:fill markers stroke"
     d="m 1615.2112,1013.1149 c -1.5914,2.1598 2.0461,16.4824 7.7298,30.1232 5.6837,13.6408 13.4132,26.5991 15.0046,24.4392 1.5913,-2.1599 -2.9555,-19.4377 -8.6391,-33.0784 -5.6837,-13.6408 -12.5039,-23.6438 -14.0953,-21.484 z"
     id="path122" />
  <path
     style="fill:none;fill-opacity:1;stroke:#5e4885;stroke-width:6;stroke-linecap:round;stroke-linejoin:bevel;stroke-dasharray:none;stroke-opacity:1;paint-order:fill markers stroke"
     d="m 1614.6428,977.6492 c 1.2504,4.8879 3.7512,11.0262 8.4118,19.2107 4.6607,8.1845 11.4808,18.4148 13.1859,16.1412 1.7051,-2.2736 -1.7051,-17.0507 -6.3657,-27.0539 -4.6606,-10.0032 -10.5714,-15.232 -13.5269,-16.0276 -2.9555,-0.7957 -2.9555,2.8417 -1.7051,7.7296 z"
     id="path123" />
  <path
     style="fill:none;fill-opacity:1;stroke:#5e4885;stroke-width:6;stroke-linecap:round;stroke-linejoin:bevel;stroke-dasharray:none;stroke-opacity:1;paint-order:fill markers stroke"
     d="m 1650.4495,1041.9876 c -3.4102,1.023 -3.8648,11.0262 0.4548,22.1661 4.3196,11.14 13.4133,23.4164 16.8234,22.3932 3.4101,-1.0232 1.1367,-15.3456 -3.1829,-26.4855 -4.3196,-11.14 -10.6852,-19.0969 -14.0953,-18.0738 z"
     id="path124" />
  <path
     style="fill:none;fill-opacity:1;stroke:#5e4885;stroke-width:6;stroke-linecap:round;stroke-linejoin:bevel;stroke-dasharray:none;stroke-opacity:1;paint-order:fill markers stroke"
     d="m 1643.6292,1087.6837 c -0.2273,5.3426 1.1367,15.5731 4.5469,28.5318 3.4103,12.9588 8.8664,28.6453 12.1629,28.6451 3.2965,-10e-5 4.4332,-15.6866 1.9323,-28.8726 -2.5008,-13.1861 -8.639,-23.871 -12.6175,-28.9863 -3.9785,-5.1152 -5.7973,-4.6606 -6.0246,0.682 z"
     id="path125" />
  <path
     style="fill:none;fill-opacity:1;stroke:#5e4885;stroke-width:6;stroke-linecap:round;stroke-linejoin:bevel;stroke-dasharray:none;stroke-opacity:1;paint-order:fill markers stroke"
     d="m 1679.2085,1132.5842 c -3.5238,2.9555 -4.6605,17.5055 -2.2733,28.5317 2.3871,11.0263 8.298,18.5285 11.8218,15.5729 3.5239,-2.9556 4.6606,-16.3686 2.2734,-27.3949 -2.3872,-11.0263 -8.298,-19.6652 -11.8219,-16.7097 z"
     id="path126" />
  <path
     style="fill:none;fill-opacity:1;stroke:#5e4885;stroke-width:6;stroke-linecap:round;stroke-linejoin:bevel;stroke-dasharray:none;stroke-opacity:1;paint-order:fill markers stroke"
     d="m 1657.0425,1186.01 c -0.682,9.5485 -2.7281,25.4626 -4.3195,40.1264 -1.5915,14.6638 -2.7282,28.0768 0.7957,22.5066 3.524,-5.5701 11.7082,-30.1228 12.9585,-46.3779 1.2504,-16.2552 -4.4331,-24.2121 -6.9339,-26.5992 -2.5008,-2.3871 -1.8187,0.7957 -2.5008,10.3441 z"
     id="path127" />
  <path
     style="fill:none;fill-opacity:1;stroke:#5e4885;stroke-width:6;stroke-linecap:round;stroke-linejoin:bevel;stroke-dasharray:none;stroke-opacity:1;paint-order:fill markers stroke"
     d="m 1681.7093,1199.6507 c -3.5238,2.5008 -8.2981,8.639 -11.0262,16.3688 -2.7281,7.7298 -3.4102,17.0508 0.1138,14.5498 3.5239,-2.5009 11.2534,-16.8233 13.9815,-24.553 2.7282,-7.7297 0.4548,-8.8664 -3.0691,-6.3656 z"
     id="path128" />
  <path
     style="fill:none;fill-opacity:1;stroke:#5e4885;stroke-width:6;stroke-linecap:round;stroke-linejoin:bevel;stroke-dasharray:none;stroke-opacity:1;paint-order:fill markers stroke"
     d="m 1631.6936,1266.7172 c -6.0246,0 -21.0293,8.639 -32.3966,17.7329 -11.3673,9.0939 -19.0968,18.6421 -13.072,18.642 6.0248,-10e-5 25.8034,-9.5483 37.1706,-18.6422 11.3672,-9.0938 14.3226,-17.7327 8.298,-17.7327 z"
     id="path129" />
  <path
     style="fill:none;fill-opacity:1;stroke:#5e4885;stroke-width:6;stroke-linecap:round;stroke-linejoin:bevel;stroke-dasharray:none;stroke-opacity:1;paint-order:fill markers stroke"
     d="m 1557.4658,1313.3227 c -9.0937,-0.2274 -25.0078,3.6375 -38.0802,10.4579 -13.0724,6.8204 -23.3027,16.596 -14.2086,16.8233 9.094,0.2272 37.5115,-9.0937 50.5837,-15.9141 13.0723,-6.8203 10.7989,-11.1398 1.7051,-11.3671 z"
     id="path130" />
  <path
     style="fill:#957a58;fill-opacity:0.992445;stroke:#302622;stroke-width:6;stroke-linecap:round;stroke-linejoin:bevel;stroke-dasharray:none;stroke-opacity:1;paint-order:fill markers stroke"
     d="m 1647.34,822.5171 c -20.2648,-13.1145 -58.0607,-38.6999 -89.338,-48.2779 -31.2772,-9.578 -56.0327,-3.148 -70.4207,4.5685 -14.388,7.7164 -18.4068,16.7184 -9.4846,30.9457 8.9222,14.2272 30.7842,33.678 64.7139,45.3459 33.9298,11.6678 79.9242,15.5515 103.5649,17.6542 23.6407,2.1026 24.9267,2.4242 28.7849,-0.6303 3.8582,-3.0544 10.2884,-9.4846 10.3687,-15.9149 0.08,-6.4303 -6.1891,-12.8604 -10.6903,-16.3971 -4.5012,-3.5366 -7.234,-4.1797 -27.4988,-17.2941 z"
     id="path35" />
  <path
     style="display:inline;mix-blend-mode:normal;fill:url(#linearGradient46);fill-opacity:0.996078;stroke:none;stroke-width:6;stroke-linecap:round;stroke-linejoin:bevel;stroke-dasharray:none;stroke-opacity:0.996078;paint-order:fill markers stroke;filter:url(#filter46)"
     d="m 874.2714,329.0878 c -30.2222,24.435 -55.3002,46.9409 -78.9403,88.0735 -23.6401,41.1326 -45.8412,100.8891 -63.9756,140.268 -18.1344,39.3789 -32.2011,58.3781 34.6311,24.2248 66.8322,-34.1533 214.5566,-121.4555 345.0389,-183.7934 130.4823,-62.3379 243.7075,-99.7045 282.3064,-127.7763 38.5989,-28.0717 2.5667,-46.8461 -43.4539,-61.0733 -46.0206,-14.2272 -102.0288,-23.9069 -166.1356,-15.9967 -64.1067,7.9102 -136.3109,33.4101 -190.0967,59.3423 -53.7858,25.9322 -89.152,52.2961 -119.3743,76.7311 z"
     id="path45" />
  <path
     style="fill:#957a58;fill-opacity:0.992445;stroke:#302622;stroke-width:6;stroke-linecap:round;stroke-linejoin:bevel;stroke-dasharray:none;stroke-opacity:1;paint-order:fill markers stroke"
     d="m 1716.493,845.7897 c 3.0691,-6.934 9.6621,-17.6192 19.097,-22.6207 9.4349,-5.0016 21.7112,-4.3195 28.3042,-2.9555 6.593,1.3641 7.5023,3.4102 1.7049,24.3263 -5.7974,20.916 -18.301,60.7004 -26.0307,81.1614 -7.7298,20.4609 -10.6852,21.5976 -17.5056,16.937 -6.8204,-4.6607 -17.5054,-15.1183 -20.8019,-25.5762 -3.2964,-10.458 0.7957,-20.9156 3.9785,-28.5317 3.1829,-7.616 5.4563,-12.3902 6.8203,-16.8235 1.3641,-4.4332 1.8188,-8.5253 1.8188,-12.1628 0,-3.6376 -0.4547,-6.8203 2.6145,-13.7543 z"
     id="path36" />
  <path
     style="fill:url(#linearGradient4);fill-opacity:0.992445;stroke:#847b66;stroke-width:6;stroke-linecap:butt;stroke-linejoin:bevel;stroke-dasharray:none;stroke-opacity:1;paint-order:fill markers stroke"
     d="m 1733.6298,943.3304 c 12.4374,-2.8452 24.8748,-5.6903 42.2335,5.5049 17.3587,11.1953 39.638,36.43 49.0728,52.7988 9.4347,16.3688 6.0245,23.8711 7.5024,9.548 1.4778,-14.323 7.8433,-50.47 12.0492,-79.7976 4.2058,-29.3276 6.2519,-51.8342 -1.137,-68.4304 -7.3888,-16.5963 -24.2119,-27.2812 -37.8526,-32.7375 -13.6408,-5.4562 -24.0984,-5.6836 -34.5562,-5.9109"
     id="path37" />
  <path
     style="fill:#5d86c3;fill-opacity:0.992445;stroke:#3b77ce;stroke-width:6;stroke-linecap:round;stroke-linejoin:bevel;stroke-dasharray:none;stroke-opacity:1;paint-order:fill markers stroke"
     d="m 1844.1959,869.4708 c -1.5272,-4.4208 -3.6171,-9.0828 -5.6266,-8.2789 -2.0094,0.8038 -3.9385,7.0732 -3.7777,14.7093 0.1608,7.636 2.4113,16.6381 1.1252,23.9526 -1.2861,7.3145 -6.1087,12.9409 -7.6359,20.9788 -1.5271,8.0379 0.2412,18.4869 0.08,27.6501 -0.1608,9.1632 -2.2506,17.0401 -6.6714,19.9337 -4.4209,2.8936 -11.1726,0.8038 -14.6288,1.688 -3.4563,0.8842 -3.617,4.7423 -0.5626,8.1986 3.0544,3.4563 9.3238,6.5106 13.5839,12.2175 4.26,5.707 6.5106,14.0661 7.877,19.2907 1.3665,5.2246 1.8487,7.3144 0.4019,11.7353 -1.4469,4.4209 -4.8227,11.1725 -3.7777,16.2364 1.0449,5.0638 6.5106,8.4397 10.1276,7.9573 3.617,-0.4823 5.3853,-4.8226 4.5815,-9.8061 -0.8038,-4.9835 -4.1796,-10.6099 -5.1442,-19.8535 -0.9645,-9.2436 0.4823,-22.1039 2.5722,-30.4633 2.0898,-8.3594 4.8226,-12.2174 7.234,-16.7187 2.4114,-4.5012 4.5012,-9.6453 4.5012,-16.156 -10e-5,-6.5107 -2.0899,-14.3877 -2.4917,-24.4351 -0.4019,-10.0474 0.8841,-22.2646 1.4468,-30.3024 0.5626,-8.0379 0.4019,-11.896 -0.1608,-15.915 -0.5626,-4.0189 -1.5272,-8.1985 -3.0543,-12.6193 z"
     id="path38" />
  <path
     style="opacity:0.678699;mix-blend-mode:multiply;fill:url(#linearGradient40);stroke:none;stroke-width:6;stroke-linecap:round;stroke-linejoin:bevel;stroke-dasharray:none;stroke-opacity:0.996078;paint-order:fill markers stroke;filter:url(#filter39)"
     d="m 1483.7039,797.1357 c 3.1341,-1.9268 8.8036,-1.1725 12.006,1.2326 3.2025,2.405 3.9372,6.4603 7.6236,11.911 3.6864,5.4507 10.3239,12.296 25.5217,19.9816 15.1978,7.6856 38.9548,16.2108 65.668,22.6902 26.7132,6.4793 56.381,10.9125 70.18,13.5131 13.799,2.6007 11.7289,3.3688 10.3481,3.8085 -1.3808,0.4397 -2.0718,0.551 -18.0877,-0.2878 -16.016,-0.8387 -47.3556,-2.6275 -75.5867,-8.7509 -28.2311,-6.1234 -53.3521,-16.581 -69.8347,-26.1295 -16.4825,-9.5486 -24.3257,-18.1875 -27.9482,-24.8109 -3.6226,-6.6235 -3.0242,-11.2312 0.1099,-13.1579 z"
     id="path39" />
  <path
     style="opacity:0.678699;mix-blend-mode:multiply;fill:url(#linearGradient42);stroke:none;stroke-width:6;stroke-linecap:round;stroke-linejoin:bevel;stroke-dasharray:none;stroke-opacity:0.996078;paint-order:fill markers stroke"
     d="m 1717.89,859.566 c 0.7493,1.3851 0.8677,12.1347 -0.1968,22.1384 -1.0644,10.0038 -3.3116,19.2609 -2.8277,26.944 0.484,7.683 3.6991,13.7917 7.5573,18.4537 3.8582,4.6619 8.3593,7.877 9.3612,10.1503 1.0018,2.2733 -1.4955,3.6046 -4.5061,3.2076 -3.0105,-0.397 -6.534,-2.5224 -10.4425,-4.9118 -3.9086,-2.3894 -8.2016,-5.0424 -10.8177,-11.3974 -2.6161,-6.355 -3.5547,-16.4109 -1.8813,-25.3631 1.6734,-8.9522 5.9585,-16.7997 8.7913,-24.7136 2.8328,-7.9138 4.213,-15.8932 4.9623,-14.5081 z"
     id="path40" />
  <path
     style="fill:url(#linearGradient6);fill-opacity:0.996078;stroke:#303a73;stroke-width:6;stroke-linecap:round;stroke-linejoin:bevel;stroke-dasharray:none;stroke-opacity:0.996078;paint-order:fill markers stroke"
     d="m 310.4597,568.4734 c 29.4571,-18.1846 86.6864,-53.551 115.5124,-70.5551 28.8259,-17.0041 29.2484,-15.6459 29.2891,-13.0912 0.041,2.5548 -0.3003,6.3059 1.9164,10.3982 2.2167,4.0922 6.9908,8.5253 9.5484,9.0937 2.5576,0.5683 2.8987,-2.7282 3.4102,-2.3303 0.5115,0.3979 1.1935,4.49 1.1366,6.7066 -0.057,2.2166 -0.8525,2.5577 -28.8732,22.3938 -28.0207,19.8362 -83.2642,59.1659 -111.2843,78.8312 -28.0202,19.6652 -28.8159,19.6652 -29.7821,19.4379 -0.9662,-0.2274 -2.1029,-0.682 -4.0353,-2.2166 -1.9325,-1.5346 -4.6606,-4.149 -7.2182,-6.8772 -2.5577,-2.7282 -4.9447,-5.5699 -6.934,-8.5822 -1.9893,-3.0124 -3.5807,-6.1951 -4.7174,-9.378 -1.1367,-3.1828 -1.8188,-6.3656 -1.8756,-8.639 -0.057,-2.2735 0.5115,-3.6375 1.6382,-4.821 1.1267,-1.1834 2.8116,-2.1862 32.2688,-20.3708 z"
     id="path42" />
  <path
     style="opacity:0.898428;fill:url(#linearGradient49);stroke:none;stroke-width:6;stroke-linecap:round;stroke-linejoin:bevel;stroke-dasharray:none;stroke-opacity:0.996078;paint-order:fill markers stroke;filter:url(#filter49)"
     d="m 719.9223,633.8807 c 23.8148,-3.8567 59.5021,-4.8212 87.5334,11.4155 28.0312,16.2368 48.4039,49.6728 24.29,67.9994 -24.1139,18.3266 -92.713,21.5416 -132.4791,18.8086 -39.7661,-2.7329 -50.697,-11.4134 -50.3984,-25.8831 0.2987,-14.4697 11.8271,-34.7272 23.5625,-48.2309 11.7354,-13.5038 23.6768,-20.2527 47.4916,-24.1095 z"
     id="path46" />
  <path
     style="display:inline;fill:none;fill-opacity:1;stroke:#5e4885;stroke-width:6;stroke-linecap:round;stroke-linejoin:bevel;stroke-dasharray:none;stroke-opacity:1;paint-order:fill markers stroke"
     d="m 331.9127,765.3389 c -8.8113,4.4722 -19.9511,15.1802 -24.4997,23.5677 -4.5485,8.3876 -2.5059,14.4544 6.3056,9.9821 8.8114,-4.4723 24.3906,-19.4831 28.9392,-27.8708 4.5487,-8.3876 -1.9338,-10.1512 -10.7451,-5.679 z"
     id="path57" />
  <path
     style="display:inline;fill:none;fill-opacity:1;stroke:#5e4885;stroke-width:6;stroke-linecap:round;stroke-linejoin:bevel;stroke-dasharray:none;stroke-opacity:1;paint-order:fill markers stroke"
     d="m 279.3166,820.3528 c -8.8113,4.4722 -19.9511,15.1802 -24.4997,23.5677 -4.5485,8.3876 -2.5059,14.4544 6.3056,9.9821 8.8114,-4.4723 24.3906,-19.4831 28.9392,-27.8708 4.5487,-8.3876 -1.9338,-10.1512 -10.7451,-5.679 z"
     id="path57-3-3" />
  <path
     style="opacity:0.129046;fill:url(#linearGradient52);fill-opacity:0.996078;stroke:none;stroke-width:6;stroke-linecap:round;stroke-linejoin:bevel;stroke-dasharray:none;stroke-opacity:0.996078;paint-order:fill markers stroke;filter:url(#filter50)"
     d="m 971.3729,1043.0106 c -12.5039,2.5008 -26.5992,21.143 -20.4607,66.8399 6.1386,45.6969 32.5099,118.4455 65.0205,156.1846 32.5106,37.7392 71.1583,40.4673 106.6243,27.281 35.466,-13.1862 67.7482,-42.2857 90.7101,-65.4749 22.9619,-23.1893 36.6023,-40.4671 39.3303,-46.6053 2.728,-6.1382 -5.4562,-1.1368 -17.9603,8.8665 -12.5041,10.0033 -29.3272,25.0077 -50.0157,38.1938 -20.6886,13.186 -45.2413,24.553 -63.8836,30.0093 -18.6423,5.4562 -31.3733,5.0015 -44.0562,-15.3267 -12.683,-20.3282 -25.3169,-60.5276 -37.1389,-93.0384 -11.8221,-32.5107 -22.8313,-57.3297 -33.7924,-76.56 -10.9612,-19.2302 -21.8734,-32.8705 -34.3774,-30.3698 z"
     id="path50" />
  <path
     style="fill:none;fill-opacity:1;stroke:#5e4885;stroke-width:6;stroke-linecap:round;stroke-linejoin:bevel;stroke-dasharray:none;stroke-opacity:1;paint-order:fill markers stroke"
     d="m 369.8175,733.9531 c 2.2506,-5.7069 -0.9645,-6.8322 -5.5461,-4.4208 -4.5816,2.4114 -10.5295,8.3593 -12.7801,14.0662 -2.2506,5.7069 -0.8038,11.1725 3.7778,8.761 4.5817,-2.4114 12.2978,-12.6996 14.5484,-18.4064 z"
     id="path58" />
  <path
     style="fill:none;fill-opacity:1;stroke:#5e4885;stroke-width:6;stroke-linecap:round;stroke-linejoin:bevel;stroke-dasharray:none;stroke-opacity:1;paint-order:fill markers stroke"
     d="m 381.0705,699.31 c -3.6974,3.0544 -7.8771,7.8771 -8.6004,12.0568 -0.7234,4.1797 2.0094,7.7163 5.7068,4.6618 3.6975,-3.0545 8.3593,-12.6997 9.0827,-16.8793 0.7234,-4.1797 -2.4917,-2.8936 -6.1891,0.1607 z"
     id="path59" />
  <path
     style="fill:none;fill-opacity:1;stroke:#5e4885;stroke-width:6;stroke-linecap:round;stroke-linejoin:bevel;stroke-dasharray:none;stroke-opacity:1;paint-order:fill markers stroke"
     d="m 250.124,891.7132 c -0.7957,-10.3442 -6.934,-1.0231 -11.3673,10.6853 -4.4332,11.7084 -7.1613,25.8034 -6.3655,36.1476 0.7957,10.3442 5.1152,16.9371 9.5484,5.2286 4.4333,-11.7085 8.9801,-41.7174 8.1844,-52.0615 z"
     id="path61" />
  <path
     style="fill:none;fill-opacity:1;stroke:#5e4885;stroke-width:6;stroke-linecap:round;stroke-linejoin:bevel;stroke-dasharray:none;stroke-opacity:1;paint-order:fill markers stroke"
     d="m 229.663,890.3492 c 2.3871,-11.2536 -3.2965,-11.0262 -10.2306,-2.046 -6.934,8.9803 -15.1182,26.7128 -17.5053,37.9663 -2.3871,11.2536 1.0229,16.0277 7.9571,7.0474 6.9341,-8.9803 17.3917,-31.7142 19.7788,-42.9677 z"
     id="path62" />
  <path
     style="fill:none;fill-opacity:1;stroke:#5e4885;stroke-width:6;stroke-linecap:round;stroke-linejoin:bevel;stroke-dasharray:none;stroke-opacity:1;paint-order:fill markers stroke"
     d="m 237.1654,980.9457 c -3.2965,-12.2766 -8.5254,-10.4578 -12.5039,-0.4545 -3.9786,10.0033 -6.7067,28.1905 -3.4101,40.4671 3.2966,12.2767 12.6175,18.6422 16.596,8.6388 3.9785,-10.0034 2.6145,-36.3748 -0.682,-48.6514 z"
     id="path63" />
  <path
     style="fill:none;fill-opacity:1;stroke:#5e4885;stroke-width:6;stroke-linecap:round;stroke-linejoin:bevel;stroke-dasharray:none;stroke-opacity:1;paint-order:fill markers stroke"
     d="m 196.5844,978.786 c -4.3195,6.4793 -7.5023,22.166 -6.1382,34.2153 1.3641,12.0493 7.275,20.4609 11.5945,13.9814 4.3196,-6.4795 7.0477,-27.8495 5.6835,-39.8988 -1.3641,-12.0492 -6.8202,-14.7773 -11.1398,-8.2979 z"
     id="path64" />
  <path
     style="fill:none;fill-opacity:1;stroke:#5e4885;stroke-width:6;stroke-linecap:round;stroke-linejoin:bevel;stroke-dasharray:none;stroke-opacity:1;paint-order:fill markers stroke"
     d="m 289.6804,839.8916 c 4.4208,-5.8676 1.3664,-3.4562 -3.9386,1.5273 -5.305,4.9835 -12.8604,12.5389 -17.2813,18.4065 -4.4208,5.8677 -5.7068,10.0473 -0.4017,5.0637 5.3051,-4.9836 17.2008,-19.1299 21.6216,-24.9975 z"
     id="path65" />
  <path
     style="fill:none;fill-opacity:1;stroke:#5e4885;stroke-width:6;stroke-linecap:round;stroke-linejoin:bevel;stroke-dasharray:none;stroke-opacity:1;paint-order:fill markers stroke"
     d="m 334.6922,792.3076 c -4.0993,1.688 -11.1725,6.9929 -17.1206,13.1018 -5.948,6.1088 -10.7706,13.0212 -6.6712,11.3331 4.0994,-1.688 17.1204,-11.9762 23.0684,-18.0849 5.948,-6.1088 4.8227,-8.0379 0.7234,-6.35 z"
     id="path66" />
  <path
     style="fill:none;fill-opacity:1;stroke:#5e4885;stroke-width:6;stroke-linecap:round;stroke-linejoin:bevel;stroke-dasharray:none;stroke-opacity:1;paint-order:fill markers stroke"
     d="m 204.7206,1065.5134 c -5.305,-9.1632 -10.4492,-7.2341 -11.0922,4.0191 -0.643,11.2531 3.2151,31.8295 8.5202,40.9926 5.305,9.1631 12.0566,6.9126 12.6996,-4.3405 0.643,-11.2532 -4.8226,-31.5081 -10.1276,-40.6712 z"
     id="path67" />
  <path
     style="fill:none;fill-opacity:1;stroke:#5e4885;stroke-width:6;stroke-linecap:round;stroke-linejoin:bevel;stroke-dasharray:none;stroke-opacity:1;paint-order:fill markers stroke"
     d="m 227.0658,1071.9436 c -1.9291,11.4137 0.3215,29.74 4.8228,41.9575 4.5012,12.2176 11.2528,18.3262 13.1819,6.9122 1.929,-11.414 -0.9646,-40.3496 -5.4658,-52.5671 -4.5012,-12.2174 -10.6099,-7.7163 -12.5389,3.6974 z"
     id="path68" />
  <path
     style="fill:none;fill-opacity:1;stroke:#5e4885;stroke-width:6;stroke-linecap:round;stroke-linejoin:bevel;stroke-dasharray:none;stroke-opacity:1;paint-order:fill markers stroke"
     d="m 210.6686,1133.9956 c -1.6076,4.3404 -0.9645,13.0213 3.8583,23.7921 4.8227,10.7708 13.8249,23.6311 21.2198,27.6499 7.3948,4.0189 13.1819,-0.8037 10.2882,-11.5745 -2.8937,-10.7709 -14.4679,-27.4892 -22.1843,-35.8486 -7.7164,-8.3593 -11.5744,-8.3593 -13.182,-4.0189 z"
     id="path69" />
  <path
     style="fill:none;fill-opacity:1;stroke:#5e4885;stroke-width:6;stroke-linecap:round;stroke-linejoin:bevel;stroke-dasharray:none;stroke-opacity:1;paint-order:fill markers stroke"
     d="m 257.288,1158.2699 c 0,8.6808 6.4302,29.5791 16.8796,41.7967 10.4493,12.2175 24.9171,15.7541 24.917,7.073 -2e-4,-8.681 -14.468,-29.579 -24.9173,-41.7965 -10.4492,-12.2175 -16.8793,-15.7541 -16.8793,-7.0732 z"
     id="path70" />
  <path
     style="fill:none;fill-opacity:1;stroke:#5e4885;stroke-width:6;stroke-linecap:round;stroke-linejoin:bevel;stroke-dasharray:none;stroke-opacity:1;paint-order:fill markers stroke"
     d="m 335.5764,1220.1611 c -14.9504,-1.7683 -21.3806,2.0898 -14.1463,8.1987 7.2342,6.1088 28.1321,14.468 43.0826,16.2362 14.9504,1.7683 23.9526,-3.0543 16.7183,-9.1631 -7.2343,-6.1089 -30.7042,-13.5035 -45.6546,-15.2718 z"
     id="path71" />
  <path
     style="fill:none;fill-opacity:1;stroke:#5e4885;stroke-width:6;stroke-linecap:round;stroke-linejoin:bevel;stroke-dasharray:none;stroke-opacity:1;paint-order:fill markers stroke"
     d="m 277.5433,1226.9129 c -2.5721,2.7328 5.1442,13.9858 18.0049,21.3806 12.8607,7.3948 30.8651,10.9314 33.437,8.1985 2.572,-2.733 -10.2883,-11.7351 -23.1489,-19.13 -12.8606,-7.3948 -25.7209,-13.182 -28.293,-10.4491 z"
     id="path72" />
  <path
     style="fill:none;fill-opacity:1;stroke:#5e4885;stroke-width:6;stroke-linecap:round;stroke-linejoin:bevel;stroke-dasharray:none;stroke-opacity:1;paint-order:fill markers stroke"
     d="m 423.8317,1241.7025 c -17.0402,3.6974 -22.1844,7.5555 -11.4134,9.0023 10.7709,1.4468 37.456,0.4823 54.4963,-3.2151 17.0402,-3.6975 24.4349,-10.1277 13.6639,-11.5744 -10.771,-1.4468 -39.7066,2.0898 -56.7468,5.7872 z"
     id="path73" />
  <path
     style="fill:none;fill-opacity:1;stroke:#5e4885;stroke-width:6;stroke-linecap:round;stroke-linejoin:bevel;stroke-dasharray:none;stroke-opacity:1;paint-order:fill markers stroke"
     d="m 383.8034,1266.9413 c -6.9126,2.8936 3.3758,8.0378 17.3618,9.9668 13.986,1.9291 31.6689,0.6431 38.5814,-2.2506 6.9125,-2.8937 3.0544,-7.3947 -10.9317,-9.3238 -13.986,-1.9291 -38.099,-1.286 -45.0115,1.6076 z"
     id="path74" />
  <path
     style="fill:none;fill-opacity:1;stroke:#5e4885;stroke-width:6;stroke-linecap:round;stroke-linejoin:bevel;stroke-dasharray:none;stroke-opacity:1;paint-order:fill markers stroke"
     d="m 473.5055,1272.0854 c -4.3405,-1.9291 3.6974,-9.9669 12.0568,-12.0567 8.3594,-2.0898 17.0401,1.7683 13.021,5.7873 -4.0191,4.019 -20.7374,8.1985 -25.0778,6.2694 z"
     id="path75" />
  <path
     style="fill:none;fill-opacity:1;stroke:#5e4885;stroke-width:6;stroke-linecap:round;stroke-linejoin:bevel;stroke-dasharray:none;stroke-opacity:1;paint-order:fill markers stroke"
     d="m 388.0081,657.9467 c -3.6375,0.7389 -7.0476,9.0369 -7.3318,15.9141 -0.2842,6.8772 2.5576,12.3334 6.1952,11.5944 3.6375,-0.7389 8.0706,-7.6727 8.3547,-14.5499 0.2842,-6.8773 -3.5806,-13.6975 -7.2181,-12.9586 z"
     id="path76" />
  <path
     style="fill:none;fill-opacity:1;stroke:#5e4885;stroke-width:6;stroke-linecap:round;stroke-linejoin:bevel;stroke-dasharray:none;stroke-opacity:1;paint-order:fill markers stroke"
     d="m 372.3312,629.5156 c -0.065,3.7983 1.213,8.5839 3.6708,12.4545 2.4578,3.8706 6.0952,6.826 8.1413,5.8598 2.0461,-0.9663 2.5008,-5.8541 0.7469,-11.1302 -1.7539,-5.2761 -5.7161,-10.94 -8.4012,-12.3666 -2.6851,-1.4266 -4.0929,1.3842 -4.1578,5.1825 z"
     id="path77" />
  <path
     style="fill:none;fill-opacity:1;stroke:#5e4885;stroke-width:6;stroke-linecap:round;stroke-linejoin:bevel;stroke-dasharray:none;stroke-opacity:1;paint-order:fill markers stroke"
     d="m 361.2573,598.5961 c 3.0945,1.2057 6.8723,4.9834 7.8368,9.123 0.9646,4.1395 -0.8841,8.6406 -3.9787,7.4349 -3.0946,-1.2058 -7.435,-8.1182 -8.3995,-12.2577 -0.9645,-4.1395 1.4468,-5.5059 4.5414,-4.3002 z"
     id="path78" />
  <path
     style="fill:none;fill-opacity:1;stroke:#5e4885;stroke-width:6;stroke-linecap:round;stroke-linejoin:bevel;stroke-dasharray:none;stroke-opacity:1;paint-order:fill markers stroke"
     d="m 311.6237,566.3644 c -4.8227,-0.4823 -9.6454,-0.9645 -12.6998,0.3215 -3.0544,1.2861 -4.3404,4.3404 -4.0993,5.948 0.2412,1.6076 2.0095,1.7683 3.7778,1.9291"
     id="path79" />
  <path
     style="fill:none;fill-opacity:1;stroke:#5e4885;stroke-width:6;stroke-linecap:round;stroke-linejoin:bevel;stroke-dasharray:none;stroke-opacity:1;paint-order:fill markers stroke"
     d="m 286.1438,575.1257 c -1.688,-0.2412 -4.7423,1.5271 -6.7518,4.1796 -2.0094,2.6525 -2.974,6.1891 -1.286,6.4302 1.688,0.2411 6.0283,-2.8132 8.0377,-5.4657 2.0095,-2.6525 1.688,-4.903 10e-5,-5.1441 z"
     id="path80" />
  <path
     style="fill:none;fill-opacity:1;stroke:#5e4885;stroke-width:6;stroke-linecap:round;stroke-linejoin:bevel;stroke-dasharray:none;stroke-opacity:1;paint-order:fill markers stroke"
     d="m 367.2053,752.3999 c -2.7731,-0.1206 -8.8014,4.9433 -12.8606,11.3334 -4.0591,6.3901 -6.1489,14.1063 -3.3758,14.2268 2.7731,0.1205 10.409,-7.3545 14.4681,-13.7447 4.0591,-6.3901 4.5413,-11.695 1.7683,-11.8155 z"
     id="path81" />
  <path
     style="fill:none;fill-opacity:1;stroke:#5e4885;stroke-width:6;stroke-linecap:round;stroke-linejoin:bevel;stroke-dasharray:none;stroke-opacity:1;paint-order:fill markers stroke"
     d="m 387.2596,719.485 c -2.2506,-0.5627 -6.7518,2.974 -9.3239,8.1987 -2.572,5.2246 -3.2151,12.137 -0.9644,12.6996 2.2506,0.5625 7.3947,-5.2246 9.9668,-10.4492 2.5721,-5.2246 2.5721,-9.8865 0.3215,-10.4491 z"
     id="path82" />
  <path
     style="fill:none;fill-opacity:1;stroke:#5e4885;stroke-width:6;stroke-linecap:round;stroke-linejoin:bevel;stroke-dasharray:none;stroke-opacity:1;paint-order:fill markers stroke"
     d="m 397.3873,687.0122 c -2.0899,0.08 -4.7423,1.929 -5.3451,5.5059 -0.6029,3.5769 0.8439,8.8818 2.9338,8.8014 2.0898,-0.08 4.8226,-5.5461 5.4255,-9.1229 0.6028,-3.5769 -0.9244,-5.2648 -3.0142,-5.1844 z"
     id="path83" />
  <path
     style="fill:none;fill-opacity:1;stroke:#5e4885;stroke-width:6;stroke-linecap:round;stroke-linejoin:bevel;stroke-dasharray:none;stroke-opacity:1;paint-order:fill markers stroke"
     d="m 395.4537,639.3613 c -1.9893,0.6821 -2.444,5.6836 -1.1936,11.1399 1.2504,5.4564 4.2059,11.3672 6.1951,10.6851 1.9893,-0.6821 3.0123,-7.957 1.7619,-13.4133 -1.2504,-5.4563 -4.7742,-9.0937 -6.7634,-8.4117 z"
     id="path84" />
  <path
     style="fill:none;fill-opacity:1;stroke:#5e4885;stroke-width:6;stroke-linecap:round;stroke-linejoin:bevel;stroke-dasharray:none;stroke-opacity:1;paint-order:fill markers stroke"
     d="m 378.8575,605.8281 c -1.5345,0.9094 -1.4209,5.0015 0.9095,9.6053 2.3303,4.6038 6.877,9.7189 8.4116,8.8095 1.5345,-0.9095 0.057,-7.8433 -2.2734,-12.447 -2.3303,-4.6038 -5.5131,-6.8772 -7.0477,-5.9678 z"
     id="path85" />
  <path
     style="fill:none;fill-opacity:1;stroke:#5e4885;stroke-width:6;stroke-linecap:round;stroke-linejoin:bevel;stroke-dasharray:none;stroke-opacity:1;paint-order:fill markers stroke"
     d="m 362.0341,591.6475 c 3.0691,1.6482 6.1383,3.2965 7.545,2.2592 1.4066,-1.0373 1.1509,-4.76 0.8951,-8.4827"
     id="path86" />
  <path
     style="fill:none;fill-opacity:1;stroke:#5e4885;stroke-width:6;stroke-linecap:round;stroke-linejoin:bevel;stroke-dasharray:none;stroke-opacity:1;paint-order:fill markers stroke"
     d="m 538.4511,1155.1351 c -5.6265,2.1702 -14.4681,11.4941 -19.2104,21.4611 -4.7423,9.967 -5.3854,20.5767 0.2413,18.4063 5.6266,-2.1703 17.5223,-17.1204 22.2646,-27.0873 4.7423,-9.967 2.331,-14.9503 -3.2955,-12.7801 z"
     id="path88" />
  <path
     style="fill:none;fill-opacity:1;stroke:#5e4885;stroke-width:6;stroke-linecap:round;stroke-linejoin:bevel;stroke-dasharray:none;stroke-opacity:1;paint-order:fill markers stroke"
     d="m 503.8884,1215.0169 c 2.5721,1.9291 3.5367,11.0922 1.0449,18.7282 -2.4918,7.636 -8.4396,13.7446 -11.0117,11.8154 -2.5721,-1.9291 -1.7684,-11.8959 0.7234,-19.5319 2.4917,-7.636 6.6713,-12.9408 9.2434,-11.0117 z"
     id="path89" />
  <path
     style="fill:none;fill-opacity:1;stroke:#5e4885;stroke-width:6;stroke-linecap:round;stroke-linejoin:bevel;stroke-dasharray:none;stroke-opacity:1;paint-order:fill markers stroke"
     d="m 487.5717,1270.8798 c -2.1702,0.4019 -5.8676,7.9574 -6.591,18.7283 -0.7234,10.7708 1.5271,24.7563 3.6974,24.3542 2.1702,-0.402 4.26,-15.1913 4.9834,-25.9621 0.7234,-10.7707 0.08,-17.5223 -2.0898,-17.1204 z"
     id="path90" />
  <path
     style="fill:none;fill-opacity:1;stroke:#5e4885;stroke-width:6;stroke-linecap:round;stroke-linejoin:bevel;stroke-dasharray:none;stroke-opacity:1;paint-order:fill markers stroke"
     d="m 483.7135,1334.3786 c 1.8487,8.279 5.5461,19.6927 8.8416,27.8913 3.2956,8.1986 6.1892,13.182 6.8322,10.6098 0.643,-2.5722 -0.9645,-12.6997 -4.2601,-23.4705 -3.2956,-10.7708 -8.2789,-22.1843 -10.7707,-25.319 -2.4917,-3.1347 -2.4917,2.0094 -0.643,10.2884 z"
     id="path91" />
  <path
     style="fill:none;fill-opacity:1;stroke:#5e4885;stroke-width:6;stroke-linecap:round;stroke-linejoin:bevel;stroke-dasharray:none;stroke-opacity:1;paint-order:fill markers stroke"
     d="m 511.8459,1246.8467 c -2.8132,-1.4468 -9.8865,4.3404 -13.1016,13.4232 -3.2152,9.0829 -2.5721,21.4609 0.2411,22.9077 2.8133,1.4467 7.7967,-8.0378 11.0118,-17.1206 3.2152,-9.0828 4.662,-17.7635 1.8487,-19.2103 z"
     id="path92" />
  <path
     style="fill:none;fill-opacity:1;stroke:#5e4885;stroke-width:6;stroke-linecap:round;stroke-linejoin:bevel;stroke-dasharray:none;stroke-opacity:1;paint-order:fill markers stroke"
     d="m 542.2289,1199.5843 c -2.974,-2.2506 -10.6903,2.7328 -16.0757,10.2885 -5.3853,7.5556 -8.4397,17.6831 -5.4656,19.9336 2.9741,2.2506 11.9763,-3.3758 17.3616,-10.9315 5.3854,-7.5556 7.1537,-17.04 4.1797,-19.2906 z"
     id="path93" />
  <path
     style="fill:none;fill-opacity:1;stroke:#5e4885;stroke-width:6;stroke-linecap:round;stroke-linejoin:bevel;stroke-dasharray:none;stroke-opacity:1;paint-order:fill markers stroke"
     d="m 591.6515,1164.8671 c -5.3994,-1.5915 -17.3349,1.1367 -24.6668,6.5362 -7.3319,5.3995 -10.06,13.47 -4.6604,15.0613 5.3996,1.5914 18.9263,-3.2964 26.2581,-8.6959 7.3318,-5.3994 8.4686,-11.3102 3.0691,-12.9016 z"
     id="path94" />
  <path
     style="fill:none;fill-opacity:1;stroke:#5e4885;stroke-width:6;stroke-linecap:round;stroke-linejoin:bevel;stroke-dasharray:none;stroke-opacity:1;paint-order:fill markers stroke"
     d="m 591.822,1126.5596 c -5.9109,-1.7051 -16.8234,2.5007 -23.7574,9.2643 -6.934,6.7636 -9.8894,16.0845 -3.9784,17.7895 5.9111,1.7051 20.6882,-4.2058 27.6222,-10.9693 6.9339,-6.7636 6.0246,-14.3794 0.1136,-16.0845 z"
     id="path95" />
  <path
     style="fill:none;fill-opacity:1;stroke:#5e4885;stroke-width:6;stroke-linecap:round;stroke-linejoin:bevel;stroke-dasharray:none;stroke-opacity:1;paint-order:fill markers stroke"
     d="m 615.0918,1124.953 c 5.5863,-1.4066 13.9456,-3.416 21.5414,-8.5603 7.5958,-5.1443 14.4278,-13.4231 12.78,-16.1157 -1.6479,-2.6926 -11.7753,0.2009 -20.7777,5.747 -9.0025,5.5462 -16.8795,13.7447 -19.4113,17.442 -2.5319,3.6974 0.2813,2.8937 5.8676,1.487 z"
     id="path97" />
  <path
     style="fill:none;fill-opacity:1;stroke:#5e4885;stroke-width:6;stroke-linecap:round;stroke-linejoin:bevel;stroke-dasharray:none;stroke-opacity:1;paint-order:fill markers stroke"
     d="m 667.0161,1092.641 c 2.13,1.0851 11.2128,-2.773 17,-8.3594 5.7873,-5.5864 8.2789,-12.9006 6.1489,-13.9857 -2.1301,-1.0851 -8.8817,4.0591 -14.669,9.6454 -5.7873,5.5864 -10.6099,11.6146 -8.4799,12.6997 z"
     id="path98" />
  <path
     style="fill:none;fill-opacity:1;stroke:#5e4885;stroke-width:6;stroke-linecap:round;stroke-linejoin:bevel;stroke-dasharray:none;stroke-opacity:1;paint-order:fill markers stroke"
     d="m 608.7024,1158.8424 c -1.7619,-2.8418 2.2166,-10.4578 10.1169,-16.1414 7.9003,-5.6837 19.7219,-9.4348 21.4837,-6.5929 1.7619,2.8419 -6.536,12.2765 -14.4362,17.9601 -7.9003,5.6837 -15.4025,7.6161 -17.1644,4.7742 z"
     id="path99" />
  <path
     style="fill:none;fill-opacity:1;stroke:#5e4885;stroke-width:6;stroke-linecap:round;stroke-linejoin:bevel;stroke-dasharray:none;stroke-opacity:1;paint-order:fill markers stroke"
     d="m 686.5078,1098.6292 c -5.4657,2.5721 -14.1465,6.4302 -21.1395,12.6194 -6.993,6.1893 -12.2978,14.7092 -9.0826,16.2363 3.2153,1.5272 14.9503,-3.9385 23.0685,-10.7707 8.1183,-6.8322 12.6194,-15.0306 13.7446,-18.4869 1.1253,-3.4562 -1.1252,-2.1702 -6.591,0.4019 z"
     id="path100" />
  <path
     style="fill:none;fill-opacity:1;stroke:#5e4885;stroke-width:6;stroke-linecap:round;stroke-linejoin:bevel;stroke-dasharray:none;stroke-opacity:1;paint-order:fill markers stroke"
     d="m 710.9428,1027.6552 c -3.3759,1.0449 -8.1986,10.0473 -10.7706,18.4871 -2.5721,8.4398 -2.8937,16.3167 0.4823,15.2716 3.376,-1.045 10.4491,-11.0117 13.0212,-19.4514 2.5721,-8.4398 0.643,-15.3522 -2.7329,-14.3073 z"
     id="path101" />
  <path
     style="fill:none;fill-opacity:1;stroke:#5e4885;stroke-width:6;stroke-linecap:round;stroke-linejoin:bevel;stroke-dasharray:none;stroke-opacity:1;paint-order:fill markers stroke"
     d="m 720.8293,1063.1824 c -3.9385,0.7234 -10.5295,6.8321 -14.0661,12.539 -3.5367,5.7069 -4.0189,11.0118 -0.08,10.2883 3.9386,-0.7234 12.2978,-7.4751 15.8344,-13.182 3.5366,-5.7069 2.2506,-10.3687 -1.688,-9.6453 z"
     id="path102" />
  <path
     style="fill:none;fill-opacity:1;stroke:#5e4885;stroke-width:6;stroke-linecap:round;stroke-linejoin:bevel;stroke-dasharray:none;stroke-opacity:1;paint-order:fill markers stroke"
     d="m 722.4369,1016.2415 c 0.2412,3.9385 0.4019,10.208 0.9646,15.5934 0.5627,5.3854 1.5272,9.8865 2.7328,8.3593 1.2057,-1.5273 2.6525,-9.0827 1.9291,-15.2719 -0.7235,-6.1892 -3.617,-11.0118 -4.903,-12.6194 -1.2861,-1.6075 -0.9646,0 -0.7235,3.9386 z"
     id="path103" />
  <path
     style="fill:none;fill-opacity:1;stroke:#5e4885;stroke-width:6;stroke-linecap:round;stroke-linejoin:bevel;stroke-dasharray:none;stroke-opacity:1;paint-order:fill markers stroke"
     d="m 707.165,993.0122 c -2.3309,1.4468 -3.617,8.5201 -2.7328,14.0662 0.8842,5.5461 3.9385,9.565 6.2695,8.1181 2.331,-1.4469 3.9385,-8.3593 3.0543,-13.9054 -0.8842,-5.5462 -4.26,-9.7257 -6.591,-8.2789 z"
     id="path104" />
  <path
     style="fill:none;fill-opacity:1;stroke:#5e4885;stroke-width:6;stroke-linecap:round;stroke-linejoin:bevel;stroke-dasharray:none;stroke-opacity:1;paint-order:fill markers stroke"
     d="m 689.723,975.1682 c -0.8038,1.7683 2.7328,7.234 7.0733,9.7257 4.3405,2.4918 9.4846,2.0095 10.2884,0.2411 0.8037,-1.7683 -2.7329,-4.8226 -7.0733,-7.3144 -4.3405,-2.4917 -9.4846,-4.4207 -10.2884,-2.6524 z"
     id="path105" />
  <path
     style="fill:none;fill-opacity:1;stroke:#5e4885;stroke-width:6;stroke-linecap:round;stroke-linejoin:bevel;stroke-dasharray:none;stroke-opacity:1;paint-order:fill markers stroke"
     d="m 663.0374,964.3975 c 0.8038,1.7683 6.2695,4.662 11.3334,5.0638 5.0639,0.4019 9.7257,-1.6879 8.9218,-3.4562 -0.8038,-1.7684 -7.0732,-3.2152 -12.1371,-3.6171 -5.0638,-0.4019 -8.9219,0.2412 -8.1181,2.0095 z"
     id="path106" />
  <path
     style="fill:none;fill-opacity:1;stroke:#5e4885;stroke-width:6;stroke-linecap:round;stroke-linejoin:bevel;stroke-dasharray:none;stroke-opacity:1;paint-order:fill markers stroke"
     d="m 510.6402,1402.1374 c -6.4302,-6.591 -6.7518,-1.1252 -2.572,7.8773 4.1797,9.0024 12.8604,21.5412 19.2908,28.1322 6.4303,6.5911 10.6098,7.2341 6.43,-1.7685 -4.1797,-9.0025 -16.7185,-27.6499 -23.1488,-34.241 z"
     id="path107" />
  <path
     style="fill:none;fill-opacity:1;stroke:#5e4885;stroke-width:6;stroke-linecap:round;stroke-linejoin:bevel;stroke-dasharray:none;stroke-opacity:1;paint-order:fill markers stroke"
     d="m 769.9405,1501.3242 c -4.9835,0.6431 -16.5579,6.4303 -25.3996,11.0922 -8.8417,4.662 -14.9503,8.1986 -9.9667,7.5555 4.9836,-0.6431 21.0589,-5.4656 29.9005,-10.1276 8.8417,-4.662 10.4492,-9.1631 5.4658,-8.5201 z"
     id="path108" />
  <path
     style="fill:none;fill-opacity:1;stroke:#5e4885;stroke-width:6;stroke-linecap:round;stroke-linejoin:bevel;stroke-dasharray:none;stroke-opacity:1;paint-order:fill markers stroke"
     d="m 813.3447,1471.7451 c -6.2695,1.6075 -12.3782,4.8226 -18.3262,11.0922 -5.9481,6.2696 -11.7352,15.5933 -5.4655,13.9856 6.2696,-1.6077 24.5955,-14.1464 30.5435,-20.4159 5.9479,-6.2695 -0.4823,-6.2695 -6.7518,-4.6619 z"
     id="path109" />
  <path
     style="fill:none;fill-opacity:1;stroke:#5e4885;stroke-width:6;stroke-linecap:round;stroke-linejoin:bevel;stroke-dasharray:none;stroke-opacity:1;paint-order:fill markers stroke"
     d="m 846.4606,1436.3786 c -6.9126,4.8227 -15.2719,13.5035 -17.6832,20.5769 -2.4113,7.0733 1.1252,12.5389 8.0379,7.7161 6.9126,-4.8229 17.2008,-19.9337 19.6121,-27.007 2.4113,-7.0732 -3.0543,-6.1087 -9.9668,-1.286 z"
     id="path110" />
  <path
     style="fill:none;fill-opacity:1;stroke:#5e4885;stroke-width:6;stroke-linecap:round;stroke-linejoin:bevel;stroke-dasharray:none;stroke-opacity:1;paint-order:fill markers stroke"
     d="m 877.1651,1378.9885 c -2.5721,0.1608 -7.7163,11.4137 -10.9315,22.3452 -3.2152,10.9316 -4.5012,21.5414 -1.929,21.3805 2.5722,-0.1609 9.0023,-11.0921 12.2175,-22.0236 3.2151,-10.9316 3.2151,-21.8628 0.643,-21.7021 z"
     id="path111" />
  <path
     style="fill:none;fill-opacity:1;stroke:#5e4885;stroke-width:6;stroke-linecap:round;stroke-linejoin:bevel;stroke-dasharray:none;stroke-opacity:1;paint-order:fill markers stroke"
     d="m 883.4345,1287.0358 c -2.7328,0.8038 -3.6974,9.4846 -1.7682,19.4516 1.9291,9.9671 6.7517,21.2198 9.4846,20.4159 2.7328,-0.8039 3.3759,-13.6642 1.4467,-23.6312 -1.9291,-9.9669 -6.4302,-17.0401 -9.1631,-16.2363 z"
     id="path113" />
  <path
     style="fill:none;fill-opacity:1;stroke:#5e4885;stroke-width:6;stroke-linecap:round;stroke-linejoin:bevel;stroke-dasharray:none;stroke-opacity:1;paint-order:fill markers stroke"
     d="m 884.8814,1341.3715 c -3.5366,5.948 -6.7518,17.2009 -5.3049,24.7565 1.4468,7.5556 7.5555,11.4137 11.0921,5.4656 3.5367,-5.9482 4.5012,-21.702 3.0543,-29.2575 -1.4468,-7.5556 -5.3049,-6.9126 -8.8415,-0.9646 z"
     id="path114" />
  <path
     style="fill:none;fill-opacity:1;stroke:#5e4885;stroke-width:6;stroke-linecap:round;stroke-linejoin:bevel;stroke-dasharray:none;stroke-opacity:1;paint-order:fill markers stroke"
     d="m 914.7821,1243.9531 c -2.5721,2.7328 -0.9646,15.5933 4.019,27.1679 4.9835,11.5746 13.3427,21.8628 15.9147,19.1298 2.5721,-2.733 -0.643,-18.4869 -5.6265,-30.0614 -4.9835,-11.5745 -11.7351,-18.9692 -14.3072,-16.2363 z"
     id="path115" />
  <path
     style="fill:none;fill-opacity:1;stroke:#5e4885;stroke-width:6;stroke-linecap:round;stroke-linejoin:bevel;stroke-dasharray:none;stroke-opacity:1;paint-order:fill markers stroke"
     d="m 936.4842,1315.8112 c -2.7329,3.2151 0.1608,17.0402 6.4304,28.1325 6.2696,11.0923 15.9148,19.4514 18.6476,16.2362 2.7328,-3.2153 -1.4468,-18.0046 -7.7164,-29.0969 -6.2696,-11.0923 -14.6287,-18.4869 -17.3616,-15.2718 z"
     id="path116" />
  <path
     style="fill:none;fill-opacity:1;stroke:#5e4885;stroke-width:6;stroke-linecap:round;stroke-linejoin:bevel;stroke-dasharray:none;stroke-opacity:1;paint-order:fill markers stroke"
     d="m 980.0492,1380.5961 c 0.9646,5.948 9.6454,20.7376 20.8985,28.6147 11.2531,7.8771 25.0779,8.8416 24.1132,2.8934 -0.9647,-5.9481 -16.7185,-18.8083 -27.9715,-26.6854 -11.2531,-7.8771 -18.0047,-10.7707 -17.0402,-4.8227 z"
     id="path117" />
  <path
     style="opacity:0.210168;fill:url(#linearGradient47);fill-opacity:1;stroke:none;stroke-width:30;stroke-linecap:butt;stroke-linejoin:bevel;stroke-opacity:1;paint-order:fill markers stroke;filter:url(#filter47)"
     d="m 1167.0922,1005.6927 c -30.2222,-9.6454 -48.87,-9.0023 -50.7989,2.2508 -1.9289,11.2532 12.8604,33.1156 37.2957,50.4774 24.4353,17.3619 58.515,30.2221 80.0565,41.4752 21.5415,11.2531 30.5436,20.8982 36.3309,13.1816 5.7873,-7.7165 8.3593,-32.794 -11.2534,-55.3001 -19.6127,-22.5061 -61.4086,-42.4395 -91.6308,-52.0849 z"
     id="path41" />
  <path
     style="opacity:0.210168;fill:url(#linearGradient48);fill-opacity:1;stroke:none;stroke-width:30;stroke-linecap:butt;stroke-linejoin:bevel;stroke-opacity:1;paint-order:fill markers stroke;filter:url(#filter47)"
     d="m 956.8227,1009.5509 c -30.2222,-9.6454 -48.87,-9.0023 -50.7989,2.2508 -1.9289,11.2532 12.8604,33.1156 37.2957,50.4774 24.4353,17.3619 58.515,30.2221 80.0565,41.4752 21.5415,11.2531 30.5436,20.8982 36.3309,13.1816 5.7873,-7.7165 8.3593,-32.794 -11.2534,-55.3001 -19.6127,-22.5061 -61.4086,-42.4395 -91.6308,-52.0849 z"
     id="path47" />
  <path
     style="opacity:0.257523;fill:url(#linearGradient17);fill-opacity:1;stroke:none;stroke-width:30;stroke-linecap:round;stroke-linejoin:bevel;stroke-opacity:1;paint-order:fill markers stroke;filter:url(#filter17)"
     d="m 1500.4208,797.03074 c -1.3664,4.34044 0.2411,9.48466 5.6266,15.35233 5.3854,5.86766 14.5484,12.45857 26.3641,18.40661 11.8158,5.94804 26.2836,11.25289 50.6385,17.52247 24.355,6.26957 58.5954,13.50346 75.8768,16.87934 17.2813,3.37589 17.6028,2.89363 18.4066,1.92908 0.8038,-0.96456 2.0898,-2.41131 3.1348,-4.74233 1.0449,-2.33101 1.8486,-5.54606 0.9644,-8.5201 -0.8842,-2.97404 -3.4562,-5.70682 -9.4043,-9.64542 -5.9481,-3.93859 -15.2718,-9.08271 -34.4021,-18.72823 -19.1303,-9.64552 -48.0659,-23.7918 -66.9549,-31.91002 -18.8889,-8.11821 -27.7304,-10.20802 -36.0898,-10.52952 -8.3594,-0.32151 -16.2363,1.12527 -22.3451,3.61703 -6.1088,2.49176 -10.4491,6.02831 -11.8156,10.36876 z"
     id="path2" />
  <path
     style="opacity:0.177469;fill:url(#linearGradient19);fill-opacity:1;stroke:none;stroke-width:30;stroke-linecap:round;stroke-linejoin:bevel;stroke-opacity:1;paint-order:fill markers stroke;filter:url(#filter19)"
     d="m 1755.6646,832.69022 c -2.9132,-0.1108 -5.2131,0.44373 -8.6374,1.93935 -3.4242,1.49561 -7.9723,3.93207 -12.5011,10.14723 -4.5289,6.21516 -9.038,16.20844 -12.5788,26.91216 -3.5407,10.70372 -6.1128,22.1172 -6.0726,31.76268 0.04,9.64547 2.6927,17.52237 5.8677,22.50585 3.175,4.98348 6.8723,7.07326 12.6998,-3.09481 5.8275,-10.16807 13.7848,-32.59317 19.3378,-49.3878 5.553,-16.79463 8.7014,-27.9574 8.5125,-33.92755 -0.1888,-5.97014 -3.7148,-6.7463 -6.6279,-6.85711 z"
     id="path17" />
  <path
     style="opacity:0.177469;mix-blend-mode:color-dodge;fill:#ffffff;fill-opacity:1;stroke:none;stroke-width:30;stroke-linecap:butt;stroke-linejoin:bevel;stroke-opacity:1;paint-order:fill markers stroke"
     d="m 1778.208,832.47756 c -7.1536,1.8487 -8.9219,7.15366 -9.3238,10.12765 -0.4019,2.974 0.5626,3.617 5.7873,5.06385 5.2247,1.44684 14.7092,3.6974 24.435,8.52016 9.7259,4.82277 19.6926,12.21742 26.9267,20.09458 7.2341,7.87716 11.7351,16.23634 14.9503,21.70209 3.2152,5.46575 5.1442,8.03777 6.1891,5.30483 1.0449,-2.73294 1.2057,-10.77061 -0.08,-18.72814 -1.2861,-7.95752 -4.0189,-15.83444 -7.0733,-21.86285 -3.0544,-6.02842 -6.4302,-10.20799 -11.4137,-14.70921 -4.9835,-4.50122 -11.5744,-9.32384 -21.1396,-12.53898 -9.5651,-3.21515 -22.1039,-4.82269 -29.2576,-2.97398 z"
     id="path20" />
</svg>
